<?xml version="1.0" encoding="UTF-8"?><svg id="a" xmlns="http://www.w3.org/2000/svg" viewBox="0 0 84.08 101.52"><g id="b"><path d="M42.34,100.71V61.41c0-18.77,.08-37.55-.07-56.32-.03-3.43,.91-4.6,4.45-4.59,5.38,.02,9.88,.14,13.62,5.49,4.43,6.33,12.33,6.66,19.41,7.41,3.09,.32,3.85,1.32,3.83,4.22-.1,19.6-.06,39.21-.05,58.81,0,1.86,.03,3.59-2.05,4.63-12.76,6.36-25.48,12.78-39.14,19.65Z" style="fill:#fff; stroke:#999; stroke-miterlimit:10;"/><path d="M41.74,100.71V61.41c0-18.77-.08-37.55,.07-56.32,.03-3.43-.91-4.6-4.45-4.59-5.38,.02-9.88,.14-13.62,5.49-4.43,6.33-12.33,6.66-19.41,7.41-3.09,.32-3.85,1.32-3.83,4.22,.1,19.6,.06,39.21,.05,58.81,0,1.86-.03,3.59,2.05,4.63,12.76,6.36,25.48,12.78,39.14,19.65Z" style="fill:#eff1f5; stroke:#999; stroke-miterlimit:10;"/></g></svg>