<svg width="146" height="56" viewBox="0 0 146 56" fill="none" xmlns="http://www.w3.org/2000/svg">
<g clip-path="url(#clip0_417_3)">
<path d="M40.1712 55.3824C40.1712 55.3824 36.9784 56.1801 30.4536 55.6201C24.7409 55.1304 15.3163 55.314 11.3855 55.0746C7.45464 54.8351 1.61174 54.8567 1.61174 54.8567C0.940622 54.8567 0.39613 54.3112 0.39613 53.6378C0.39613 53.6378 0.186292 47.7215 0.39613 39.1188C0.605967 30.5162 0.880927 17.7958 0.39613 12.5925C-0.0886679 7.38913 0.39613 1.95712 0.39613 1.95712C0.39613 1.28374 0.940622 0.738199 1.61174 0.738199C1.61174 0.738199 4.57479 0.180054 10.7813 0.180054C16.9878 0.180054 23.8871 0.738199 31.3562 0.738199H40.6434C41.3145 0.738199 41.859 1.28374 41.859 1.95712C41.859 1.95712 42.0145 13.3847 41.859 19.1642C41.7034 24.9437 41.3344 35.6187 41.6075 41.1821C41.8427 45.9732 41.859 53.6378 41.859 53.6378C41.859 54.3112 40.8442 55.3842 40.173 55.3842L40.1712 55.3824Z" stroke="#F9F051" stroke-width="0.5" stroke-miterlimit="10"/>
<path d="M11.5085 50.5068C11.5085 50.5068 11.6243 49.196 11.5085 43.4435C11.3927 37.691 11.8522 27.9307 11.5085 22.9884C10.9911 15.5579 11.5085 15.142 11.5085 15.142L15.4267 11.2421C15.5949 11.0747 15.8373 11.0963 16.0689 11.0405C16.7707 10.8712 18.5507 10.9541 19.8206 10.9235C21.427 10.8856 23.0333 10.9163 24.2887 10.8694C25.4482 10.828 26.4956 10.8964 26.9515 10.9343C27.0799 10.9451 27.1903 10.8442 27.1903 10.7146V4.04927C27.1903 3.96824 27.2572 3.90163 27.3386 3.90163H31.7434C32.4199 3.90163 33.0711 4.1699 33.5487 4.64522L39.6937 10.7614C39.7118 10.7794 39.7118 10.8064 39.6937 10.8244L38.905 11.6094C38.867 11.6472 38.8145 11.6689 38.7585 11.6689H33.498C33.4474 11.6689 33.4076 11.7103 33.4076 11.7589V15.6497C33.4076 15.6695 33.3913 15.6875 33.3696 15.6875C33.3696 15.6875 31.217 15.5885 29.3664 15.6875C27.051 15.8117 25.2872 15.7199 22.8235 15.6875C20.4284 15.6569 17.7222 15.6875 17.7222 15.6875C17.6282 15.6875 17.5522 15.7595 17.545 15.8531C17.4636 17.1603 16.9498 25.8043 17.5558 25.7503C18.5055 25.6657 19.5547 25.5109 20.6238 25.5847C23.5127 25.7827 25.2782 25.6297 27.1161 25.6189C28.5705 25.6117 29.6685 25.6963 30.0719 25.7323C30.1587 25.7395 30.2148 25.8259 30.1877 25.9088L28.6844 30.3847C28.6555 30.4712 28.5741 30.5288 28.4836 30.5288H17.5829C17.4744 30.5288 17.384 30.6098 17.3731 30.716C17.3333 31.0833 17.2609 32.0916 17.2392 34.5672C17.2139 37.5722 17.4527 38.5355 17.3966 42.1616C17.3496 45.1612 17.3966 46.4665 17.3966 46.4665" stroke="#38FFE8" stroke-width="0.5" stroke-miterlimit="10"/>
<path d="M9.56752 7.62139C9.56752 7.62139 9.4427 7.67001 9.1804 8.13813C8.9181 8.60625 8.209 9.44167 7.6428 10.0844C7.319 10.4535 7.08564 10.9289 7.08564 10.9289C7.04946 10.9775 7.0567 11.0459 7.10192 11.0873C7.10192 11.0873 7.26654 11.4294 7.68983 11.7589C8.11312 12.0884 9.17859 13.0462 9.33597 13.183C9.49335 13.3217 9.97453 13.6134 9.97453 13.6134C10.0216 13.6548 10.0921 13.653 10.1373 13.608C10.1373 13.608 10.4394 13.201 10.8663 12.8716C11.2933 12.5403 12.1941 11.4366 12.5487 11.1701C12.9032 10.9037 13.3645 10.3455 13.3645 10.3455C13.4151 10.2933 13.4079 10.2105 13.3482 10.1673C13.3482 10.1673 13.1076 9.76575 12.4003 9.22921C11.8178 8.7881 11.1793 8.51623 10.7415 8.13633C10.3038 7.75823 9.73213 7.59619 9.73213 7.59619C9.67967 7.55838 9.60731 7.57098 9.56933 7.62139H9.56752Z" stroke="#F9F051" stroke-width="0.5" stroke-miterlimit="10"/>
<path d="M11.1702 10.3617C11.2046 10.6534 11.1829 10.8424 11.0129 11.0567C10.8428 11.2709 10.5281 11.5104 10.235 11.5464C9.97272 11.577 9.63083 11.55 9.42642 11.4168C9.17317 11.2493 9.08272 10.9397 9.04473 10.6156C9.00674 10.2969 9.03569 9.9692 9.23648 9.74774C9.4029 9.5641 9.71404 9.46147 9.97996 9.43086C10.2205 9.40205 10.5172 9.5659 10.7108 9.67753C10.9912 9.83957 11.1286 10.016 11.1702 10.3617Z" stroke="#F9F051" stroke-width="0.5" stroke-miterlimit="10"/>
<path d="M39.1003 23.768C39.1003 23.768 39.1854 23.624 39.0822 22.9632C38.9791 22.3024 39.0316 20.9377 39.0931 19.8754C39.1275 19.265 38.99 18.6187 38.99 18.6187C38.99 18.543 38.9285 18.48 38.8525 18.4764C38.8525 18.4764 38.4274 18.2658 37.7563 18.2658C37.0852 18.2658 35.2997 18.1379 35.0392 18.1217C34.777 18.1055 34.0787 18.1865 34.0787 18.1865C34.0009 18.1811 33.9322 18.2388 33.9231 18.3162C33.9231 18.3162 33.9394 18.9463 33.7748 19.5981C33.6102 20.2499 33.5758 22.0233 33.4329 22.5563C33.29 23.0892 33.2683 23.9913 33.2683 23.9913C33.2574 24.0813 33.3298 24.1587 33.4202 24.1533C33.4202 24.1533 33.9665 24.364 35.0772 24.3514C35.9908 24.3405 36.8283 24.1191 37.5519 24.1569C38.2755 24.1947 38.961 23.9174 38.961 23.9174C39.0406 23.9138 39.104 23.8472 39.1021 23.768H39.1003Z" stroke="#F9F051" stroke-width="0.5" stroke-miterlimit="10"/>
<path d="M35.4083 22.2988C35.1478 22.0378 35.0266 21.8361 35.0266 21.4958C35.0266 21.1555 35.1532 20.6784 35.4137 20.4191C35.6471 20.1887 36.0034 19.9528 36.3092 19.9294C36.6854 19.9006 37.0146 20.1365 37.3023 20.4245C37.5863 20.709 37.8106 21.0529 37.7834 21.4238C37.7617 21.7317 37.5338 22.0684 37.2968 22.3042C37.0816 22.5167 36.6655 22.5833 36.3869 22.6193C35.9872 22.6733 35.714 22.6049 35.4083 22.297V22.2988Z" stroke="#F9F051" stroke-width="0.5" stroke-miterlimit="10"/>
<path d="M38.2483 50.64C38.2483 50.64 38.3641 50.4312 38.1615 49.4373C37.9589 48.4416 37.9335 46.4107 37.9426 44.8263C37.948 43.9171 37.6929 42.943 37.6929 42.943C37.6839 42.8296 37.5898 42.7324 37.4759 42.7197C37.4759 42.7197 36.8246 42.3723 35.8243 42.3218C34.8239 42.2714 32.1485 41.9455 31.7578 41.9023C31.3671 41.8591 30.3287 41.9257 30.3287 41.9257C30.2111 41.9131 30.1153 41.9924 30.108 42.1076C30.108 42.1076 30.1804 43.0492 29.985 44.0107C29.7897 44.9721 29.8711 47.6188 29.701 48.4038C29.531 49.1888 29.5635 50.5356 29.5635 50.5356C29.5545 50.6688 29.6685 50.7895 29.8041 50.7895C29.8041 50.7895 30.6344 51.1459 32.2914 51.209C33.6536 51.2612 34.8873 50.9947 35.969 51.1045C37.0508 51.2144 38.0547 50.8525 38.0547 50.8525C38.1741 50.8525 38.2628 50.7588 38.2537 50.64H38.2483Z" stroke="#F9F051" stroke-width="0.5" stroke-miterlimit="10"/>
<path d="M32.628 48.1698C32.221 47.7611 32.022 47.4496 31.9967 46.9418C31.9731 46.4341 32.1215 45.7301 32.4923 45.3646C32.8233 45.0369 33.3371 44.7129 33.7911 44.7021C34.3519 44.6877 34.8602 45.064 35.3106 45.5159C35.7556 45.9606 36.1156 46.4935 36.1048 47.0445C36.0939 47.5036 35.7828 47.9897 35.4463 48.3228C35.1424 48.6235 34.5256 48.6901 34.1131 48.7261C33.5198 48.7765 33.1092 48.6541 32.628 48.1716V48.1698Z" stroke="#F9F051" stroke-width="0.5" stroke-miterlimit="10"/>
<path d="M36.4087 9.79995C35.9094 9.45606 35.2835 9.01135 34.5292 8.4496C34.1529 8.16873 33.7423 7.85725 33.3009 7.51516C32.8884 7.19107 32.4416 6.84178 31.9605 6.46368L31.8953 6.47089L31.8628 6.47449L31.7958 6.47809C31.7036 6.48349 31.6095 6.48709 31.5137 6.49249C31.3237 6.50149 31.1283 6.5105 30.9276 6.5195C30.7268 6.5267 30.5223 6.5357 30.3107 6.5447C30.1732 6.54831 30.1823 6.55191 30.1407 6.55551C30.1117 6.55911 30.081 6.56271 30.052 6.56631C30.0575 6.61132 30.0611 6.65633 30.0665 6.70315V6.71935L30.0701 6.77336L30.0737 6.8958C30.0755 6.97682 30.0773 7.05964 30.0792 7.14246C30.0864 7.47375 30.0918 7.81404 30.0991 8.16333C30.1099 8.86191 30.1171 9.5983 30.1171 10.3671C30.1099 11.352 30.1045 12.3458 30.0972 13.4009C29.721 13.3973 29.3429 13.3937 28.963 13.3883C28.7297 13.3829 28.4945 13.3793 28.2594 13.3739C27.789 13.3613 27.3151 13.3505 26.8393 13.3379C25.8878 13.3073 24.9255 13.2749 23.9523 13.2443C22.0095 13.165 20.0232 13.0822 17.9918 12.9994C17.299 13.5035 16.5989 14.0131 15.8934 14.528C15.5389 14.7873 15.1843 15.0465 14.8261 15.3094C14.647 15.4408 14.468 15.5723 14.2889 15.7037C14.0845 15.8549 13.88 16.008 13.6738 16.1592C13.6738 17.072 13.6738 17.9921 13.6738 18.9211C13.6793 19.8178 13.6829 20.7216 13.6883 21.6308C13.701 22.5419 13.7136 23.4583 13.7281 24.382C13.739 24.8429 13.748 25.3074 13.7588 25.7719C13.7769 26.3805 13.795 26.9926 13.8131 27.6066C14.2274 27.6066 14.6507 27.6066 15.074 27.6066H27.0148" stroke="#F9F051" stroke-width="0.5" stroke-miterlimit="10"/>
<path d="M13.8203 27.63C14.0681 29.02 14.41 31.7063 14.3485 35.7591C14.3087 38.4328 14.1025 41.2307 13.8692 44.1511C13.7552 45.6113 13.6376 47.1021 13.5182 48.6199C13.4621 49.3797 13.4097 50.1467 13.3608 50.9209C13.3391 51.308 13.3156 51.6969 13.2921 52.0876C13.2813 52.2838 13.2722 52.4783 13.2614 52.6745V52.7105C13.2595 52.7249 13.2577 52.7357 13.2577 52.7357L13.2541 52.7574L13.2487 52.797L13.2378 52.8708L13.1311 52.86H13.1076C13.1076 52.86 13.1076 52.8564 13.0895 52.8564H13.0389L12.8399 52.851C12.5721 52.8456 12.3044 52.8402 12.0331 52.8348C11.4922 52.8258 10.9441 52.8204 10.3942 52.8204H2.45471" stroke="#F9F051" stroke-width="0.5" stroke-miterlimit="10"/>
<path d="M13.558 52.9266C15.2837 52.8222 17.8144 52.7052 21.17 52.6349C22.8487 52.6007 24.7318 52.5773 26.8266 52.5737C27.874 52.5737 28.9738 52.5737 30.1261 52.5845C30.7032 52.5899 31.2911 52.5971 31.8953 52.6025C32.0454 52.6079 32.1974 52.6025 32.3493 52.5935C32.5013 52.5863 32.655 52.5791 32.8088 52.5719C33.1163 52.5575 33.4274 52.5431 33.7404 52.5287C34.7046 52.4891 35.6778 52.4477 36.6655 52.4081C37.1593 52.3901 37.6586 52.3721 38.1615 52.3523C38.4129 52.3433 38.6661 52.3343 38.9212 52.3253L39.113 52.318H39.1708H39.1926H39.2848C39.2758 50.4546 39.2685 48.5659 39.2595 46.6484C39.2595 44.5958 39.2631 42.5127 39.2649 40.4025C39.2776 36.1372 39.2902 31.7585 39.3029 27.2645C38.2863 27.0359 37.2624 26.8072 36.2313 26.5767C35.7375 26.4669 35.2436 26.3571 34.7462 26.2455C34.4983 26.1896 34.2487 26.1356 33.9991 26.0798C33.6282 26.0006 33.2574 25.9214 32.8848 25.8403C32.8522 27.9739 32.8196 30.1345 32.7871 32.3166C32.7762 33.3465 32.7654 34.38 32.7563 35.4206C32.7509 36.6144 32.7455 37.8153 32.74 39.0198C33.4636 38.9964 34.1944 38.973 34.9271 38.9496L37.2877 38.8721V28.0909L34.5761 28.0711V34.479" stroke="#F9F051" stroke-width="0.5" stroke-miterlimit="10"/>
<path d="M19.5547 46.5511V33.1935C19.5547 32.9576 19.7464 32.7668 19.9834 32.7668H28.0875C28.3697 32.7668 28.5506 33.0638 28.4203 33.3141L22.4291 44.7597C22.3079 44.9919 21.9552 44.9163 21.9407 44.6553L21.3872 35.0137C21.3727 34.7689 21.568 34.5636 21.8141 34.5636H24.8676C25.1407 34.5636 25.3053 34.8625 25.1606 35.0912L23.3824 37.9053" stroke="#F9F051" stroke-width="0.5" stroke-miterlimit="10"/>
<path d="M10.6149 6.18641L14.2707 3.68196L26.0976 3.90162V9.43626H15.982L16.8159 5.03771L24.9906 5.13854L24.4497 7.53136L19.0825 7.32791" stroke="#F9F051" stroke-width="0.5" stroke-miterlimit="10"/>
<path d="M14.8984 4.88107L11.5718 6.85259L14.1622 8.98254L15.2204 6.10539L13.3952 6.93181" stroke="#F9F051" stroke-width="0.5" stroke-miterlimit="10"/>
<path d="M8.1872 15.4678C8.50738 18.7573 8.98856 25.1201 9.13871 34.7509C9.1785 37.2715 9.19297 39.839 9.18936 42.4641C9.18393 43.7766 9.18031 45.1018 9.17489 46.4413C9.16584 47.8511 9.15499 49.2771 9.14594 50.7192C8.55623 50.7066 7.9647 50.6922 7.36956 50.6796C6.84677 50.6652 6.32218 50.6526 5.79577 50.6382C4.7285 50.6094 3.65036 50.5806 2.55957 50.5518C2.62831 47.9789 2.69886 45.3646 2.77122 42.7053C2.8291 40.1667 2.8888 37.5884 2.94849 34.9705H3.12758L3.59971 34.9471C3.92532 34.9327 4.25093 34.9183 4.57835 34.9021C4.90577 34.8877 5.23319 34.8715 5.56061 34.8571L5.98933 34.8373H6.11596L6.10872 34.9543V34.9831L6.1051 35.0948L6.09968 35.3252C6.09425 35.6331 6.08701 35.9428 6.08159 36.2507C6.07073 36.87 6.05988 37.4894 6.05084 38.1123C6.03636 39.3583 6.02008 40.6114 6.00561 41.8735L5.95496 47.7863L4.69594 47.4766L4.81171 37.7666" stroke="#F9F051" stroke-width="0.5" stroke-miterlimit="10"/>
<path d="M2.07839 16.3861C2.07839 16.3861 2.22311 20.6946 2.28823 22.6373C2.35335 24.58 2.43837 27.0935 2.4854 28.532C2.53244 29.9706 2.59213 31.7099 2.59213 31.7099C2.59756 31.8755 2.73504 32.0088 2.90146 32.0088H6.57362C6.74547 32.0088 6.88295 31.8701 6.88295 31.7009C6.88295 31.7009 6.95893 31.7441 6.88295 28.5338C6.80698 25.3236 6.70748 24.1785 6.88295 21.8613C7.05842 19.5441 6.88295 16.3771 6.88295 16.3771C6.88295 16.206 6.74366 16.0692 6.57362 16.0692H2.38772C2.21225 16.0692 2.07116 16.2132 2.07839 16.3879V16.3861Z" stroke="#F9F051" stroke-width="0.5" stroke-miterlimit="10"/>
<path d="M3.64136 19.9258L3.82045 28.532H5.31825V19.7097C5.31825 19.6179 5.24409 19.5441 5.15183 19.5441H4.01762C3.80598 19.5441 3.63593 19.7169 3.64136 19.9276V19.9258Z" stroke="#F9F051" stroke-width="0.5" stroke-miterlimit="10"/>
<path d="M26.9188 46.9275L16.1212 47.4424C16.0326 47.446 15.9639 47.518 15.9639 47.6062V51.5691C15.9639 51.6483 16.0272 51.7113 16.1068 51.7113H26.9803C27.0581 51.7113 27.1233 51.6483 27.1233 51.5691V47.1219C27.1233 47.0103 27.0292 46.922 26.9188 46.9275Z" stroke="#F9F051" stroke-width="0.5" stroke-miterlimit="10"/>
<path d="M24.6921 48.4758L18.3988 48.6613V50.1539H24.6921V48.4758Z" stroke="#F9F051" stroke-width="0.5" stroke-miterlimit="10"/>
<path d="M1.87219 2.14796C1.99701 3.15623 2.14715 4.6038 2.27197 6.5123C2.33347 7.46655 2.38955 8.53603 2.43297 9.72434C2.45467 10.3185 2.47276 10.9415 2.48723 11.595C2.49266 11.9209 2.4999 12.2558 2.50532 12.5979C2.50713 12.7653 2.51075 12.9346 2.51256 13.1056C2.51256 13.1362 2.51618 13.1668 2.51799 13.1974C2.54874 13.1974 2.5813 13.1956 2.61748 13.1938C2.81646 13.1938 3.0263 13.1938 3.23976 13.1938C3.83128 13.1974 4.42642 13.1992 5.03242 13.2028C5.33451 13.2064 5.64023 13.21 5.94956 13.2136H6.06533L6.12321 13.2155H6.13949L6.19015 13.2209L6.30411 13.2299L6.2824 13.138L6.26974 13.0876L6.2625 13.0606L6.23175 12.9598C6.14673 12.6843 6.06171 12.4088 5.97488 12.1298C5.78675 11.5158 5.595 10.8928 5.39964 10.2573L5.74695 9.85397L5.98031 9.5893C6.13588 9.41286 6.29326 9.23641 6.44883 9.05817C6.76358 8.70347 7.08015 8.34878 7.39671 7.99049C8.02623 7.2865 8.66297 6.57532 9.30696 5.85693C9.36846 4.37334 9.43178 2.86635 9.49509 1.33775C8.65393 1.35936 7.80915 1.38277 6.95533 1.40437C6.54289 1.41517 6.12864 1.42778 5.71258 1.43858C5.50456 1.44398 5.29653 1.45118 5.08669 1.45658C4.79545 1.46919 4.5024 1.47999 4.20935 1.49259C4.20031 1.84008 4.19126 2.18757 4.18402 2.53507C4.18041 2.6845 4.17498 2.83394 4.17136 2.98518C4.16774 3.19764 4.16413 3.41009 4.1587 3.62255C4.5422 3.66936 4.9275 3.71437 5.31462 3.76119C5.60586 3.79719 5.8971 3.8332 6.19015 3.87101L6.62972 3.92503L6.85041 3.95204L6.88659 3.95744L6.90287 3.96104L6.93543 3.96644L7.15612 4.00605L7.03492 4.12308L6.98065 4.17529L6.95533 4.2005L6.85041 4.31033C6.56822 4.61101 6.28602 4.91349 6.00202 5.21596C5.43943 5.82632 4.87142 6.43848 4.30161 7.05604L4.02303 7.36032V10.8208H3.55813L3.6323 4.30493" stroke="#F9F051" stroke-width="0.5" stroke-miterlimit="10"/>
<path d="M10.718 3.4245C10.9007 3.21925 11.1449 2.96719 11.4615 2.67551C11.6207 2.52967 11.798 2.37483 11.9951 2.21099C12.0946 2.12997 12.1977 2.04715 12.3063 1.95892C12.4239 1.8671 12.4944 1.80588 12.7241 1.65104C12.7875 1.64564 12.8526 1.64204 12.9177 1.63664L12.9647 1.63304L12.9955 1.62944L13.0588 1.62223C13.1438 1.61323 13.2306 1.60603 13.3193 1.59703C13.4966 1.58082 13.6829 1.56642 13.8782 1.55562C14.2672 1.53221 14.6887 1.51961 15.1391 1.51961C18.8926 1.51961 23.0641 2.42344 27.581 2.42344H32.3204" stroke="#F9F051" stroke-width="0.5" stroke-miterlimit="10"/>
<path d="M32.1414 2.34602C33.2502 2.05435 35.3957 1.62944 38.6536 1.55742C38.9122 1.55382 39.1709 1.55022 39.435 1.54662C39.8348 1.54481 40.2436 1.54121 40.6633 1.53941C40.6687 1.80408 40.676 2.07055 40.6814 2.33702L40.685 2.51347V2.6251V2.85015C40.6814 3.15083 40.6778 3.45151 40.676 3.75579C40.6669 4.36435 40.6488 4.98011 40.6289 5.60487C40.6054 6.22783 40.5837 6.8598 40.5602 7.49897C40.5475 7.81585 40.5349 8.13453 40.5222 8.45502C40.5077 8.75209 40.4933 9.00596 40.477 9.21301C40.2671 8.98075 40.0862 8.7755 39.9343 8.59725L39.719 8.34519L39.4061 8.0013C38.9882 7.54398 38.5631 7.08306 38.129 6.62394C37.6948 6.16482 37.2534 5.7057 36.8012 5.24838C36.5045 4.9513 36.2043 4.65242 35.9022 4.34995L35.8497 4.29953L38.2538 4.1555L38.5215 5.77592" stroke="#F9F051" stroke-width="0.5" stroke-miterlimit="10"/>
<path d="M34.5273 16.0674V12.7653H39.1329L36.1988 16.0674V13.644H37.1756" stroke="#F9F051" stroke-width="0.5" stroke-miterlimit="10"/>
<path d="M28.6048 40.3683C28.8834 40.1037 29.1873 39.8138 29.5273 39.4915C29.6992 39.3313 29.8783 39.162 30.07 38.982C30.269 38.7983 30.477 38.6039 30.6995 38.3986C30.4571 37.8675 30.193 37.2931 29.9108 36.672C29.7788 36.3821 29.6413 36.0796 29.5002 35.7681C29.3935 35.5377 29.2813 35.3 29.1656 35.0515C29.095 35.273 29.0226 35.4999 28.9467 35.7339C28.9141 35.8383 28.8797 35.9446 28.8454 36.0526C28.7929 36.2092 28.7386 36.3695 28.6844 36.5297C28.4637 37.1743 28.2339 37.8477 27.9915 38.5535C27.7455 39.2574 27.4887 39.9938 27.2209 40.7626C27.0961 41.1155 26.9695 41.4756 26.8411 41.8429C26.8067 41.9545 26.7705 42.0698 26.7361 42.1868C26.8049 42.1454 26.8754 42.1022 26.946 42.0608L27.04 42.0032L27.0853 41.9761L27.2698 41.8735C27.7672 41.5999 28.2792 41.319 28.802 41.0309C29.7589 40.5106 30.761 39.9668 31.8066 39.3979C31.7668 39.2106 31.727 39.0144 31.6854 38.8163C31.4502 37.6712 31.2133 36.5189 30.9727 35.3486C30.7321 34.1477 30.4879 32.9288 30.2364 31.6757C30.4951 30.4784 30.7538 29.272 31.0161 28.0567C31.1463 27.4626 31.2766 26.8666 31.4068 26.2689C31.5371 25.6711 31.68 25.0715 31.7704 24.4612C31.9767 23.2441 32.1847 22.0179 32.3927 20.7828C32.4976 20.1653 32.6044 19.5441 32.7111 18.9211C32.8088 18.3576 32.9083 17.7922 33.0059 17.2233C28.5903 17.0793 24.0679 16.9316 19.4153 16.7786C19.3918 17.9741 19.3683 19.175 19.3448 20.3849C19.3339 20.9665 19.3231 21.5498 19.3122 22.135C19.3014 22.8084 19.2905 23.4853 19.2797 24.1641C21.1682 24.2379 23.073 24.3117 24.9923 24.3874C25.9076 24.4216 26.8266 24.454 27.7491 24.4882C28.7947 24.5224 29.8439 24.5566 30.8967 24.5908C31.1988 22.7597 31.5027 20.9143 31.8102 19.0562C30.7068 18.9932 29.5979 18.9301 28.4854 18.8653L21.3147 18.4638L21.2478 22.9632H29.133L28.7423 20.0878H24.1711" stroke="#F9F051" stroke-width="0.5" stroke-miterlimit="10"/>
<path d="M56.3885 19.7403V28.6905H51.1479V4.36974H65.4133V9.03115H56.3885V15.0807H64.668V19.7421H56.3885V19.7403Z" fill="#F9F051"/>
<path d="M75.9378 20.2967H75.2558V28.6923H70.0153V4.36974H77.8607C80.5687 4.36974 82.6055 5.05391 83.9695 6.42227C85.3334 7.79063 86.0154 9.76034 86.0154 12.3332C86.0154 16.305 84.4543 18.7951 81.332 19.8034L85.9828 28.6923H79.8125L75.9359 20.2967H75.9378ZM77.8607 15.6047C78.6457 15.6047 79.3277 15.3166 79.9066 14.7404C80.4854 14.1643 80.7749 13.3613 80.7749 12.3332C80.7749 11.3051 80.4854 10.4967 79.9066 9.90978C79.3277 9.32283 78.6457 9.02935 77.8607 9.02935H75.2558V15.6029H77.8607V15.6047Z" fill="#F9F051"/>
<path d="M89.9987 12.488C89.9987 9.70993 90.6861 7.57997 92.0609 6.09818C93.4357 4.6164 95.4762 3.8764 98.186 3.8764C100.896 3.8764 102.931 4.6164 104.295 6.09818C105.659 7.57997 106.341 9.70993 106.341 12.488V20.574C106.341 23.3521 105.659 25.4766 104.295 26.9476C102.931 28.4186 100.894 29.155 98.186 29.155C95.478 29.155 93.4357 28.4204 92.0609 26.9476C90.6861 25.4766 89.9987 23.3521 89.9987 20.574V12.488ZM101.1 11.8399C101.1 10.8118 100.811 10.0088 100.232 9.43265C99.653 8.8565 98.971 8.56843 98.186 8.56843C97.4009 8.56843 96.7135 8.8565 96.1238 9.43265C95.534 10.0088 95.2392 10.8118 95.2392 11.8399V21.1915C95.2392 22.2214 95.534 23.028 96.1238 23.615C96.7135 24.2019 97.4009 24.4954 98.186 24.4954C98.971 24.4954 99.653 24.2019 100.232 23.615C100.811 23.028 101.1 22.2214 101.1 21.1915V11.8399Z" fill="#F9F051"/>
<path d="M121.798 4.36974H127.039V28.6923H122.449L116.992 17.8282L116.341 14.1553H116.248V28.6923H111.008V4.36974H115.628L121.024 15.1113L121.706 18.2604H121.798V4.36974Z" fill="#F9F051"/>
<path d="M141.255 9.03115V28.6923H136.015V9.03115H131.301V4.36974H146V9.03115H141.255Z" fill="#F9F051"/>
<path d="M55.5636 44.3474V48.6289H64.0313V52.7484H50.9617V31.3912H63.76V35.4837H55.5636V40.2261H63.1341V44.3456H55.5636V44.3474Z" fill="#F9F051"/>
<path d="M77.7141 31.393H82.3161V52.7502H78.2858L73.4939 43.2095L72.9222 39.9848H72.8408V52.7502H68.2389V31.393H72.2964L77.034 40.8238L77.6327 43.5876H77.7141V31.3912V31.393Z" fill="#F9F051"/>
<path d="M93.6546 52.7484H86.7661V31.3912H93.6546C96.0333 31.3912 97.8206 32.0376 99.0181 33.3285C100.216 34.6212 100.816 36.4865 100.816 38.9244V45.1846C100.816 47.6242 100.217 49.4931 99.0181 50.7948C97.8206 52.0966 96.0315 52.7466 93.6546 52.7466V52.7484ZM93.6546 48.6289C94.3438 48.6289 94.9425 48.3768 95.4527 47.8709C95.961 47.365 96.2142 46.661 96.2142 45.7571V38.386C96.2142 37.4822 95.9592 36.7728 95.4527 36.2579C94.9444 35.7429 94.3456 35.4855 93.6546 35.4855H91.3681V48.6307H93.6546V48.6289Z" fill="#F9F051"/>
<path d="M109.434 52.7484H104.968V49.1438H109.434V52.7484Z" fill="#F9F051"/>
<path d="M118.459 46.4881V52.7484H113.857V31.3912H120.745C123.124 31.3912 124.911 32.0376 126.109 33.3285C127.306 34.6212 127.907 36.4865 127.907 38.9244C127.907 41.3622 127.308 43.2329 126.109 44.5346C124.911 45.8364 123.122 46.4863 120.745 46.4863H118.459V46.4881ZM120.745 42.3687C121.435 42.3687 122.033 42.1166 122.543 41.6107C123.052 41.1047 123.305 40.4007 123.305 39.4969V38.386C123.305 37.4822 123.05 36.7728 122.543 36.2579C122.035 35.7429 121.436 35.4855 120.745 35.4855H118.459V42.3687H120.745Z" fill="#F9F051"/>
<path d="M136.333 44.3474V48.6289H144.801V52.7484H131.731V31.3912H144.529V35.4837H136.333V40.2261H143.903V44.3456H136.333V44.3474Z" fill="#F9F051"/>
</g>
<defs>
<clipPath id="clip0_417_3">
<rect width="146" height="56" fill="white"/>
</clipPath>
</defs>
</svg>
