<svg width="867" height="191" viewBox="0 0 867 191" fill="none" xmlns="http://www.w3.org/2000/svg">
<path d="M7.60525 179.53C7.60525 177.362 5.93036 175.603 3.86735 175.603C1.80136 175.603 0.126465 177.362 0.126465 179.53C0.126465 181.701 1.80136 183.459 3.86735 183.459C5.93036 183.459 7.60525 181.701 7.60525 179.53Z" fill="#F9F051"/>
<path d="M370.522 151.752L366.166 151.02L377.58 132.797L382.166 133.487L370.519 151.749L370.522 151.752ZM366.793 150.742L370.331 151.334L381.527 133.785L377.771 133.218L366.793 150.742Z" fill="#F9F051"/>
<path d="M362.401 158.846L366.16 159.414L355.433 176.233C355.49 176.418 355.52 176.61 355.523 176.801L366.799 159.124L362.21 158.434L353.6 172.181C353.684 172.301 353.758 172.426 353.815 172.561L362.401 158.846Z" fill="#F9F051"/>
<path d="M64.029 180.679H63.8857V166.556H52.0749V180.464H51.9346V166.174H64.029V180.679Z" fill="#B56EE1"/>
<path d="M155.178 180.679H155.035V156.669H143.227V180.312H143.083V156.022H155.178V180.679Z" fill="#B56EE1"/>
<path d="M247.84 178.765H247.303V164.642H202.944V178.55H202.403V164.26H247.84V178.765Z" fill="#B56EE1"/>
<path d="M93.3978 180.679H93.153V168.315C93.153 166.153 91.3975 164.397 89.2389 164.397C87.0774 164.397 85.3249 166.153 85.3249 168.315V180.679H85.0801V168.315C85.0801 166.021 86.946 164.152 89.2389 164.152C91.5318 164.152 93.3978 166.021 93.3978 168.315V180.679Z" fill="#B56EE1"/>
<path d="M322.846 85.9776L322.756 85.6074C322.849 85.5835 332.062 83.356 345.321 79.737C359.293 75.921 368.328 73.1262 381.876 67.5455C387.814 65.097 389.486 62.9173 390.707 61.3258C392.334 59.2028 393.078 58.2324 401.485 59.3999C415.896 61.4064 436.267 53.3743 436.47 53.2906L436.61 53.646C436.404 53.7266 415.947 61.7976 401.431 59.7791C393.245 58.6444 392.546 59.5581 391.012 61.5587C389.767 63.183 388.059 65.4135 382.022 67.9008C368.453 73.4934 359.407 76.2942 345.42 80.1103C332.158 83.7292 322.935 85.9627 322.846 85.9866V85.9776Z" fill="#38FFE8"/>
<path d="M618.704 88.0379L618.337 87.9244C618.358 87.8647 618.352 87.8349 618.352 87.8259C618.352 87.8259 618.337 87.8229 618.307 87.814C616.641 87.5781 614.244 85.4103 610.924 82.4064C606.276 78.2023 599.91 72.4484 591.27 67.9665C587.294 65.9032 584.595 64.3774 582.624 63.2637C577.125 60.1613 576.796 59.9732 568.768 59.1699C561.286 58.4205 556.029 56.6379 550.945 54.918C548.547 54.1058 546.072 53.2638 543.415 52.5561C536.085 50.6033 533.548 50.8243 519.456 52.0634C517.736 52.2157 515.846 52.3799 513.757 52.5621C505.752 53.2459 504.17 52.577 503.677 51.8305C503.271 51.2184 503.671 50.4719 504.054 49.7493C504.385 49.1223 504.728 48.4714 504.489 47.9996C504.254 47.5457 503.468 47.2292 502.155 47.053C498.82 46.6081 496.07 45.4675 493.413 44.3717C489.484 42.7443 486.093 41.341 481.871 42.6428C474.132 46.0886 459.163 53.0697 458.028 54.7747L457.709 54.5656C459.193 52.3441 480.82 42.6966 481.737 42.2845C486.11 40.9408 489.732 42.4338 493.562 44.0223C496.199 45.1122 498.921 46.2409 502.209 46.6798C503.695 46.8799 504.531 47.2471 504.833 47.8324C505.164 48.4833 504.776 49.2208 504.397 49.9375C504.054 50.5884 503.722 51.2035 504.003 51.6275C504.591 52.5143 507.774 52.7024 513.73 52.1888C515.82 52.0097 517.709 51.8455 519.429 51.6932C533.578 50.448 536.127 50.2241 543.522 52.1948C546.189 52.9055 548.676 53.7475 551.076 54.5627C556.142 56.2796 561.379 58.0532 568.813 58.7997C576.922 59.6119 577.367 59.8627 582.818 62.9382C584.786 64.0519 587.485 65.5748 591.455 67.6321C600.14 72.1378 606.523 77.9156 611.19 82.1317C614.456 85.0878 616.821 87.2228 618.367 87.4437C618.549 87.4706 618.639 87.5602 618.681 87.6288C618.749 87.7333 618.761 87.8767 618.707 88.0439L618.704 88.0379Z" fill="#38FFE8"/>
<path d="M596.96 107.022L558.283 75.3716C555.387 73.0037 551.267 72.9052 548.26 75.1327L520.489 95.7595L520.259 95.4549L548.033 74.8281C551.177 72.4931 555.491 72.5947 558.519 75.076L597.196 106.727L596.954 107.022H596.96Z" fill="#38FFE8"/>
<path d="M495.721 87.7423L495.416 87.5124C495.977 86.7659 509.329 69.2534 518.644 67.0618C527.633 64.9477 531.592 62.8994 535.61 58.31C539.45 53.9237 543.349 52.2157 543.388 52.2008L543.537 52.5531C543.498 52.5681 539.674 54.2432 535.897 58.5638C531.819 63.2249 527.809 65.3001 518.733 67.438C509.547 69.5998 495.855 87.5662 495.718 87.7513L495.721 87.7423Z" fill="#38FFE8"/>
<path d="M474.129 69.0862L474.073 68.707C474.213 68.6831 488.388 66.4377 494.33 59.9553C500.325 53.4101 503.674 50.6033 503.707 50.5705L503.952 50.8661C503.919 50.893 500.587 53.6878 494.613 60.2121C488.58 66.796 474.276 69.0624 474.132 69.0862H474.129Z" fill="#38FFE8"/>
<path d="M490.592 160.166L469.923 69.9193L470.29 69.8058L490.956 160.055L490.592 160.166Z" fill="#F9F051"/>
<path d="M365.196 187.783L364.879 187.565L400.616 128.42L400.93 128.635L365.196 187.783Z" fill="#F9F051"/>
<path d="M388.755 123.821L425.271 122.899L425.28 123.281L388.764 124.204L388.755 123.821Z" fill="#B56EE1"/>
<path d="M404.826 130.319L451.576 129.175L451.585 129.557L404.835 130.701L404.826 130.319Z" fill="#B56EE1"/>
<path d="M419.324 137.84L462.268 137.419L462.271 137.801L419.33 138.222L419.324 137.84Z" fill="#B56EE1"/>
<path d="M424.537 145.941V145.427L467.642 143.929L467.645 144.442L424.537 145.941Z" fill="#B56EE1"/>
<path d="M430.713 151.581L472.302 150.766L472.308 151.148L430.722 151.964L430.713 151.581Z" fill="#B56EE1"/>
<path d="M415.562 123.8L415.938 123.732L417.085 130.068L416.708 130.134L415.562 123.8Z" fill="#B56EE1"/>
<path d="M436.1 129.742L436.482 129.716L437.016 137.754L436.634 137.781L436.1 129.742Z" fill="#B56EE1"/>
<path d="M425.835 129.993L426.217 129.96L426.94 137.984L426.56 138.016L425.835 129.993Z" fill="#B56EE1"/>
<path d="M433.514 145.15L432.642 137.945L433.024 137.888L433.896 145.093L433.514 145.15Z" fill="#B56EE1"/>
<path d="M464.42 184.555L459.151 160.193L459.53 160.124L464.803 184.483L464.42 184.555Z" fill="#B56EE1"/>
<path d="M487.093 183.665L480.232 160.187L480.608 160.124L487.472 183.609L487.093 183.665Z" fill="#B56EE1"/>
<path d="M454.084 137.766L454.449 137.652L456.697 144.86L456.333 144.974L454.084 137.766Z" fill="#B56EE1"/>
<path d="M467.451 160.139L458.733 151.28L459.115 151.253L467.833 160.109L467.451 160.139Z" fill="#B56EE1"/>
<path d="M70.9766 109.638H71.3587V180.046H70.9766V109.638Z" fill="#F9F051"/>
<path d="M866.513 175.099C866.513 172.928 864.838 171.169 862.775 171.169C860.709 171.169 859.034 172.928 859.034 175.099C859.034 177.266 860.709 179.025 862.775 179.025C864.838 179.025 866.513 177.266 866.513 175.099Z" fill="#F9F051"/>
<path d="M172.398 179.703H172.016V137.697H278.23V160.381H277.848V138.079H172.398V179.703Z" fill="#F9F051"/>
<path d="M172.208 154.639H278.039V155.021H172.208V154.639Z" fill="#F9F051"/>
<path d="M190.661 86.9929H182.612V78.9398H190.661V86.9929ZM182.994 86.6107H190.279V79.322H182.994V86.6107Z" fill="#B56EE1"/>
<path d="M202.633 75.1297H194.587V67.0767H202.633V75.1297ZM194.969 74.7475H202.251V67.4618H194.969V74.7475Z" fill="#B56EE1"/>
<path d="M213.587 109.773H205.538V101.719H213.587V109.773ZM205.917 109.39H213.202V102.102H205.917V109.39Z" fill="#B56EE1"/>
<path d="M290.372 78.9637H282.323V70.9106H290.372V78.9637ZM282.708 78.5815H289.99V71.2928H282.708V78.5815Z" fill="#B56EE1"/>
<path d="M296.045 105.936H287.999V97.8825H296.045V105.936ZM288.378 105.553H295.659V98.2647H288.378V105.553Z" fill="#B56EE1"/>
<path d="M322.78 116.655H314.731V108.602H322.78V116.655ZM315.11 116.273H322.395V108.984H315.11V116.273Z" fill="#B56EE1"/>
<path d="M303.043 132.448H294.994V124.398H303.043V132.448ZM295.376 132.065H302.661V124.78H295.376V132.065Z" fill="#B56EE1"/>
<path d="M274.599 123.152H266.55V115.102H274.599V123.152ZM266.932 122.77H274.214V115.485H266.932V122.77Z" fill="#B56EE1"/>
<path d="M251.861 119.826H243.815V111.773H251.861V119.826ZM244.198 119.444H251.479V112.155H244.198V119.444Z" fill="#B56EE1"/>
<path d="M268.458 92.1674H260.412V84.1174H268.458V92.1674ZM260.794 91.7852H268.076V84.4996H260.794V91.7852Z" fill="#B56EE1"/>
<path d="M186.824 119.13H178.778V111.077H186.824V119.13ZM179.16 118.745H186.442V111.46H179.16V118.745Z" fill="#B56EE1"/>
<path d="M453.944 185.075L447.866 160.527L448.239 160.444L454.249 184.681L499.334 183.035L490.592 160.166L490.947 160.035L499.883 183.4L453.944 185.075Z" fill="#F9F051"/>
<path d="M456.07 160.53C444.787 160.53 449.746 162.05 443.423 157.207C441.661 155.857 439.658 154.323 434.553 153.089C427.026 151.274 425.964 149.154 424.205 145.651C423.169 143.585 421.876 141.014 418.771 137.751C414.296 133.045 412.502 132.755 410.233 132.388C408.34 132.08 405.981 131.698 401.464 128.688C392.045 122.403 375.636 123.651 374.409 123.759L347.441 165.332L347.163 165.072L374.23 123.391L374.302 123.382C374.478 123.367 391.824 121.8 401.676 128.372C406.122 131.34 408.34 131.695 410.292 132.012C412.633 132.391 414.481 132.689 419.052 137.488C422.199 140.793 423.5 143.388 424.548 145.478C426.256 148.885 427.292 150.945 434.648 152.719C439.834 153.97 441.867 155.532 443.659 156.905C450.021 161.778 444.922 160.151 456.073 160.151C468.675 160.151 485.235 159.835 489.096 159.754C487.454 158.99 483.134 156.95 476.216 153.489C471.203 150.981 470.275 149.306 468.737 146.538C467.477 144.263 465.746 141.149 460.885 136.099C454.231 129.181 451.466 129.315 447.967 129.486C445.868 129.587 443.489 129.704 439.897 128.294C430.522 124.627 425.519 123.355 425.471 123.344L425.408 123.329L425.366 123.281C422.136 119.28 420.151 115.828 418.556 113.057C415.854 108.357 414.221 105.524 409.382 104.756C402.455 103.663 398.616 106.24 397.92 106.769C398.601 108.145 403.518 118.345 402.733 123.457L402.357 123.397C403.163 118.151 397.568 106.918 397.511 106.804L397.449 106.67L397.559 106.575C397.717 106.434 401.601 103.147 409.447 104.383C414.466 105.174 416.135 108.071 418.894 112.872C420.476 115.619 422.441 119.038 425.629 122.994C426.238 123.149 431.209 124.484 440.043 127.942C443.56 129.318 445.895 129.205 447.958 129.106C451.55 128.93 454.392 128.796 461.169 135.837C466.062 140.922 467.806 144.063 469.078 146.359C470.63 149.157 471.487 150.695 476.392 153.152C485.37 157.643 489.965 159.739 490.009 159.757L490.774 160.106L489.938 160.124C489.744 160.13 470.364 160.539 456.076 160.539L456.07 160.53Z" fill="#F9F051"/>
<path d="M7.60525 179.53C7.60525 177.362 5.93036 175.603 3.86735 175.603C1.80136 175.603 0.126465 177.362 0.126465 179.53C0.126465 181.701 1.80136 183.459 3.86735 183.459C5.93036 183.459 7.60525 181.701 7.60525 179.53Z" fill="#F9F051"/>
<path d="M370.522 151.752L366.166 151.02L377.58 132.797L382.166 133.487L370.519 151.749L370.522 151.752ZM366.793 150.742L370.331 151.334L381.527 133.785L377.771 133.218L366.793 150.742Z" fill="#F9F051"/>
<path d="M362.401 158.846L366.16 159.414L355.433 176.233C355.49 176.418 355.52 176.61 355.523 176.801L366.799 159.124L362.21 158.434L353.6 172.181C353.684 172.301 353.758 172.426 353.815 172.561L362.401 158.846Z" fill="#F9F051"/>
<path d="M64.029 180.679H63.8857V166.556H52.0749V180.464H51.9346V166.174H64.029V180.679Z" fill="#B56EE1"/>
<path d="M155.178 180.679H155.035V156.669H143.227V180.312H143.083V156.022H155.178V180.679Z" fill="#B56EE1"/>
<path d="M247.84 178.765H247.303V164.642H202.944V178.55H202.403V164.26H247.84V178.765Z" fill="#B56EE1"/>
<path d="M93.3978 180.679H93.153V168.315C93.153 166.153 91.3975 164.397 89.2389 164.397C87.0774 164.397 85.3249 166.153 85.3249 168.315V180.679H85.0801V168.315C85.0801 166.021 86.946 164.152 89.2389 164.152C91.5318 164.152 93.3978 166.021 93.3978 168.315V180.679Z" fill="#B56EE1"/>
<path d="M622.493 163.907C617.501 161.94 612.479 159.999 607.885 158.234L607.762 158.607C612.366 160.369 617.394 162.322 622.394 164.29C622.412 164.161 622.448 164.03 622.49 163.904L622.493 163.907Z" fill="#F9F051"/>
<path d="M654.232 177.813C651.396 175.684 639.143 170.521 625.965 165.281C625.926 165.409 625.873 165.532 625.813 165.645C638.985 170.886 651.232 176.039 654.005 178.12L660.35 182.746L660.574 182.435L654.235 177.81L654.232 177.813Z" fill="#F9F051"/>
<path d="M572.013 127.064L571.78 126.759C572.237 126.413 617.175 91.7673 618.34 87.9304L618.707 88.0409C617.513 91.9913 573.876 125.637 572.019 127.067L572.013 127.064Z" fill="#F9F051"/>
<path d="M602.633 156.231C595.166 153.394 589.631 151.334 588.583 150.945C588.488 150.501 588.091 148.781 587.371 147.341C587.043 146.682 586.711 146.147 586.389 145.634C585.914 144.875 585.422 144.087 584.941 142.883C584.466 141.701 582.806 139.739 580.886 137.464C579.436 135.741 577.788 133.791 576.381 131.859C574.984 129.942 573.372 128.175 571.661 126.309C569.329 123.759 566.917 121.119 564.597 117.634C562.257 114.117 559.719 112.973 557.265 111.869C555.399 111.027 553.473 110.158 551.568 108.25C547.598 104.275 545.547 103.49 540.068 101.4C539.34 101.119 538.549 100.818 537.683 100.48C534.324 99.1725 531.601 98.5364 528.723 97.8676C525.317 97.0763 521.453 96.1746 515.736 93.974C509.156 91.4419 507.424 91.7285 505.588 92.0271C504.495 92.2063 503.367 92.3914 501.074 91.9316C498.253 91.3642 496.318 89.922 494.449 88.5216C492.314 86.9272 490.296 85.4193 487.215 85.4193C483.011 85.4193 481.746 83.8188 477.554 78.5128C476.198 76.7929 474.509 74.652 472.32 72.0662C467.379 66.2197 466.403 65.4583 465.621 64.8492C465.009 64.3685 464.522 63.9922 462.163 61.0869C460.339 58.8415 459.351 57.1425 458.479 55.6466C458.1 54.9926 457.739 54.3775 457.348 53.7863C456.043 51.8037 454.413 50.0808 450.323 47.6264C444.841 44.3359 443.629 45.793 440.694 49.3194C439.211 51.102 437.177 53.5445 433.846 56.184C427.268 61.3945 425.08 64.4371 422.053 68.6503C420.56 70.7285 418.867 73.0784 416.341 76.139C412.021 81.3733 410.194 85.9418 408.585 89.9728C407.289 93.2215 406.062 96.2851 403.736 99.3307C403.011 100.277 402.393 101.104 401.852 101.827C401.252 102.63 397.953 106.1 397.5 106.679C397.586 106.784 397.658 106.9 397.714 107.025C398.192 106.422 401.518 102.911 402.157 102.06C402.697 101.337 403.315 100.51 404.038 99.5666C406.396 96.4821 407.632 93.3917 408.94 90.1221C410.618 85.9209 412.353 81.5794 416.634 76.3928C419.169 73.3203 420.867 70.9644 422.363 68.8832C425.37 64.6999 427.546 61.6722 434.084 56.4946C437.443 53.8311 439.494 51.3707 440.984 49.5762C443.85 46.1334 444.922 44.8465 450.12 47.9668C454.147 50.3854 455.744 52.0724 457.022 54.0073C457.407 54.5925 457.763 55.2046 458.142 55.8556C459.02 57.3605 460.014 59.0714 461.859 61.3437C464.244 64.2819 464.74 64.673 465.376 65.1657C466.146 65.7659 467.107 66.5153 472.022 72.3289C474.207 74.9118 475.891 77.0467 477.249 78.7636C481.528 84.1861 482.814 85.8194 487.209 85.8194C490.162 85.8194 492.129 87.2885 494.213 88.8441C496.115 90.2684 498.085 91.7405 500.99 92.3227C503.352 92.7945 504.519 92.6034 505.642 92.4213C507.424 92.1286 509.111 91.8539 515.59 94.3472C521.331 96.5598 525.209 97.4615 528.628 98.2588C531.494 98.9276 534.202 99.5576 537.539 100.857C538.402 101.191 539.193 101.496 539.925 101.773C545.35 103.848 547.374 104.625 551.291 108.539C553.243 110.495 555.205 111.379 557.101 112.236C559.617 113.371 561.991 114.442 564.272 117.867C566.613 121.376 569.031 124.024 571.375 126.589C573.076 128.452 574.683 130.208 576.068 132.107C577.477 134.051 579.134 136.007 580.588 137.736C582.49 139.984 584.129 141.925 584.577 143.048C585.069 144.284 585.571 145.087 586.057 145.86C586.374 146.368 586.702 146.894 587.025 147.536C587.816 149.121 588.225 151.128 588.228 151.149L588.246 151.25L588.347 151.289C588.529 151.358 594.378 153.531 602.529 156.634" fill="#F9F051"/>
<path d="M862.566 175.418C862.48 175.364 853.652 169.906 841.996 168.01C835.526 166.956 833.577 160.244 831.514 153.14C829.708 146.932 827.845 140.516 822.918 136.852C816.174 131.833 814.356 128.023 812.6 124.335C811.546 122.119 810.451 119.829 808.301 117.267C805.91 114.422 804.017 109.513 801.829 103.828C798.661 95.6102 795.072 86.2971 788.764 79.8207C786.569 77.5663 784.921 75.7717 783.599 74.3265C780.198 70.615 776.192 68.9787 771.579 69.4117C765.348 69.9969 763.963 71.1555 758.129 76.0345C755.836 77.9544 752.689 80.5821 748.283 83.9711C733.385 95.4162 728.608 91.7405 726.312 89.9698C726.211 89.8922 726.121 89.8235 726.029 89.7548C723.879 88.1394 696.293 65.0552 695.224 64.1594C694.552 63.9564 685.07 61.1228 678.233 60.5972C671.196 60.0508 659.152 63.3144 659.03 63.3443L648.858 64.7208C648.097 65.1388 634.05 72.8306 626.867 76.8198C619.612 80.8538 618.716 87.9304 618.707 87.9991L618.331 87.9573C618.337 87.8827 619.251 80.6209 626.685 76.4884C634.032 72.4036 648.56 64.4491 648.703 64.3685L648.769 64.3476L658.952 62.9681C659.048 62.9442 671.148 59.6686 678.263 60.215C685.359 60.7615 695.271 63.7743 695.373 63.8041L695.436 63.837C695.722 64.0788 724.085 87.814 726.258 89.4443C726.351 89.513 726.447 89.5876 726.545 89.6623C728.766 91.3732 733.385 94.9295 748.05 83.6606C752.454 80.2745 755.591 77.6499 757.884 75.7359C763.793 70.7972 765.196 69.6207 771.546 69.0235C778.583 68.3636 778.699 68.4144 783.882 74.0638C785.205 75.506 786.85 77.3005 789.038 79.5489C795.404 86.0792 799.007 95.4311 802.187 103.681C804.366 109.337 806.247 114.219 808.594 117.013C810.776 119.614 811.881 121.928 812.95 124.165C814.765 127.975 816.482 131.573 823.151 136.538C828.179 140.28 830.066 146.759 831.884 153.03C833.914 160.014 835.831 166.613 842.062 167.628C853.798 169.539 862.686 175.036 862.775 175.09L862.572 175.415L862.566 175.418Z" fill="#F9F051"/>
<path d="M113.061 180.912H107.723V130.901H92.4458V113.063L71.3589 102.92V109.829H44.9338V180.025H3.86768V179.643H44.5517V109.447H70.9767V102.314L92.8279 112.824V130.516H108.105V180.53H112.679V120.187H127.511V180.79H131.67V78.6979L131.971 78.9099L166.323 102.929L167.532 166.654V179.703H172.208V180.085H167.147V166.657L165.944 103.129L132.052 79.4325V181.172H127.129V120.573H113.061V180.912Z" fill="#F9F051"/>
<path d="M397.595 106.551C396.583 107.19 395.338 107.614 393.275 108.205C390.716 108.933 389.053 110.71 387.713 112.131C386.665 113.248 385.838 114.129 384.966 114.129H384.945C384.435 114.123 383.897 113.798 383.312 113.138C382.581 112.317 381.754 111.17 380.795 109.841C377.538 105.332 373.075 99.1575 367.331 98.841C360.538 98.4618 355.084 105.744 354.263 106.903C354.263 106.906 354.254 106.912 354.254 106.918L354.072 107.243C354.164 107.297 354.212 107.327 354.215 107.333L354.373 107.423L354.472 107.273C354.529 107.19 360.18 98.841 367.31 99.2262C372.872 99.5367 377.272 105.625 380.488 110.071C381.452 111.406 382.285 112.558 383.032 113.394C383.691 114.141 384.318 114.505 384.945 114.511C384.954 114.511 384.96 114.511 384.969 114.511C386.005 114.511 386.883 113.574 387.997 112.394C389.304 111.003 390.928 109.271 393.388 108.572C395.556 107.951 396.864 107.491 397.926 106.796C397.807 106.727 397.7 106.646 397.604 106.551H397.595Z" fill="#F9F051"/>
<path d="M354.251 106.918C351.373 105.094 343.691 100.164 338.574 96.4373C333.949 93.0752 326.679 88.2738 321.392 84.843C319.801 83.8098 317.114 81.3315 314.743 79.1458C312.722 77.2796 310.97 75.6702 310.104 75.1148C308.115 73.8488 306.327 72.2991 304.778 70.5135L294.397 59.0266C292.638 56.9932 290.193 55.8048 287.512 55.6794C284.831 55.551 282.281 56.5005 280.347 58.3488L237.761 93.9859L213.13 47.3994C209.279 41.753 205.374 38.9134 201.537 39.003C198.074 39.0716 194.826 41.4783 191.894 46.1602L158.898 97.9601L159.22 98.1662L192.217 46.3663C195.08 41.8008 198.218 39.4509 201.543 39.3852C205.246 39.3045 209.04 42.0844 212.808 47.5995L237.534 94.374L237.645 94.586L280.604 58.6384C282.47 56.8558 284.918 55.9511 287.494 56.0676C290.071 56.19 292.417 57.3336 294.11 59.2864L304.491 70.7733C306.058 72.5827 307.877 74.1533 309.898 75.4433C310.737 75.9807 312.558 77.6588 314.484 79.4325C316.866 81.6301 319.565 84.1174 321.186 85.1684C326.471 88.5993 333.734 93.3917 338.35 96.7508C343.515 100.51 351.236 105.461 354.114 107.285C354.146 107.16 354.197 107.037 354.254 106.924L354.251 106.918Z" fill="#F9F051"/>
<path d="M354.129 107.097C353.299 108.96 340.38 138.031 333.212 158.736L333.564 158.927C340.9 137.795 354.287 107.682 354.481 107.243L354.132 107.088C354.132 107.088 354.129 107.094 354.126 107.097H354.129Z" fill="#F9F051"/>
<path d="M660.505 158.234V158.431C660.657 167.697 660.792 181.692 660.541 182.558L660.472 182.632L660.52 182.752C660.544 182.802 660.562 182.856 660.965 182.904C660.956 182.787 660.962 182.668 660.971 182.546C660.95 182.546 660.923 182.543 660.902 182.537C661.195 180.455 661.03 166.98 660.893 158.622H706.566V182.659C706.539 182.659 706.512 182.659 706.485 182.659C706.497 182.787 706.497 182.916 706.485 183.041C706.653 183.041 706.748 183.041 706.757 183.041H706.948V158.24H660.502L660.505 158.234Z" fill="#F9F051"/>
<path d="M710.967 161.375L706.99 155.206L706.951 158.428L706.569 158.422L706.623 153.931L709.984 159.145L709.25 156.353L713.289 158.882L695.815 124.215H671.062L653.853 158.109L656.403 157.428L655.919 159.861L659.179 156.601L660.377 160.202L660.012 160.321L659.012 157.309L655.295 161.029L655.91 157.956L652.955 158.745L670.859 123.833H696.018L696.075 123.92L714.636 160.172L709.865 157.192L710.967 161.375Z" fill="#F9F051"/>
<path d="M690.814 183.68H690.399V172.393C690.399 170.42 687.402 168.816 683.711 168.816C680.021 168.816 677.024 170.42 677.024 172.393V183.68H676.609V172.393C676.609 170.297 679.791 168.595 683.711 168.595C687.629 168.595 690.814 170.3 690.814 172.393V183.68Z" fill="#B56EE1"/>
<path d="M690.814 183.68H690.399V172.393C690.399 170.42 687.402 168.816 683.711 168.816C680.021 168.816 677.024 170.42 677.024 172.393V183.68H676.609V172.393C676.609 170.297 679.791 168.595 683.711 168.595C687.629 168.595 690.814 170.3 690.814 172.393V183.68Z" fill="#B56EE1"/>
<path d="M624.245 135.625C622.651 135.625 621.114 135.864 619.666 136.305C619.666 136.365 619.666 136.425 619.657 136.485C621.111 136.037 622.651 135.795 624.245 135.795C632.835 135.795 639.827 142.767 639.872 151.349H608.613C608.616 150.584 608.595 150.256 608.709 149.521C608.643 149.587 608.577 149.644 608.512 149.7C608.416 150.405 608.443 150.704 608.443 151.435V151.519H640.045V151.435C640.045 142.716 632.957 135.625 624.245 135.625Z" fill="#38FFE8"/>
<path d="M626.153 189.413H622.338V151.349H626.153V189.413ZM622.508 189.255H625.983V151.507H622.508V189.255Z" fill="#B56EE1"/>
<path d="M616.608 151.471L616.737 151.364L622.484 158.082L622.356 158.192L616.608 151.471Z" fill="#B56EE1"/>
<path d="M625.983 158.088L631.554 151.37L631.685 151.477L626.114 158.195L625.983 158.088Z" fill="#B56EE1"/>
<path d="M612.399 151.537L612.53 151.432L622.499 164.012L622.368 164.116L612.399 151.537Z" fill="#B56EE1"/>
<path d="M625.983 163.94L636.313 151.361L636.444 151.468L626.114 164.048L625.983 163.94Z" fill="#B56EE1"/>
<path d="M608.117 189.413H602.935V133.278H608.117V189.413ZM603.164 189.183H607.885V133.508H603.164V189.183Z" fill="#B56EE1"/>
<path d="M595.154 133.454L595.327 133.305L603.135 142.433L602.961 142.582L595.154 133.454Z" fill="#B56EE1"/>
<path d="M607.891 142.439L615.462 133.311L615.638 133.457L608.067 142.585L607.891 142.439Z" fill="#B56EE1"/>
<path d="M589.428 133.514L589.607 133.37L603.152 150.462L602.97 150.605L589.428 133.514Z" fill="#B56EE1"/>
<path d="M626.992 133.508H584.057V133.394C584.057 121.552 593.686 111.913 605.523 111.913C617.358 111.913 626.989 121.552 626.989 133.394V133.508H626.992ZM584.29 133.278H626.762C626.703 121.615 617.2 112.143 605.526 112.143C593.856 112.143 584.35 121.615 584.29 133.278Z" fill="#38FFE8"/>
<path d="M607.891 150.393L621.926 133.302L622.105 133.445L608.067 150.539L607.891 150.393Z" fill="#B56EE1"/>
<path d="M603.448 156.541C603.171 156.437 602.905 156.335 602.633 156.231Z" fill="#F9F051"/>
<path d="M602.538 156.61C602.836 156.723 603.141 156.84 603.448 156.959Z" fill="#F9F051"/>
<path d="M624.245 135.625C622.651 135.625 621.114 135.864 619.666 136.305C619.666 136.365 619.666 136.425 619.657 136.485C621.111 136.037 622.651 135.795 624.245 135.795C632.835 135.795 639.827 142.767 639.872 151.349H608.613C608.616 150.584 608.595 150.256 608.709 149.521C608.643 149.587 608.577 149.644 608.512 149.7C608.416 150.405 608.443 150.704 608.443 151.435V151.519H640.045V151.435C640.045 142.716 632.957 135.625 624.245 135.625Z" fill="#38FFE8"/>
<path d="M626.153 189.413H622.338V151.349H626.153V189.413ZM622.508 189.255H625.983V151.507H622.508V189.255Z" fill="#B56EE1"/>
<path d="M616.608 151.471L616.737 151.364L622.484 158.082L622.356 158.192L616.608 151.471Z" fill="#B56EE1"/>
<path d="M625.983 158.088L631.554 151.37L631.685 151.477L626.114 158.195L625.983 158.088Z" fill="#B56EE1"/>
<path d="M612.399 151.537L612.53 151.432L622.499 164.012L622.368 164.116L612.399 151.537Z" fill="#B56EE1"/>
<path d="M625.983 163.94L636.313 151.361L636.444 151.468L626.114 164.048L625.983 163.94Z" fill="#B56EE1"/>
<path d="M608.117 189.413H602.935V133.278H608.117V189.413ZM603.164 189.183H607.885V133.508H603.164V189.183Z" fill="#B56EE1"/>
<path d="M595.154 133.454L595.327 133.305L603.135 142.433L602.961 142.582L595.154 133.454Z" fill="#B56EE1"/>
<path d="M607.891 142.439L615.462 133.311L615.638 133.457L608.067 142.585L607.891 142.439Z" fill="#B56EE1"/>
<path d="M589.428 133.514L589.607 133.37L603.152 150.462L602.97 150.605L589.428 133.514Z" fill="#B56EE1"/>
<path d="M626.992 133.508H584.057V133.394C584.057 121.552 593.686 111.913 605.523 111.913C617.358 111.913 626.989 121.552 626.989 133.394V133.508H626.992ZM584.29 133.278H626.762C626.703 121.615 617.2 112.143 605.526 112.143C593.856 112.143 584.35 121.615 584.29 133.278Z" fill="#38FFE8"/>
<path d="M607.891 150.393L621.926 133.302L622.105 133.445L608.067 150.539L607.891 150.393Z" fill="#B56EE1"/>
<path d="M764.432 117.037L764.554 116.712C769.385 103.675 779.24 105.392 779.341 105.407L779.595 105.458L779.473 105.688C774.675 114.756 764.874 116.945 764.775 116.963L764.435 117.037H764.432ZM778.099 105.706C775.421 105.706 768.794 106.754 765.038 116.506C766.796 116.031 774.765 113.505 779.001 105.753C778.801 105.73 778.491 105.706 778.099 105.706Z" fill="#38FFE8"/>
<path d="M764.479 117.33L764.336 117.013C758.538 104.374 766.721 98.617 766.805 98.5603L767.02 98.414L767.094 98.6648C770.107 108.471 764.724 116.957 764.67 117.04L764.485 117.33H764.479ZM766.805 99.041C765.584 100.029 759.669 105.565 764.53 116.524C765.435 114.944 769.286 107.524 766.805 99.041Z" fill="#38FFE8"/>
<path d="M764.733 116.831L764.384 116.798C750.546 115.511 749.65 105.541 749.644 105.443L749.624 105.183L749.877 105.24C759.873 107.527 764.527 116.431 764.572 116.521L764.73 116.831H764.733ZM750.059 105.676C750.304 107.228 752.143 115.117 764.059 116.383C763.145 114.807 758.643 107.763 750.059 105.676Z" fill="#38FFE8"/>
<path d="M752.695 130.901L752.755 130.647C755.158 120.671 764.112 116.124 764.205 116.076L764.515 115.924L764.476 116.273C763.022 130.101 753.051 130.88 752.949 130.883L752.689 130.901H752.695ZM764.055 116.592C762.47 117.488 755.376 121.91 753.191 130.471C754.744 130.241 762.649 128.497 764.055 116.592Z" fill="#38FFE8"/>
<path d="M775.777 131.588L775.547 131.465C767.71 127.312 765.044 119.56 764.411 117.285C764.315 116.945 764.276 116.757 764.276 116.757L764.205 116.416L764.53 116.539C777.559 121.376 775.842 131.235 775.827 131.331L775.777 131.588ZM764.736 117.025C764.748 117.076 764.763 117.124 764.778 117.181C765.393 119.396 767.966 126.882 775.484 130.996C775.648 129.435 775.914 121.337 764.736 117.025Z" fill="#38FFE8"/>
<path d="M779.667 147.135L779.553 146.804C776.52 137.589 782.652 134.227 782.715 134.197L782.945 134.075L782.996 134.332C784.321 141.358 779.933 146.813 779.888 146.87L779.667 147.138V147.135ZM782.667 134.672C781.599 135.353 777.413 138.599 779.807 146.335C780.655 145.153 783.647 140.486 782.667 134.672Z" fill="#38FFE8"/>
<path d="M779.906 147.258L779.595 147.1C770.937 142.731 772.899 136.013 772.923 135.95L772.997 135.699L773.212 135.846C779.115 139.877 779.867 146.84 779.876 146.909L779.909 147.258H779.906ZM773.221 136.317C772.95 137.551 772.281 142.809 779.44 146.586C779.204 145.153 778.022 139.736 773.221 136.317Z" fill="#38FFE8"/>
<path d="M772.439 149.393C768.716 149.393 766.629 147.207 766.599 147.171L766.423 146.98L766.656 146.87C773.093 143.767 779.5 146.595 779.562 146.622L779.879 146.768L779.589 146.959C776.798 148.79 774.394 149.396 772.439 149.396V149.393ZM767.068 147.097C768.002 147.951 772.221 151.154 779.07 146.837C777.708 146.323 772.43 144.645 767.068 147.097Z" fill="#38FFE8"/>
<path d="M779.294 159.724L779.183 159.491C776.159 153.009 779.061 146.637 779.091 146.571L779.237 146.255L779.425 146.55C784.647 154.729 779.535 159.5 779.485 159.551L779.294 159.724ZM779.302 147.067C778.774 148.419 777.03 153.684 779.422 159.076C780.285 158.156 783.539 153.97 779.302 147.067Z" fill="#38FFE8"/>
<path d="M789.265 150.342C784.497 150.342 780.876 148.028 779.75 147.21C779.55 147.067 779.443 146.977 779.443 146.977L779.177 146.756L779.506 146.649C788.713 143.612 792.075 149.748 792.105 149.811L792.227 150.041L791.97 150.089C791.036 150.265 790.128 150.339 789.262 150.339L789.265 150.342ZM779.974 146.9C781.258 147.831 785.841 150.736 791.636 149.763C790.955 148.694 787.71 144.502 779.974 146.9Z" fill="#38FFE8"/>
<path d="M759.825 183.214L763.873 117.82H764.255L769.041 182.832L759.825 183.214ZM764.082 120.659L760.234 182.817L768.632 182.465L764.082 120.659Z" fill="#B56EE1"/>
<path d="M769.119 181.103L768.737 181.068C768.746 180.942 769.886 168.512 773.973 156.234C777.019 147.085 778.201 147.153 778.592 147.18C779.028 147.207 779.237 147.706 779.3 147.995L778.923 148.073C778.897 147.945 778.774 147.577 778.568 147.562C778.255 147.536 777.078 148.124 774.335 156.353C770.259 168.583 769.125 180.972 769.113 181.1L769.119 181.103Z" fill="#B56EE1"/>
<path d="M726.67 149.47C726.626 149.417 722.237 143.958 723.562 136.933L723.613 136.676L723.84 136.798C723.903 136.834 730.038 140.19 727.002 149.408L726.891 149.736L726.67 149.467V149.47ZM726.748 148.939C729.139 141.202 724.954 137.957 723.888 137.276C722.909 143.089 725.897 147.757 726.748 148.939Z" fill="#38FFE8"/>
<path d="M726.682 149.512C726.688 149.444 727.444 142.48 733.346 138.452L733.561 138.306L733.636 138.554C733.656 138.623 735.621 145.338 726.96 149.706L726.652 149.862L726.685 149.512H726.682ZM727.109 149.193C734.271 145.413 733.606 140.157 733.331 138.921C728.527 142.34 727.342 147.756 727.109 149.193Z" fill="#38FFE8"/>
<path d="M726.966 149.56L726.673 149.369L726.993 149.226C727.055 149.196 733.459 146.368 739.899 149.476L740.132 149.587L739.956 149.778C739.926 149.811 737.833 151.997 734.113 151.997C732.161 151.997 729.754 151.393 726.966 149.56ZM727.485 149.441C734.331 153.761 738.553 150.554 739.484 149.7C734.125 147.246 728.847 148.927 727.485 149.441Z" fill="#38FFE8"/>
<path d="M727.067 162.152C727.014 162.107 721.908 157.329 727.13 149.151L727.315 148.855L727.461 149.172C727.491 149.238 730.393 155.613 727.369 162.092L727.258 162.325L727.067 162.152ZM727.133 161.683C729.521 156.293 727.778 151.029 727.252 149.671C723.016 156.574 726.27 160.757 727.133 161.683Z" fill="#38FFE8"/>
<path d="M714.579 152.692L714.322 152.641L714.445 152.415C714.48 152.352 717.836 146.213 727.047 149.249L727.375 149.357L727.106 149.578C727.106 149.578 727.002 149.667 726.802 149.811C725.673 150.626 722.052 152.946 717.284 152.946C716.418 152.946 715.511 152.868 714.576 152.692H714.579ZM714.919 152.367C720.714 153.346 725.294 150.435 726.578 149.506C718.845 147.109 715.6 151.301 714.919 152.367Z" fill="#38FFE8"/>
<path d="M741.703 133.711C741.631 133.696 734.26 132.051 730.65 125.231L730.558 125.057L730.749 125.019C730.823 125.004 738.23 123.717 741.867 133.52L741.959 133.764L741.703 133.711ZM731.002 125.281C734.191 131.11 740.18 133.006 741.5 133.367C738.675 126.037 733.692 125.249 731.683 125.249C731.385 125.249 731.155 125.264 731.002 125.284V125.281Z" fill="#38FFE8"/>
<path d="M741.78 133.767C741.738 133.705 737.687 127.327 739.956 119.952L740.013 119.763L740.174 119.874C740.234 119.916 746.387 124.248 742.028 133.75L741.917 133.985L741.774 133.767H741.78ZM741.882 133.379C745.533 125.138 741.09 120.976 740.174 120.235C738.308 126.61 741.201 132.194 741.882 133.379Z" fill="#38FFE8"/>
<path d="M741.852 133.379C741.888 133.311 745.384 126.616 752.904 124.893L753.095 124.851L753.08 125.046C753.077 125.123 752.4 132.618 741.998 133.588L741.738 133.612L741.855 133.379H741.852ZM742.237 133.275C751.196 132.322 752.579 126.389 752.764 125.228C746.309 126.795 742.924 132.092 742.237 133.275Z" fill="#38FFE8"/>
<path d="M750.59 144.176C750.516 144.173 743.019 143.588 741.923 133.188L741.896 132.928L742.129 133.042C742.201 133.078 748.93 136.497 750.74 143.997L750.787 144.185L750.59 144.173V144.176ZM750.411 143.869C748.766 137.428 743.434 134.105 742.243 133.433C743.3 142.382 749.244 143.696 750.411 143.869Z" fill="#38FFE8"/>
<path d="M733.391 144.517C733.376 144.445 732.089 137.031 741.888 133.394L742.13 133.302L742.079 133.558C742.079 133.558 742.046 133.699 741.977 133.956C741.503 135.666 739.496 141.495 733.606 144.618L733.433 144.708L733.394 144.517H733.391ZM733.648 144.266C739.299 141.176 741.237 135.544 741.694 133.881C741.706 133.836 741.718 133.794 741.727 133.761C733.319 137.004 733.522 143.09 733.645 144.266H733.648Z" fill="#38FFE8"/>
<path d="M738.49 183.238L742.088 134.353H742.374L745.423 183.528L738.49 183.241V183.238ZM738.801 182.964L745.118 183.226L742.222 136.488L738.801 182.964Z" fill="#B56EE1"/>
<path d="M737.437 183.713L737.819 183.677C737.807 183.552 736.669 171.118 732.582 158.843C729.534 149.694 728.352 149.763 727.963 149.79C727.528 149.817 727.316 150.312 727.256 150.605L727.629 150.68C727.656 150.554 727.778 150.187 727.987 150.172C728.301 150.145 729.477 150.733 732.218 158.963C736.293 171.193 737.428 183.582 737.44 183.707L737.437 183.713Z" fill="#B56EE1"/>
<path d="M206.738 41.2365L205.395 35.1034H197.671L196.366 41.2365L195.993 41.1589L197.367 34.7182H205.699L207.114 41.1589L206.738 41.2365Z" fill="#B56EE1"/>
<path d="M193.751 6.92816L194.02 6.65942L198.608 11.2488L198.337 11.5175L193.751 6.92816Z" fill="#F7F45F"/>
<path d="M193.942 8.65099L194.214 8.37927L196.124 10.2903L195.856 10.562L193.942 8.65099Z" fill="#F7F45F"/>
<path d="M195.474 7.1192L195.742 6.85046L197.653 8.76146L197.384 9.03318L195.474 7.1192Z" fill="#F7F45F"/>
<path d="M204.072 11.2518L208.661 6.65942L208.93 6.93114L204.344 11.5205L204.072 11.2518Z" fill="#F7F45F"/>
<path d="M206.556 10.2962L208.47 8.38525L208.739 8.65399L206.828 10.568L206.556 10.2962Z" fill="#F7F45F"/>
<path d="M205.03 8.7675L206.941 6.85352L207.21 7.12524L205.299 9.03623L205.03 8.7675Z" fill="#F7F45F"/>
<path d="M193.751 21.5801L198.337 16.9907L198.608 17.2595L194.02 21.8518L193.751 21.5801Z" fill="#F7F45F"/>
<path d="M193.942 19.8572L195.853 17.9432L196.124 18.215L194.214 20.126L193.942 19.8572Z" fill="#F7F45F"/>
<path d="M195.471 21.386L197.381 19.475L197.653 19.7437L195.739 21.6577L195.471 21.386Z" fill="#F7F45F"/>
<path d="M204.072 17.2565L204.344 16.9877L208.933 21.5771L208.661 21.8488L204.072 17.2565Z" fill="#F7F45F"/>
<path d="M206.556 18.215L206.828 17.9432L208.739 19.8572L208.467 20.126L206.556 18.215Z" fill="#F7F45F"/>
<path d="M205.027 19.7438L205.296 19.472L207.21 21.386L206.938 21.6548L205.027 19.7438Z" fill="#F7F45F"/>
<path d="M209.559 21.7145C209.559 21.2905 209.219 20.9471 208.795 20.9471C208.374 20.9471 208.031 21.2905 208.031 21.7145C208.031 22.1355 208.374 22.4789 208.795 22.4789C209.219 22.4789 209.559 22.1355 209.559 21.7145Z" fill="#F7F45F"/>
<path d="M194.65 6.79376C194.65 6.37274 194.309 6.02936 193.885 6.02936C193.464 6.02936 193.121 6.37274 193.121 6.79376C193.121 7.21776 193.464 7.55815 193.885 7.55815C194.309 7.55815 194.65 7.21776 194.65 6.79376Z" fill="#F7F45F"/>
<path d="M194.65 21.7145C194.65 21.2905 194.309 20.9471 193.885 20.9471C193.464 20.9471 193.121 21.2905 193.121 21.7145C193.121 22.1355 193.464 22.4789 193.885 22.4789C194.309 22.4789 194.65 22.1355 194.65 21.7145Z" fill="#F7F45F"/>
<path d="M209.559 6.79376C209.559 6.37274 209.219 6.02936 208.795 6.02936C208.374 6.02936 208.031 6.37274 208.031 6.79376C208.031 7.21776 208.374 7.55815 208.795 7.55815C209.219 7.55815 209.559 7.21776 209.559 6.79376Z" fill="#F7F45F"/>
<path d="M204.4 35.1034H198.665V17.3132H189.108V11.195H198.665V0.481506H204.4V11.2428H213.575V17.3192H204.4V35.1034ZM199.047 34.7182H204.018V16.937H213.193V11.625H204.018V0.866691H199.047V11.5772H189.491V16.931H199.047V34.7182Z" fill="#B56EE1"/>
<path d="M203.367 33.1894H199.958V15.9994H190.446V12.4641H199.958V1.8222H203.107V12.4969H212.237V16.0024H203.367V33.1924V33.1894ZM200.34 32.8072H202.985V15.6172H211.855V12.8761H202.725V2.20142H200.34V12.8433H190.828V15.6112H200.34V32.8072Z" fill="#B56EE1"/>
<path d="M541.877 179.542C541.501 179.542 541.221 179.443 541.029 179.243C540.901 179.112 540.841 178.956 540.812 178.819C540.477 179.007 539.898 179.294 539.265 179.425C538.268 179.625 538.032 179.497 537.354 179.013C536.918 178.706 536.754 178.27 536.503 177.607C536.342 177.186 536.142 176.663 535.811 176.018C535.345 175.108 535.366 174.857 535.45 174.454C535.509 174.182 535.581 173.842 535.42 172.955C535.363 172.635 535.255 172.053 535.175 171.916C535.145 171.928 535.1 171.945 535.058 171.963C534.858 172.053 534.533 172.202 534.01 172.152C533.33 172.086 532.649 171.799 532.15 171.593C531.918 171.495 531.631 171.375 531.506 171.36C531.44 171.569 531.291 171.892 531.12 172.259C530.947 172.623 530.771 172.997 530.688 173.262C530.592 173.54 530.32 173.922 530.007 174.367C529.675 174.833 529.299 175.361 529.207 175.699C529.126 176 529.099 176.183 529.063 176.466C529.016 176.813 528.953 177.284 528.75 178.249C528.469 179.569 527.066 179.398 526.042 179.27C525.555 179.21 525.057 179.154 524.854 179.27C524.352 179.563 523.97 179.389 523.633 179.237C523.382 179.127 523.143 179.013 522.83 179.052C522.665 179.073 522.63 179.112 522.63 179.112L522.603 179.213L522.483 179.285C522.364 179.324 522.304 179.27 522.119 179.118C521.982 178.998 521.734 178.795 521.298 178.452C519.931 177.389 519.958 176.998 520.149 176.215C520.19 176.042 520.235 175.851 520.265 175.621C520.328 175.143 520.489 174.6 520.674 173.97C520.949 173.032 521.262 171.969 521.316 170.868C521.349 170.27 521.343 169.906 521.301 169.772C521.226 169.524 521.083 169.061 520.838 167.186C520.355 163.427 524.042 159.82 525.409 159.249C525.914 159.037 527.824 158.987 530.897 158.912C534.148 158.837 538.602 158.733 539.095 158.246C539.695 157.649 539.504 156.081 539.367 155.448C538.581 154.761 539.053 153.615 539.483 152.982C539.196 152.692 539.056 152.376 539.059 152.035C539.059 151.602 539.313 151.25 539.474 151.068C538.823 150.298 539.149 149.479 539.492 149.046C538.856 148.106 539.304 147.338 539.537 147.04C539.229 146.538 539.552 145.911 539.68 145.705C539.638 145.251 539.999 144.633 540.492 143.791L540.674 143.484C541.14 142.68 541.647 142.352 542.295 141.937C542.454 141.832 542.624 141.722 542.803 141.599C543.719 140.963 544.463 141.193 545.487 141.51L545.69 141.573C546.603 141.85 547.018 142.322 547.422 142.776C547.535 142.907 547.651 143.039 547.78 143.167C548.374 143.755 548.499 145.006 548.514 145.209C548.861 146.216 548.649 146.843 548.407 147.192H548.702L548.756 147.294C548.965 147.697 549.007 148.079 548.884 148.434C548.747 148.831 548.431 149.088 548.225 149.22C548.341 149.45 548.401 149.733 548.484 150.109C548.541 150.387 548.619 150.727 548.732 151.14C548.828 151.477 548.783 151.743 548.601 151.943C548.41 152.152 548.102 152.229 547.822 152.244C548.162 152.674 548.162 153.176 548.15 153.349C548.532 154.137 548.219 154.788 548.075 155.021C548.416 156.01 548.075 156.789 547.911 157.085C548.246 157.506 548.368 157.864 548.272 158.151C548.225 158.297 548.129 158.401 548.025 158.47C548.425 159.309 548.431 159.948 548.422 160.151C548.747 160.724 548.819 161.199 548.637 161.551C548.499 161.82 548.252 161.949 548.054 162.017C548.732 163.28 548.32 164.107 548.04 164.663C547.947 164.848 547.869 165.006 547.869 165.114C547.869 165.275 547.884 165.445 547.902 165.642C547.947 166.135 548.001 166.747 547.869 167.559C547.747 168.3 547.054 168.771 546.55 169.115C546.35 169.252 546.018 169.479 546.018 169.566C546.018 169.787 545.914 170.16 545.774 170.671C545.594 171.321 545.35 172.214 545.203 173.215C545.144 173.63 545.096 173.91 545.063 174.113C545.003 174.46 545.015 174.803 545.096 175.146C545.123 175.266 545.161 175.412 545.2 175.591C545.409 176.514 545.164 176.923 544.932 177.317C544.803 177.535 544.681 177.741 544.618 178.046C544.4 179.13 543.57 179.321 542.23 179.5C542.107 179.515 541.991 179.527 541.886 179.527L541.877 179.542ZM541.259 178.085L541.179 178.529C541.179 178.529 541.131 178.807 541.307 178.983C541.459 179.145 541.758 179.195 542.173 179.142C543.609 178.945 544.084 178.762 544.236 177.989C544.308 177.619 544.463 177.362 544.594 177.135C544.818 176.759 544.994 176.463 544.821 175.69C544.779 175.511 544.744 175.37 544.717 175.251C544.576 174.669 544.576 174.645 544.675 174.066C544.711 173.862 544.758 173.582 544.818 173.173C544.961 172.149 545.215 171.247 545.394 170.584C545.52 170.121 545.624 169.754 545.624 169.581C545.624 169.291 545.935 169.079 546.323 168.813C546.798 168.491 547.386 168.085 547.481 167.508C547.607 166.747 547.556 166.162 547.511 165.687C547.493 165.481 547.478 165.293 547.478 165.126C547.478 164.929 547.577 164.731 547.693 164.502C547.965 163.958 548.338 163.209 547.589 161.999L547.425 161.737L547.735 161.71C547.735 161.71 548.144 161.668 548.287 161.384C548.41 161.145 548.329 160.772 548.054 160.3L548.022 160.244L548.028 160.178C548.028 160.178 548.108 159.458 547.589 158.473L547.475 158.255L547.714 158.198C547.714 158.198 547.863 158.159 547.902 158.037C547.926 157.956 547.941 157.724 547.52 157.234L547.425 157.117L547.511 156.995C547.535 156.962 548.093 156.162 547.672 155.072L547.634 154.973L547.699 154.887C547.72 154.866 548.174 154.257 547.774 153.483L547.747 153.43L547.753 153.37C547.756 153.34 547.848 152.594 547.168 152.2L546.23 151.659L547.293 151.844C547.49 151.877 548.093 151.925 548.305 151.689C548.335 151.656 548.431 151.549 548.347 151.247C548.228 150.823 548.15 150.474 548.093 150.196C547.998 149.754 547.938 149.464 547.789 149.264L547.642 149.073L547.86 148.975C547.86 148.975 548.353 148.748 548.505 148.306C548.583 148.082 548.565 147.837 548.446 147.574H547.245L547.837 147.219C547.869 147.198 548.622 146.708 548.129 145.311L548.117 145.26C548.117 145.26 548.022 143.964 547.493 143.433C547.359 143.298 547.236 143.161 547.12 143.027C546.717 142.576 546.374 142.182 545.562 141.931L545.362 141.871C544.37 141.564 543.77 141.379 543.006 141.91C542.821 142.035 542.651 142.146 542.486 142.253C541.862 142.66 541.412 142.949 540.988 143.672L540.806 143.979C540.382 144.702 539.982 145.386 540.05 145.699L540.065 145.78L540.02 145.848C540.02 145.848 539.558 146.535 539.91 146.908L540.038 147.049L539.898 147.18C539.865 147.21 539.113 147.945 539.871 148.936L539.97 149.067L539.856 149.184C539.82 149.22 538.999 150.083 539.856 150.925L540.005 151.071L539.844 151.205C539.844 151.205 539.426 151.567 539.423 152.026C539.423 152.295 539.564 152.555 539.847 152.803L539.982 152.922L539.871 153.062C539.871 153.062 538.775 154.502 539.638 155.18L539.692 155.221L539.707 155.287C539.728 155.383 540.244 157.613 539.346 158.506C538.787 159.058 535.638 159.172 530.891 159.282C528.49 159.342 526.003 159.399 525.538 159.59C524.284 160.109 520.749 163.615 521.202 167.12C521.438 168.963 521.582 169.419 521.65 169.643C521.731 169.906 521.731 169.927 521.683 170.871C521.626 172.017 521.307 173.101 521.026 174.06C520.847 174.678 520.689 175.209 520.629 175.657C520.599 175.905 520.549 176.111 520.504 176.29C520.349 176.917 520.289 177.18 521.516 178.138C521.958 178.482 522.209 178.694 522.349 178.813C522.441 178.727 522.576 178.679 522.767 178.658C523.188 178.613 523.495 178.753 523.767 178.876C524.081 179.019 524.307 179.121 524.639 178.93C524.952 178.747 525.469 178.813 526.066 178.885C527.281 179.034 528.159 179.067 528.353 178.162C528.55 177.21 528.616 176.747 528.66 176.406C528.699 176.12 528.729 175.911 528.819 175.588C528.929 175.182 529.308 174.645 529.675 174.134C529.944 173.752 530.228 173.358 530.305 173.131C530.401 172.847 530.58 172.462 530.756 172.086C530.92 171.731 531.094 171.369 531.135 171.196C531.156 171.106 531.21 171.038 531.288 171.002C531.491 170.897 531.789 171.023 532.282 171.229C532.783 171.441 533.404 171.701 534.028 171.76C534.449 171.805 534.697 171.689 534.882 171.608C535.026 171.542 535.175 171.48 535.327 171.56C535.527 171.665 535.599 171.922 535.775 172.883C535.951 173.842 535.867 174.242 535.802 174.531C535.736 174.842 535.7 175.009 536.127 175.839C536.468 176.505 536.671 177.037 536.835 177.466C537.068 178.082 537.214 178.455 537.554 178.697C538.16 179.133 538.289 179.225 539.167 179.04C540.047 178.861 540.853 178.326 540.859 178.323L541.235 178.073L541.259 178.085Z" fill="#38FFE8"/>
<path d="M531.263 171.426C528.427 170.163 527.603 166.831 527.567 166.69L527.938 166.601C527.947 166.637 528.756 169.891 531.416 171.077L531.26 171.426H531.263Z" fill="#38FFE8"/>
<path d="M524.94 179.157L524.57 179.064C524.585 179.007 524.516 178.813 524.469 178.667C524.295 178.153 524.006 177.302 524.594 176.401L524.911 176.613C524.421 177.35 524.654 178.04 524.827 178.541C524.911 178.792 524.979 178.989 524.937 179.157H524.94Z" fill="#38FFE8"/>
<path d="M524.633 173.686C524.474 173.686 524.337 173.636 524.218 173.537C523.776 173.17 523.791 172.241 523.794 172.137L524.176 172.149C524.164 172.474 524.239 173.053 524.463 173.241C524.51 173.28 524.582 173.325 524.728 173.292C525.481 173.125 525.878 172.695 525.881 172.692L526.164 172.949C526.146 172.97 525.687 173.468 524.812 173.665C524.749 173.683 524.692 173.686 524.636 173.686H524.633Z" fill="#38FFE8"/>
<path d="M524.283 170.709C524.039 170.709 523.862 170.635 523.755 170.479C523.507 170.133 523.782 169.56 523.815 169.497L524.158 169.664C524.074 169.837 523.985 170.145 524.068 170.258C524.131 170.342 524.31 170.33 524.409 170.318L524.46 170.697C524.397 170.706 524.34 170.709 524.286 170.709H524.283Z" fill="#38FFE8"/>
<path d="M524.34 168.082C524.298 168.082 524.256 168.073 524.215 168.064C523.749 167.929 523.665 167.099 523.653 166.929L524.035 166.902C524.062 167.249 524.185 167.655 524.322 167.697C524.403 167.717 524.582 167.61 524.851 167.24L525.158 167.464C524.859 167.876 524.594 168.079 524.346 168.079L524.34 168.082Z" fill="#38FFE8"/>
<path d="M525.409 163.155C525.071 163.155 524.746 163.036 524.695 163.018L524.833 162.662C524.982 162.719 525.457 162.853 525.695 162.716C525.74 162.689 525.809 162.635 525.833 162.498L526.206 162.561C526.167 162.779 526.054 162.949 525.878 163.047C525.737 163.128 525.567 163.155 525.409 163.155Z" fill="#38FFE8"/>
<path d="M520.913 167.32C520.892 167.305 518.867 165.723 519.727 163.872C519.883 163.531 519.999 163.227 520.1 162.964C520.545 161.796 520.823 161.274 522.793 161.113L522.823 161.495C521.014 161.644 520.862 162.038 520.462 163.101C520.357 163.373 520.238 163.683 520.074 164.036C519.345 165.606 521.13 167.007 521.145 167.019L520.913 167.32Z" fill="#38FFE8"/>
<path d="M540.34 167.649C540.143 167.649 539.973 167.592 539.838 167.482C539.495 167.195 539.546 166.651 539.549 166.628L539.931 166.666C539.919 166.771 539.931 167.061 540.089 167.192C540.2 167.281 540.382 167.293 540.632 167.222C540.913 167.141 541.098 167.01 541.182 166.84C541.301 166.598 541.188 166.326 541.185 166.323L541.537 166.174C541.537 166.174 541.716 166.598 541.525 166.998C541.391 167.278 541.128 167.479 540.731 167.589C540.588 167.631 540.456 167.649 540.337 167.649H540.34Z" fill="#38FFE8"/>
<path d="M543.896 165.627C543.579 165.627 543.331 165.523 543.155 165.317C542.8 164.902 542.898 164.233 542.901 164.203L543.281 164.26C543.281 164.26 543.203 164.788 543.445 165.069C543.549 165.185 543.693 165.242 543.896 165.242C544.167 165.242 544.245 165.138 544.266 165.099C544.415 164.881 544.299 164.439 544.245 164.299L544.6 164.161C544.627 164.233 544.872 164.896 544.579 165.314C544.484 165.454 544.287 165.621 543.893 165.621L543.896 165.627Z" fill="#38FFE8"/>
<path d="M539.79 161.943C539.769 161.943 539.748 161.943 539.727 161.943C539.259 161.922 538.945 161.811 538.793 161.608C538.665 161.444 538.697 161.283 538.703 161.253L539.074 161.343L538.889 161.295L539.074 161.328C539.074 161.328 539.074 161.354 539.101 161.384C539.142 161.429 539.286 161.537 539.739 161.552C539.886 161.563 540.074 161.54 540.145 161.432C540.232 161.307 540.163 161.062 540.131 160.987L540.483 160.838C540.501 160.886 540.68 161.328 540.459 161.65C540.328 161.844 540.104 161.94 539.787 161.94L539.79 161.943Z" fill="#38FFE8"/>
<path d="M544.206 161.519C543.961 161.519 543.788 161.426 543.678 161.334C543.188 160.933 543.209 160.023 543.212 159.918L543.594 159.933C543.585 160.16 543.627 160.799 543.922 161.041C544.036 161.136 544.191 161.157 544.382 161.113C544.654 161.047 544.737 160.963 544.743 160.924C544.758 160.838 544.591 160.647 544.427 160.53L544.645 160.214C544.737 160.28 545.191 160.611 545.123 160.99C545.081 161.223 544.86 161.387 544.472 161.48C544.376 161.504 544.29 161.51 544.209 161.51L544.206 161.519Z" fill="#38FFE8"/>
<path d="M542.015 158.64C541.812 158.64 541.576 158.584 541.319 158.419C541.11 158.285 540.979 158.097 540.94 157.873C540.856 157.377 541.253 156.87 541.274 156.846L541.576 157.085C541.486 157.195 541.274 157.538 541.322 157.81C541.343 157.93 541.411 158.022 541.528 158.097C542.053 158.434 542.37 158.157 542.406 158.121L542.671 158.392C542.561 158.503 542.325 158.64 542.018 158.64H542.015Z" fill="#38FFE8"/>
<path d="M544.424 156.708C544.117 156.708 543.746 156.601 543.319 156.389C542.863 156.162 542.57 155.839 542.436 155.439C542.218 154.782 542.534 154.146 542.549 154.12L542.89 154.293C542.89 154.293 542.63 154.815 542.8 155.32C542.898 155.618 543.131 155.863 543.487 156.042C544.164 156.38 544.505 156.341 544.645 156.293C544.782 156.243 544.821 156.15 544.824 156.147L545.185 156.281C545.176 156.308 545.09 156.526 544.803 156.646C544.687 156.69 544.561 156.714 544.421 156.714L544.424 156.708Z" fill="#38FFE8"/>
<path d="M544.116 153.307C543.896 153.251 543.722 153.122 543.621 152.934C543.394 152.519 543.57 151.961 543.594 151.901L543.958 152.023C543.913 152.149 543.836 152.528 543.958 152.755C544.006 152.851 544.09 152.91 544.212 152.94L544.116 153.313V153.307Z" fill="#38FFE8"/>
<path d="M545.003 151.456C544.701 151.456 544.51 151.366 544.436 151.19C544.301 150.865 544.68 150.447 544.797 150.327L545.069 150.599C544.898 150.772 544.776 150.987 544.791 151.047C544.791 151.047 544.839 151.077 545.003 151.077C545.746 151.077 546.125 150.402 546.14 150.375L546.475 150.557C546.457 150.596 545.979 151.465 545.003 151.465V151.456Z" fill="#38FFE8"/>
<path d="M535.046 171.769C534.554 169.631 536.372 167.431 536.453 167.341L536.748 167.583C536.727 167.607 534.972 169.733 535.42 171.686L535.049 171.769H535.046Z" fill="#38FFE8"/>
<path d="M541.283 178.219L540.961 178.019C540.961 178.019 541.701 176.78 541.248 175.591L540.415 174.119L540.946 174.358C541.083 174.424 541.495 174.549 541.719 174.382C541.922 174.233 541.943 173.874 541.916 173.576L540.585 172.101L541.579 172.65C541.579 172.65 541.8 172.764 541.928 172.665C542.003 172.608 542.224 172.322 541.928 171.044L541.821 170.575L542.218 170.841C542.284 170.883 543.872 171.865 545.654 169.464L545.962 169.691C544.472 171.692 543.033 171.542 542.373 171.324C542.534 172.199 542.463 172.74 542.152 172.976C542.092 173.02 542.03 173.047 541.964 173.065L542.278 173.412L542.286 173.471C542.352 174.066 542.236 174.475 541.937 174.69C541.728 174.842 541.468 174.857 541.251 174.83L541.588 175.424C542.122 176.819 541.316 178.159 541.28 178.216L541.283 178.219Z" fill="#38FFE8"/>
<path d="M537.79 172.665C537.641 172.665 537.512 172.623 537.408 172.534C537.091 172.277 537.148 171.757 537.157 171.701L537.533 171.745C537.521 171.841 537.518 172.134 537.65 172.241C537.739 172.313 537.9 172.277 538.023 172.241C538.617 172.032 538.707 171.916 538.713 171.91C538.704 171.922 538.68 171.972 538.713 172.038L539.065 171.892L539.056 172.077C539.002 172.19 538.853 172.355 538.148 172.599C538.02 172.644 537.9 172.665 537.793 172.665H537.79Z" fill="#38FFE8"/>
<path d="M533.345 163.361C532.879 163.361 532.5 163.233 532.213 162.97C531.741 162.546 531.711 161.934 531.708 161.907V159.031H532.091V161.901C532.091 161.901 532.109 162.199 532.288 162.474C532.524 162.838 532.924 163.006 533.467 162.976C533.882 162.952 534.181 162.826 534.357 162.6C534.622 162.259 534.53 161.79 534.53 161.784V161.749L534.545 159.028H534.927L534.909 161.731C534.927 161.85 534.996 162.397 534.664 162.829C534.419 163.146 534.022 163.328 533.491 163.355C533.44 163.355 533.395 163.358 533.348 163.358L533.345 163.361Z" fill="#38FFE8"/>
<path d="M533.363 164.761C532.649 164.761 532.064 164.558 531.616 164.152C530.837 163.445 530.78 162.391 530.78 162.343V159.124H531.162V162.337C531.162 162.337 531.21 163.274 531.876 163.875C532.288 164.248 532.864 164.418 533.569 164.376C534.273 164.334 534.79 164.107 535.106 163.701C535.62 163.044 535.447 162.119 535.447 162.107V162.068L535.477 158.864H535.859L535.826 162.053C535.853 162.211 535.99 163.185 535.414 163.931C535.026 164.43 534.414 164.705 533.596 164.752C533.521 164.758 533.443 164.761 533.369 164.761H533.363Z" fill="#38FFE8"/>
<path d="M533.386 166.039C532.374 166.039 531.544 165.753 530.911 165.182C529.807 164.179 529.732 162.683 529.726 162.62V159.124H530.111V162.611C530.111 162.611 530.186 164.009 531.174 164.899C531.792 165.457 532.637 165.705 533.691 165.648C534.736 165.588 535.509 165.248 535.981 164.639C536.748 163.654 536.491 162.28 536.485 162.262V162.244L536.533 158.864H536.915L536.867 162.211C536.903 162.405 537.112 163.806 536.285 164.872C535.742 165.574 534.876 165.962 533.715 166.03C533.604 166.039 533.497 166.042 533.389 166.042L533.386 166.039Z" fill="#38FFE8"/>
<path d="M533.386 167.649C531.959 167.649 530.801 167.255 529.938 166.472C528.505 165.179 528.4 163.304 528.397 163.224V159.118H528.78V163.215C528.78 163.215 528.878 165.006 530.198 166.192C531.078 166.983 532.3 167.341 533.837 167.255C535.312 167.171 536.399 166.69 537.07 165.824C538.154 164.433 537.793 162.48 537.79 162.462V162.444L537.853 158.864L538.235 158.87L538.169 162.411C538.211 162.647 538.512 164.588 537.375 166.057C536.632 167.016 535.446 167.547 533.855 167.637C533.697 167.646 533.539 167.655 533.386 167.655V167.649Z" fill="#38FFE8"/>
<path d="M540.665 143.681C540.582 143.519 538.653 139.706 541.015 138.085C541.316 137.876 541.746 137.625 542.069 137.804C542.448 138.019 542.406 138.646 542.355 139.441C542.283 140.584 542.283 141.468 542.937 141.579L542.872 141.958C541.824 141.782 541.907 140.471 541.973 139.42C542.003 138.918 542.045 138.231 541.877 138.136C541.854 138.121 541.704 138.073 541.227 138.399C539.143 139.832 540.982 143.469 541.003 143.505L540.662 143.681H540.665Z" fill="#38FFE8"/>
<path d="M541.31 142.256C541.277 142.203 540.513 140.898 541.254 139.453L541.594 139.629C540.952 140.88 541.609 142.018 541.642 142.062L541.31 142.256Z" fill="#38FFE8"/>
<path d="M548.078 143.681L547.738 143.505C547.756 143.466 549.595 139.829 547.511 138.399C547.033 138.067 546.89 138.121 546.863 138.136C546.693 138.231 546.735 138.918 546.768 139.42C546.833 140.471 546.911 141.779 545.869 141.958L545.803 141.579C546.457 141.468 546.457 140.584 546.385 139.441C546.335 138.646 546.296 138.019 546.672 137.804C546.988 137.622 547.424 137.876 547.726 138.085C550.084 139.709 548.159 143.519 548.075 143.681H548.078Z" fill="#38FFE8"/>
<path d="M547.433 142.256L547.102 142.062C547.129 142.018 547.792 140.88 547.15 139.629L547.49 139.453C548.234 140.898 547.466 142.203 547.433 142.256Z" fill="#38FFE8"/>
<path d="M540.382 144.538H548.204L548.32 145.263H547.442C547.442 145.263 547.141 146.225 546.308 146.096C545.475 145.971 544.749 144.866 544.749 144.866L543.705 144.857C543.705 144.857 542.704 146.365 541.833 146.105C540.961 145.846 541.125 145.332 541.125 145.332H540.107L540.382 144.532V144.538Z" fill="#38FFE8"/>
<path d="M544.116 149.112C543.122 149.112 542.385 148.825 541.931 148.258C541.194 147.347 541.468 146.063 541.48 146.01L541.853 146.093C541.853 146.093 541.609 147.258 542.23 148.022C542.618 148.5 543.263 148.736 544.167 148.73C545.042 148.721 545.675 148.473 546.039 147.992C546.663 147.177 546.359 145.947 546.353 145.938L546.726 145.843C546.741 145.899 547.081 147.261 546.344 148.225C545.899 148.805 545.164 149.103 544.167 149.112C544.152 149.112 544.131 149.112 544.116 149.112Z" fill="#38FFE8"/>
<path d="M542.803 145.846C542.979 146.037 543.238 146.159 543.468 146.27C543.597 146.332 543.734 146.386 543.868 146.437C544.015 146.496 544.224 146.631 544.382 146.58C544.492 146.544 544.591 146.443 544.695 146.389C544.821 146.314 544.955 146.255 545.09 146.192C545.334 146.078 545.597 145.971 545.812 145.804C545.911 145.726 545.773 145.589 545.675 145.666C545.49 145.81 545.257 145.902 545.042 146.001C544.821 146.105 544.612 146.216 544.403 146.341C544.304 146.404 544.254 146.386 544.155 146.341C544.068 146.308 543.979 146.273 543.889 146.24C543.77 146.192 543.653 146.147 543.54 146.093C543.334 145.995 543.089 145.884 542.928 145.708C542.844 145.616 542.707 145.753 542.791 145.846H542.803Z" fill="#38FFE8"/>
<path d="M544.194 146.541C544.233 146.72 544.194 146.912 544.209 147.094C544.227 147.294 544.182 147.491 544.191 147.694C544.194 147.816 544.388 147.819 544.385 147.694C544.385 147.589 544.394 147.491 544.4 147.386C544.409 147.279 544.409 147.177 544.4 147.07C544.385 146.876 544.424 146.679 544.382 146.488C544.355 146.365 544.17 146.419 544.194 146.538V146.541Z" fill="#38FFE8"/>
<path d="M542.683 145.899C542.731 146.332 542.833 146.795 542.752 147.222C542.671 147.652 542.591 148.04 542.615 148.473C542.624 148.596 542.815 148.599 542.809 148.473C542.8 148.24 542.806 148.01 542.842 147.78C542.871 147.583 542.928 147.386 542.958 147.183C543.024 146.762 542.928 146.32 542.883 145.899C542.868 145.777 542.677 145.777 542.686 145.899H542.683Z" fill="#38FFE8"/>
<path d="M545.752 145.923C545.752 146.777 545.752 147.64 545.752 148.497C545.752 148.622 545.949 148.622 545.949 148.497C545.949 147.64 545.949 146.777 545.949 145.923C545.949 145.795 545.752 145.795 545.752 145.923Z" fill="#38FFE8"/>
<path d="M542.767 147.694C543.035 147.774 543.298 147.795 543.579 147.819C543.856 147.843 544.095 147.897 544.361 147.852C544.866 147.774 545.394 147.795 545.815 147.464C545.914 147.386 545.776 147.249 545.678 147.327C545.298 147.625 544.767 147.601 544.307 147.667C544.059 147.7 543.824 147.646 543.579 147.625C543.319 147.601 543.068 147.577 542.82 147.503C542.704 147.467 542.65 147.655 542.773 147.688L542.767 147.694Z" fill="#38FFE8"/>
<path d="M525.863 184.68H522.633L522.618 184.504C522.618 184.504 522.534 183.528 522.176 182.641C521.8 181.692 521.764 178.945 521.761 178.828H522.143C522.143 178.849 522.176 181.611 522.534 182.495C522.821 183.214 522.937 183.961 522.979 184.292H524.919L523.794 183.208L523.642 179.118L524.024 179.103L524.17 183.035L525.863 184.672V184.68Z" fill="#38FFE8"/>
<path d="M529.627 184.681H526.397L526.382 184.504C526.382 184.504 526.299 183.528 525.943 182.641C525.561 181.689 525.618 179.207 525.621 179.103L526.003 179.112C526.003 179.136 525.946 181.62 526.299 182.501C526.585 183.217 526.705 183.964 526.746 184.298H528.684L527.558 183.211L527.406 179.115L527.788 179.1L527.935 183.041L529.627 184.681Z" fill="#38FFE8"/>
<path d="M545.12 184.681H541.889L541.874 184.504C541.874 184.504 541.791 183.528 541.432 182.641C541.05 181.689 541.11 179.207 541.113 179.103L541.495 179.112C541.495 179.136 541.438 181.62 541.791 182.501C542.077 183.217 542.194 183.964 542.236 184.298H544.176L543.051 183.211L542.898 179.115L543.28 179.1L543.427 183.041L545.12 184.681Z" fill="#38FFE8"/>
<path d="M541.773 184.681H538.543L538.528 184.504C538.528 184.504 538.444 183.528 538.089 182.641C537.707 181.689 537.763 179.207 537.766 179.103L538.148 179.112C538.148 179.136 538.092 181.62 538.444 182.501C538.731 183.217 538.85 183.964 538.892 184.298H540.83L539.707 183.211L539.552 179.115L539.934 179.1L540.08 183.041L541.773 184.681Z" fill="#38FFE8"/>
<path d="M291.857 163.25H338.068C351.614 163.25 362.64 174.264 362.672 187.813H347.484V187.432H347.479V187.813H347.348C347.316 185.075 345.083 182.857 342.337 182.857C339.591 182.858 337.356 185.075 337.324 187.813H294.5C294.468 185.075 292.233 182.858 289.487 182.857C286.742 182.857 284.508 185.075 284.477 187.813H267.251C267.283 174.264 278.309 163.25 291.857 163.25Z" fill="#2F2F2F" fill-opacity="0.2" stroke="#38FFE8" stroke-width="0.5"/>
<path d="M294.082 175.723H276.771V175.532C276.771 171.316 280.202 167.885 284.414 167.885H294.082V175.723ZM277.157 175.341H293.7V168.267H284.414C280.477 168.267 277.258 171.423 277.157 175.341Z" fill="#B56EE1"/>
<path d="M353.882 175.723H336.572V167.885H346.239C350.452 167.885 353.882 171.316 353.882 175.532V175.723ZM336.954 175.341H353.497C353.393 171.423 350.177 168.267 346.239 168.267H336.954V175.341Z" fill="#B56EE1"/>
<path d="M314.589 175.723H298.93V167.885H314.589V175.723ZM299.312 175.341H314.207V168.267H299.312V175.341Z" fill="#B56EE1"/>
<path d="M333.721 175.723H318.062V167.885H333.721V175.723ZM318.444 175.341H333.339V168.267H318.444V175.341Z" fill="#B56EE1"/>
<circle cx="289.5" cy="187.5" r="3.25" fill="#2F2F2F" stroke="#F9F051" stroke-width="0.5"/>
<circle cx="342.5" cy="187.5" r="3.25" fill="#2F2F2F" stroke="#F9F051" stroke-width="0.5"/>
</svg>
