<svg width="42" height="42" viewBox="0 0 42 42" fill="none" xmlns="http://www.w3.org/2000/svg">
<g clip-path="url(#clip0_89_2657)">
<path d="M12.8364 20.2215V18.9979C12.4376 18.9979 12.0641 18.9979 11.6885 18.9979C8.24246 18.9979 4.79856 18.9726 1.35255 19.0127C0.341746 19.0253 -0.0212147 18.6519 -0.000112354 17.6519C0.0463128 15.403 0.0104388 13.154 0.0167695 10.9051C0.0188798 9.61815 0.132832 9.50212 1.39053 9.50001C4.80067 9.49579 8.21081 9.50001 11.6209 9.50001C11.9987 9.50001 12.3785 9.50001 12.8744 9.50001C12.8744 8.22997 12.8681 7.04642 12.8744 5.86288C12.885 4.21098 13.6805 3.41984 15.3329 3.40086C15.8604 3.39453 16.3922 3.35444 16.9134 3.40718C18.705 3.58651 20.3067 3.36921 21.4146 1.70043C21.8049 1.11394 22.3304 1.21731 22.8474 1.69621C23.0479 1.88187 23.5163 2.03166 23.7042 1.92406C23.9996 1.75318 24.3203 1.36288 24.3478 1.04221C24.4132 0.267944 24.7572 -0.0189759 25.4936 0.0189988C25.9853 0.0443152 26.4791 0.052754 26.9687 0.0189988C27.9204 -0.0527312 28.5281 0.158239 28.4965 1.31647C28.4796 1.96415 29.3955 2.28693 29.8681 1.79959C30.5392 1.10761 31.1005 1.20887 31.607 1.90297C32.5481 3.19621 33.7826 3.63925 35.3463 3.42195C36.0701 3.32069 36.8214 3.39664 37.5578 3.40718C39.1279 3.4325 39.8939 4.18145 39.8981 5.74052C39.9086 10.1688 39.9023 14.5971 39.9023 19.0253C39.9023 19.4072 39.9023 19.7869 39.9023 20.1182C40.0479 20.2004 40.1028 20.2574 40.1619 20.2616C41.376 20.346 41.983 20.9958 41.983 22.211C41.983 25.3608 41.5842 25.7553 38.3851 25.7553C30.1235 25.7553 21.8619 25.7553 13.6025 25.7553C11.5175 25.7553 10.8465 25.0739 10.8402 22.9684C10.8402 22.7574 10.8423 22.5464 10.8402 22.3355C10.8085 19.922 10.9858 20.4114 12.8343 20.2279L12.8364 20.2215ZM34.6014 7.54642C34.5782 7.88398 34.5339 8.16035 34.5423 8.4325C34.5719 9.38609 34.6584 10.3038 33.1981 10.2025C32.6178 10.1625 32.3223 11.1941 32.795 11.6435C33.5167 12.327 33.2888 12.8376 32.6663 13.3861C32.297 13.711 31.9425 14.0549 31.6218 14.4262C31.0647 15.0696 30.5603 15.2426 29.8808 14.5338C29.4039 14.0359 28.4691 14.3523 28.4965 14.9874C28.5471 16.1688 27.9056 16.3333 26.9687 16.2616C26.515 16.2279 26.0528 16.2257 25.5991 16.2616C24.7762 16.3291 24.3604 16.0591 24.3562 15.154C24.352 14.3924 23.472 13.962 22.9909 14.4874C22.2185 15.3333 21.6825 15.0021 21.0938 14.3291C20.7941 13.9852 20.4713 13.6582 20.1252 13.3629C19.4731 12.8038 19.3191 12.2954 20.0345 11.6266C20.505 11.1857 20.1758 10.1582 19.5892 10.1983C18.2893 10.2869 18.2597 9.52533 18.3125 8.60128C18.3315 8.26372 18.283 7.92406 18.264 7.5633H16.8163C16.943 8.29326 17.0232 8.92195 17.1709 9.53377C17.27 9.94727 17.595 10.3333 17.6014 10.7363C17.6436 13.0886 17.6309 15.443 17.6098 17.7954C17.6077 18.1266 17.479 18.4641 17.365 18.7827C17.2025 19.2363 16.9978 19.673 16.7657 20.2257H35.8085V7.54642H34.5993H34.6014ZM1.49393 10.9051V17.5485H16.1685V10.9051H1.49393ZM12.273 21.7679C12.2582 22.0696 12.2435 22.2764 12.2414 22.4831C12.2245 23.7433 12.8618 24.3734 14.1532 24.3734C22.2333 24.3734 30.3155 24.3734 38.3956 24.3734C40.7591 24.3734 40.8561 24.2553 40.4552 21.7679H12.273ZM22.1236 3.32702C22.0835 3.22575 22.0413 3.12237 22.0012 3.02111C21.7437 3.29326 21.4863 3.56541 21.2394 3.82913C22.3473 5.22364 21.5517 7.08229 19.6905 7.65613V8.77216C21.461 8.99368 22.2502 10.8903 21.2943 12.5844C21.558 12.8291 21.8303 13.0802 22.0898 13.3207C23.4847 12.2279 25.4261 13.0675 25.9199 14.8882H26.9307C27.2873 13.0633 29.3174 12.2342 30.784 13.3439C31.0541 13.1013 31.3326 12.8502 31.5838 12.6224C30.5392 10.9726 31.3516 9.019 33.0757 8.75739V7.58018C31.3516 7.29748 30.5498 5.27849 31.5817 3.7363C31.3327 3.48102 31.071 3.21098 30.8199 2.9536C29.3596 4.06119 27.3886 3.26794 26.899 1.51478H25.7469C26.036 3.19199 24.5968 3.02111 23.778 3.39242C23.3306 3.59495 22.687 3.36499 22.1299 3.33124L22.1236 3.32702ZM38.5961 20.2468C38.5961 15.3144 38.6087 10.5106 38.5665 5.70465C38.5644 5.40929 38.1403 4.87554 37.8955 4.86499C36.1208 4.79326 34.3418 4.82491 32.5397 4.82491C32.5545 5.8228 32.9132 6.22997 33.8312 6.13503C34.4917 6.06541 35.1648 6.12026 35.8317 6.12237C37.1337 6.1287 37.2033 6.19199 37.2054 7.49579C37.2097 11.3566 37.2054 15.2194 37.2054 19.0802C37.2054 19.4557 37.2054 19.8291 37.2054 20.2468H38.5982H38.5961ZM15.6135 9.44516C15.6135 8.60972 15.6241 7.84389 15.6093 7.07807C15.5966 6.41773 15.9005 6.11183 16.5631 6.12237C17.4051 6.13503 18.2513 6.07385 19.0891 6.13925C19.9923 6.20887 20.2666 5.77427 20.2518 4.82912C18.4581 4.82912 16.6813 4.79959 14.9108 4.86499C14.6808 4.87343 14.2925 5.35022 14.2777 5.62659C14.2081 6.87976 14.2482 8.14136 14.2482 9.44938H15.6156L15.6135 9.44516ZM15.5734 19.0802H14.2967V20.2236H15.5734V19.0802Z" fill="#211421"/>
<path d="M10.9036 39.3755C11.0091 40.5148 10.2938 40.6498 9.36526 40.5907C8.56337 40.5401 7.75515 40.5802 6.86041 40.5802C6.96593 41.9873 6.10706 42.0337 5.09415 41.9916C3.79424 41.9367 2.49223 41.9599 1.19232 41.9852C0.415758 42 0.0105933 41.7215 0.0127035 40.8903C0.0253649 36.1793 0.0232547 31.4683 0.0127035 26.7574C0.0127035 26.0485 0.320798 25.7363 1.03195 25.7405C3.98628 25.7532 6.9406 25.7067 9.89282 25.789C10.3275 25.8017 10.7454 26.3945 11.1716 26.7173C11.1146 26.8291 11.0556 26.9409 10.9986 27.0506C13.1721 27.0506 15.3478 27.0759 17.5213 27.0359C18.2515 27.0232 18.7854 27.2131 19.2496 27.7975C20.425 29.2827 21.6278 30.7489 22.8708 32.1772C23.0691 32.4051 23.5376 32.4789 23.8816 32.481C28.6992 32.5 33.5169 32.4852 38.3346 32.4979C40.4237 32.5021 41.8397 33.8312 41.9895 35.8059C42.0549 36.6878 41.789 37.1477 40.8584 37.3439C35.7031 38.4346 30.5605 39.5802 25.4115 40.7046C23.6959 41.0802 21.9866 41.4852 20.2604 41.8038C19.8362 41.8818 19.3509 41.6941 18.9099 41.5717C18.6841 41.5084 18.4646 41.346 18.2894 41.1793C16.2235 39.2089 13.7271 38.9219 10.9036 39.3776V39.3755ZM16.8587 31.2616C17.7366 32.2004 18.5659 33.0591 19.3614 33.9473C19.9734 34.6308 20.7985 34.8312 21.4063 34.2721C22.033 33.6962 21.8009 32.865 21.2185 32.2067C20.5432 31.443 19.8215 30.7089 19.2475 29.8734C18.4773 28.7489 17.5277 28.3333 16.1581 28.4325C14.4277 28.5591 12.6804 28.462 10.9501 28.462V37.8418C11.2159 37.8671 11.3932 37.9177 11.562 37.8945C14.5037 37.4916 17.0887 38.2194 19.3319 40.2067C19.5957 40.4409 20.195 40.4388 20.598 40.3523C26.0572 39.1856 31.508 37.9873 36.9608 36.7932C38.151 36.5316 39.339 36.2616 40.5081 36C40.4638 34.5527 39.7948 33.8608 38.4105 33.827C36.9714 33.7932 35.528 33.8186 34.0888 33.8186C30.436 33.8186 26.7831 33.8186 23.1556 33.8186C22.4318 35.7637 20.7774 36.5991 19.2918 35.5759C17.9961 34.6835 16.9473 33.4325 15.7614 32.3101C16.1602 31.9283 16.4113 31.6878 16.8587 31.2616ZM5.41701 40.519V27.1308H1.51097V40.519H5.41701ZM6.86041 27.116V39.1814H9.44123V27.116H6.86041Z" fill="#211421"/>
<path d="M9.5637 11.2595C9.98997 11.4642 10.3529 11.6393 10.7138 11.8123C10.6652 12.0042 10.6589 12.1118 10.6146 12.2005C9.80005 13.8313 8.98128 15.4578 8.10553 17.2004C7.70247 17.0169 7.34162 16.8523 6.88159 16.6414C7.78688 14.8228 8.6563 13.0781 9.56159 11.2616L9.5637 11.2595Z" fill="#211421"/>
<path d="M12.7141 16.787C12.3279 16.4136 12.0599 16.1519 11.7307 15.8334C12.2625 15.2764 12.7141 14.8038 13.2311 14.2595C12.7521 13.7363 12.2899 13.2342 11.7877 12.6857C12.0747 12.3798 12.3321 12.1076 12.8238 11.5865C13.4801 12.3397 14.1448 13.0106 14.6766 13.7743C14.837 14.0043 14.7526 14.5908 14.5584 14.8397C14.0456 15.5 13.4105 16.0676 12.712 16.787H12.7141Z" fill="#211421"/>
<path d="M5.8771 15.7933C5.59222 16.0992 5.33899 16.3735 4.93171 16.8102C4.25011 16.0865 3.56217 15.4473 3.00718 14.7089C2.84258 14.4916 2.92066 13.9009 3.11058 13.6456C3.60859 12.9768 4.229 12.3967 4.88318 11.692C5.26935 12.0591 5.55423 12.3291 5.90664 12.6667C5.40651 13.2005 4.96125 13.6751 4.44636 14.2258C4.91272 14.7384 5.37064 15.2384 5.8771 15.7933Z" fill="#211421"/>
<path d="M30.4379 8.12449C30.4527 10.3966 28.6252 12.2511 26.3884 12.2342C24.1895 12.2194 22.3874 10.4051 22.3705 8.18778C22.3536 5.91774 24.1811 4.07175 26.4263 4.08651C28.6442 4.10128 30.4231 5.89242 30.4358 8.12449H30.4379ZM26.3947 10.8355C27.8761 10.8418 29.0895 9.66457 29.1169 8.19833C29.1443 6.73419 27.9563 5.519 26.4707 5.48947C24.9429 5.45993 23.683 6.67723 23.6915 8.17723C23.6999 9.62871 24.9239 10.8312 26.3947 10.8355Z" fill="#211421"/>
</g>
<defs>
<clipPath id="clip0_89_2657">
<rect width="42" height="42" fill="white"/>
</clipPath>
</defs>
</svg>
