<svg width="39" height="46" viewBox="0 0 39 46" fill="none" xmlns="http://www.w3.org/2000/svg">
<g clip-path="url(#clip0_89_2671)">
<path d="M20.6006 23.0171C16.3962 27.9343 10.062 25.6077 8.84785 20.6263C7.94593 20.6263 7.0232 20.7204 6.12359 20.6102C2.6246 20.1807 0.0414019 17.2685 -0.000225275 13.7914C-0.0418524 10.3211 2.48353 7.27112 5.94783 6.82327C7.08333 6.67628 7.5921 6.27207 8.0315 5.2179C10.4597 -0.588084 17.8347 -1.79843 22.0945 2.85003C22.2749 3.04754 22.4437 3.25424 22.4252 3.23357C23.977 2.99702 25.36 2.55376 26.7128 2.63185C29.1156 2.76965 30.7692 4.17751 31.5994 6.41906C31.8283 7.03686 32.1012 7.20911 32.7418 7.23208C36.3033 7.3561 39.0067 10.1328 38.9975 13.5893C38.9882 16.9814 36.2709 19.7512 32.8112 19.9579C32.4319 19.9809 31.907 20.1991 31.7266 20.4953C29.2613 24.503 25.0501 25.5825 20.9891 23.2054C20.8619 23.1296 20.7208 23.0768 20.5983 23.0171H20.6006ZM7.35159 8.16452C4.90946 8.14385 2.85586 9.34731 2.00713 11.3431C1.11446 13.44 1.26478 15.4909 2.78185 17.2708C4.31743 19.0714 6.31322 19.6479 8.61891 19.0645C10.0435 18.7039 10.0504 18.6902 10.3025 20.1463C10.6586 22.2041 12.1688 23.7612 14.2178 24.1815C16.2297 24.5949 18.2533 23.7222 19.398 21.9491C20.1334 20.8077 20.2491 20.7893 21.3129 21.6414C24.4326 24.1402 29.0463 23.0538 30.6027 19.4067C30.9287 18.6396 31.2964 18.387 32.1475 18.449C35.2001 18.6718 37.5706 16.4188 37.5035 13.4583C37.4388 10.5117 34.9342 8.30921 31.9301 8.70195C30.8755 8.83975 30.6142 8.51132 30.4338 7.5628C29.8279 4.39569 26.0884 2.88907 23.5075 4.82057C22.4692 5.59914 22.0737 5.2845 21.447 4.40717C19.7079 1.9773 17.2473 1.077 14.3542 1.64658C11.5328 2.20237 9.70121 3.99377 9.04443 6.77734C8.7831 7.88663 8.40614 8.46769 7.35621 8.16682L7.35159 8.16452Z" fill="#211421"/>
<path d="M12.5668 36.3357C12.5668 34.2112 12.5668 32.2338 12.5668 30.2564C12.5668 29.8728 12.479 29.4571 12.6038 29.1195C12.7264 28.7888 13.0687 28.5408 13.3138 28.256C13.5474 28.5523 13.9637 28.8393 13.9845 29.1494C14.0654 30.3689 14.0192 31.5953 14.0215 32.8195C14.0215 33.9678 14.0261 35.1138 14.0215 36.2622C14.0145 37.693 13.929 37.7803 12.5321 37.7872C11.0289 37.7918 9.52805 37.8055 8.02485 37.7803C7.40507 37.7688 6.99805 37.8698 6.66966 38.5221C6.00131 39.8565 4.50736 40.4329 3.1591 40.0471C1.79003 39.6544 0.876547 38.4739 0.867297 37.0844C0.855733 35.6788 1.76459 34.4639 3.1036 34.0918C4.53974 33.6922 5.95968 34.2067 6.64422 35.5387C6.98649 36.2071 7.39119 36.3747 8.08035 36.354C9.50261 36.3104 10.9249 36.3403 12.5691 36.3403L12.5668 36.3357Z" fill="#211421"/>
<path d="M26.4332 36.331C28.2232 36.331 29.8374 36.3631 31.4447 36.3011C31.7222 36.2896 32.0668 35.9405 32.2402 35.6627C33.1028 34.2594 34.3563 33.6852 35.8456 34.0734C37.1985 34.427 38.1235 35.6236 38.1328 37.0269C38.1397 38.4623 37.1823 39.7002 35.7832 40.0654C34.4372 40.4168 33.082 39.7622 32.2541 38.4899C32.039 38.1568 31.5326 37.8353 31.1464 37.8169C29.5321 37.7411 27.911 37.7526 26.2968 37.7963C25.3717 37.8215 24.9601 37.5 24.9763 36.54C25.0133 34.1698 24.9532 31.7974 25.0225 29.4272C25.0341 29.0276 25.4989 28.6394 25.7556 28.2467C25.9823 28.6302 26.3962 29.0092 26.4078 29.3973C26.4702 31.6458 26.4379 33.8965 26.4379 36.3287L26.4332 36.331Z" fill="#211421"/>
<path d="M20.2609 34.3788C20.2609 35.7913 20.3048 37.206 20.247 38.6162C20.2147 39.4131 20.3904 39.9069 21.1651 40.3364C22.6244 41.1448 23.0222 42.9798 22.2104 44.4359C21.4658 45.7726 19.7359 46.3651 18.3183 45.7703C16.7712 45.1203 15.9548 43.4369 16.6047 41.8981C16.8822 41.2436 17.4488 40.6097 18.05 40.2169C18.5912 39.8633 18.7531 39.5394 18.7508 38.9515C18.73 35.9727 18.7415 32.9939 18.7415 30.0151C18.7415 29.7487 18.6559 29.4364 18.7646 29.2228C18.9473 28.8645 19.2549 28.5682 19.5093 28.2467C19.7614 28.5728 20.2147 28.8898 20.2285 29.2251C20.3025 30.9407 20.2632 32.6609 20.2632 34.3788H20.2609Z" fill="#211421"/>
</g>
<defs>
<clipPath id="clip0_89_2671">
<rect width="39" height="46" fill="white"/>
</clipPath>
</defs>
</svg>
