<svg width="208" height="80" viewBox="0 0 208 80" fill="none" xmlns="http://www.w3.org/2000/svg">
<g clip-path="url(#clip0_365_3324)">
<path d="M57.2302 79.1178C57.2302 79.1178 52.6816 80.2572 43.3859 79.4573C35.2473 78.7577 21.8204 79.02 16.2203 78.6779C10.6202 78.3358 2.29612 78.3667 2.29612 78.3667C1.34 78.3667 0.564289 77.5874 0.564289 76.6254C0.564289 76.6254 0.265342 68.1735 0.564289 55.884C0.863236 43.5945 1.25496 25.4226 0.564289 17.9893C-0.126382 10.5559 0.564289 2.79587 0.564289 2.79587C0.564289 1.83391 1.34 1.05456 2.29612 1.05456C2.29612 1.05456 6.51745 0.25721 15.3596 0.25721C24.2017 0.25721 34.0309 1.05456 44.6718 1.05456H57.9028C58.8589 1.05456 59.6346 1.83391 59.6346 2.79587C59.6346 2.79587 59.8563 19.121 59.6346 27.3774C59.413 35.6339 58.8873 50.8838 59.2764 58.8316C59.6114 65.676 59.6346 76.6254 59.6346 76.6254C59.6346 77.5874 58.1889 79.1203 57.2328 79.1203L57.2302 79.1178Z" stroke="#F9F051" stroke-width="2" stroke-miterlimit="10"/>
<path d="M16.3955 72.1525C16.3955 72.1525 16.5604 70.28 16.3955 62.0622C16.2305 53.8443 16.8851 39.901 16.3955 32.8406C15.6584 22.2255 16.3955 21.6314 16.3955 21.6314L21.9775 16.0602C22.2172 15.821 22.5625 15.8518 22.8924 15.7721C23.8923 15.5303 26.4282 15.6487 28.2374 15.6049C30.5258 15.5509 32.8143 15.5946 34.6029 15.5278C36.2548 15.4686 37.747 15.5663 38.3964 15.6204C38.5794 15.6358 38.7366 15.4918 38.7366 15.3066V5.78465C38.7366 5.66891 38.8319 5.57374 38.9479 5.57374H45.2232C46.1871 5.57374 47.1148 5.95698 47.7952 6.63601L56.5497 15.3734C56.5755 15.3992 56.5755 15.4377 56.5497 15.4635L55.4261 16.5849C55.3719 16.6389 55.2972 16.6698 55.2173 16.6698H47.723C47.6509 16.6698 47.5942 16.7289 47.5942 16.7984V22.3567C47.5942 22.385 47.571 22.4107 47.54 22.4107C47.54 22.4107 44.4733 22.2692 41.8369 22.4107C38.5381 22.5882 36.0254 22.457 32.5154 22.4107C29.1033 22.367 25.2479 22.4107 25.2479 22.4107C25.1139 22.4107 25.0056 22.5136 24.9953 22.6473C24.8794 24.5147 24.1475 36.8633 25.0108 36.7862C26.3638 36.6653 27.8585 36.4441 29.3816 36.5495C33.4973 36.8325 36.0126 36.6138 38.6309 36.5984C40.7029 36.5881 42.2672 36.709 42.8419 36.7604C42.9656 36.7707 43.0455 36.8942 43.0069 37.0125L40.8653 43.4067C40.8241 43.5302 40.7081 43.6125 40.5792 43.6125H25.0494C24.8948 43.6125 24.766 43.7283 24.7505 43.88C24.6938 44.4047 24.5907 45.8451 24.5598 49.3817C24.5237 53.6746 24.8639 55.0506 24.784 60.2308C24.717 64.516 24.784 66.3807 24.784 66.3807" stroke="#38FFE8" stroke-width="2" stroke-miterlimit="10"/>
<path d="M13.6301 10.8877C13.6301 10.8877 13.4523 10.9571 13.0786 11.6259C12.705 12.2946 11.6947 13.4881 10.8881 14.4063C10.4268 14.9336 10.0943 15.6126 10.0943 15.6126C10.0428 15.6821 10.0531 15.7798 10.1175 15.839C10.1175 15.839 10.352 16.3277 10.9551 16.7984C11.5581 17.2691 13.0761 18.6374 13.3003 18.8329C13.5245 19.031 14.21 19.4476 14.21 19.4476C14.277 19.5068 14.3775 19.5042 14.4419 19.4399C14.4419 19.4399 14.8723 18.8586 15.4805 18.3879C16.0887 17.9147 17.3721 16.338 17.8772 15.9573C18.3824 15.5766 19.0395 14.7793 19.0395 14.7793C19.1117 14.7047 19.1014 14.5864 19.0163 14.5246C19.0163 14.5246 18.6736 13.9511 17.6659 13.1846C16.8361 12.5544 15.9264 12.166 15.3027 11.6233C14.679 11.0832 13.8647 10.8517 13.8647 10.8517C13.7899 10.7977 13.6868 10.8157 13.6327 10.8877H13.6301Z" stroke="#F9F051" stroke-miterlimit="10"/>
<path d="M15.9138 14.8024C15.9627 15.2191 15.9318 15.4892 15.6896 15.7953C15.4473 16.1013 14.9989 16.4434 14.5814 16.4949C14.2077 16.5386 13.7206 16.5 13.4294 16.3097C13.0686 16.0705 12.9398 15.6281 12.8857 15.1651C12.8315 14.7098 12.8728 14.2417 13.1588 13.9253C13.3959 13.663 13.8392 13.5164 14.218 13.4727C14.5608 13.4315 14.9834 13.6656 15.2592 13.825C15.6586 14.0565 15.8545 14.3086 15.9138 14.8024Z" stroke="#F9F051" stroke-miterlimit="10"/>
<path d="M55.7047 33.9543C55.7047 33.9543 55.8259 33.7485 55.679 32.8046C55.5321 31.8606 55.6068 29.9109 55.6944 28.3934C55.7434 27.5215 55.5475 26.5981 55.5475 26.5981C55.5475 26.49 55.4599 26.4 55.3517 26.3949C55.3517 26.3949 54.746 26.0939 53.7899 26.0939C52.8338 26.0939 50.2902 25.9113 49.9191 25.8882C49.5454 25.865 48.5506 25.9808 48.5506 25.9808C48.4398 25.9731 48.3419 26.0554 48.329 26.166C48.329 26.166 48.3522 27.0662 48.1177 27.9973C47.8831 28.9284 47.8342 31.4619 47.6306 32.2233C47.427 32.9846 47.3961 34.2732 47.3961 34.2732C47.3806 34.4018 47.4837 34.5124 47.6125 34.5047C47.6125 34.5047 48.3908 34.8056 49.9732 34.7876C51.2746 34.7722 52.4679 34.4558 53.4987 34.5099C54.5296 34.5639 55.5063 34.1678 55.5063 34.1678C55.6197 34.1626 55.7099 34.0675 55.7073 33.9543H55.7047Z" stroke="#F9F051" stroke-miterlimit="10"/>
<path d="M50.4447 31.8554C50.0735 31.4825 49.9009 31.1944 49.9009 30.7083C49.9009 30.2222 50.0813 29.5406 50.4524 29.1702C50.7848 28.8409 51.2925 28.504 51.7281 28.4706C52.2641 28.4294 52.7331 28.7664 53.1429 29.1779C53.5475 29.5843 53.8671 30.0756 53.8284 30.6054C53.7975 31.0452 53.4728 31.5262 53.1352 31.8632C52.8285 32.1667 52.2358 32.2618 51.8389 32.3133C51.2693 32.3904 50.8802 32.2927 50.4447 31.8529V31.8554Z" stroke="#F9F051" stroke-miterlimit="10"/>
<path d="M54.4906 72.3429C54.4906 72.3429 54.6555 72.0445 54.3669 70.6247C54.0783 69.2023 54.0422 66.301 54.0551 64.0376C54.0628 62.7386 53.6994 61.3471 53.6994 61.3471C53.6865 61.1851 53.5525 61.0462 53.3902 61.0282C53.3902 61.0282 52.4624 60.5318 51.0373 60.4598C49.6121 60.3877 45.8005 59.9222 45.2439 59.8605C44.6872 59.7987 43.2079 59.8939 43.2079 59.8939C43.0404 59.8759 42.9038 59.9891 42.8935 60.1537C42.8935 60.1537 42.9966 61.4989 42.7183 62.8724C42.44 64.2459 42.5559 68.0269 42.3137 69.1483C42.0714 70.2697 42.1178 72.1937 42.1178 72.1937C42.1049 72.384 42.2673 72.5563 42.4606 72.5563C42.4606 72.5563 43.6435 73.0656 46.0041 73.1556C47.9447 73.2302 49.7023 72.8496 51.2434 73.0065C52.7845 73.1634 54.2149 72.6464 54.2149 72.6464C54.3849 72.6464 54.5112 72.5126 54.4983 72.3429H54.4906Z" stroke="#F9F051" stroke-miterlimit="10"/>
<path d="M46.4834 68.8139C45.9035 68.2301 45.6201 67.7851 45.584 67.0598C45.5505 66.3344 45.7618 65.3287 46.2901 64.8066C46.7617 64.3385 47.4936 63.8755 48.1405 63.8601C48.9394 63.8395 49.6636 64.3771 50.3053 65.0227C50.9393 65.658 51.4521 66.4193 51.4366 67.2064C51.4212 67.8623 50.9779 68.5567 50.4986 69.0326C50.0656 69.4621 49.1868 69.5573 48.5992 69.6087C47.7539 69.6807 47.1689 69.5058 46.4834 68.8165V68.8139Z" stroke="#F9F051" stroke-miterlimit="10"/>
<path d="M51.8698 13.9999C51.1585 13.5087 50.2668 12.8734 49.1922 12.0709C48.6561 11.6696 48.0711 11.2246 47.4423 10.7359C46.8547 10.273 46.2182 9.77398 45.5327 9.23384L45.4399 9.24412L45.3935 9.24927L45.2981 9.25441C45.1667 9.26213 45.0327 9.26727 44.8961 9.27499C44.6255 9.28785 44.3472 9.30071 44.0611 9.31357C43.7751 9.32386 43.4838 9.33672 43.1823 9.34958C42.9865 9.35473 42.9993 9.35987 42.9401 9.36501C42.8988 9.37016 42.855 9.3753 42.8138 9.38045C42.8215 9.44475 42.8267 9.50905 42.8344 9.57593V9.59907L42.8396 9.67624L42.8447 9.85114C42.8473 9.96688 42.8499 10.0852 42.8524 10.2035C42.8628 10.6768 42.8705 11.1629 42.8808 11.6619C42.8963 12.6599 42.9066 13.7119 42.9066 14.8101C42.8963 16.2171 42.8885 17.6369 42.8782 19.1441C42.3422 19.139 41.8036 19.1338 41.2624 19.1261C40.9299 19.1184 40.5949 19.1133 40.2599 19.1056C39.5898 19.0875 38.9146 19.0721 38.2368 19.0541C36.8812 19.0104 35.5102 18.9641 34.1237 18.9204C31.3559 18.8072 28.5262 18.6889 25.6321 18.5706C24.645 19.2907 23.6477 20.0186 22.6426 20.7543C22.1375 21.1247 21.6324 21.495 21.1221 21.8706C20.867 22.0583 20.6118 22.2461 20.3567 22.4339C20.0655 22.6499 19.7743 22.8685 19.4805 23.0846C19.4805 24.3886 19.4805 25.703 19.4805 27.0302C19.4882 28.3111 19.4934 29.6023 19.5011 30.9012C19.5191 32.2027 19.5372 33.5119 19.5578 34.8314C19.5732 35.4898 19.5861 36.1534 19.6016 36.817C19.6274 37.6864 19.6531 38.5609 19.6789 39.438C20.2691 39.438 20.8721 39.438 21.4752 39.438H38.4868" stroke="#F9F051" stroke-miterlimit="10"/>
<path d="M19.6892 39.4714C20.0422 41.4571 20.5293 45.2947 20.4417 51.0845C20.385 54.904 20.0912 58.9011 19.7587 63.073C19.5964 65.159 19.4289 67.2887 19.2588 69.457C19.1789 70.5424 19.1042 71.6381 19.0346 72.7441C19.0037 73.2971 18.9701 73.8527 18.9366 74.4108C18.9212 74.6912 18.9083 74.969 18.8928 75.2493V75.3008C18.8903 75.3214 18.8877 75.3368 18.8877 75.3368L18.8825 75.3676L18.8748 75.4242L18.8593 75.5297L18.7073 75.5143H18.6738C18.6738 75.5143 18.6738 75.5091 18.648 75.5091H18.5758L18.2924 75.5014C17.9109 75.4937 17.5295 75.486 17.143 75.4783C16.3724 75.4654 15.5915 75.4577 14.8081 75.4577H3.49707" stroke="#F9F051" stroke-miterlimit="10"/>
<path d="M19.3154 75.6094C21.774 75.4602 25.3794 75.2931 30.16 75.1927C32.5516 75.1439 35.2344 75.1104 38.2187 75.1053C39.7108 75.1053 41.2777 75.1053 42.9193 75.1207C43.7414 75.1284 44.579 75.1387 45.4398 75.1465C45.6537 75.1542 45.8702 75.1464 46.0866 75.1336C46.3031 75.1233 46.5222 75.113 46.7412 75.1027C47.1793 75.0821 47.6226 75.0616 48.0684 75.041C49.4421 74.9844 50.8286 74.9252 52.2357 74.8687C52.9392 74.8429 53.6505 74.8172 54.367 74.7889C54.7252 74.7761 55.086 74.7632 55.4493 74.7503L55.7225 74.7401H55.805H55.8359H55.9673C55.9545 72.0779 55.9442 69.3798 55.9313 66.6405C55.9313 63.7083 55.9364 60.7324 55.939 57.7179C55.957 51.6246 55.9751 45.3693 55.9931 38.9493C54.5448 38.6226 53.0861 38.296 51.6172 37.9668C50.9136 37.8099 50.21 37.653 49.5013 37.4935C49.1483 37.4138 48.7926 37.3366 48.437 37.2569C47.9087 37.1437 47.3804 37.0305 46.8495 36.9148C46.8031 39.9627 46.7567 43.0492 46.7103 46.1666C46.6948 47.6379 46.6794 49.1142 46.6665 50.6009C46.6588 52.3062 46.651 54.0218 46.6433 55.7425C47.6741 55.7091 48.7153 55.6757 49.759 55.6422L53.1222 55.5316V40.1299L49.2591 40.1016V49.2557" stroke="#F9F051" stroke-miterlimit="10"/>
<path d="M27.8589 66.5016V47.4192C27.8589 47.0823 28.1321 46.8096 28.4697 46.8096H40.0152C40.4172 46.8096 40.6749 47.234 40.4894 47.5916L31.9539 63.9424C31.7813 64.2742 31.2787 64.1662 31.2581 63.7932L30.4695 50.0196C30.4489 49.6698 30.7272 49.3766 31.0777 49.3766H35.4279C35.8171 49.3766 36.0516 49.8036 35.8454 50.1302L33.3121 54.1504" stroke="#F9F051" stroke-miterlimit="10"/>
<path d="M15.1226 8.83773L20.3309 5.25994L37.1802 5.57374V13.4804H22.7689L23.957 7.19673L35.603 7.34077L34.8324 10.7591L27.1861 10.4684" stroke="#F9F051" stroke-miterlimit="10"/>
<path d="M21.2252 6.97296L16.4858 9.78941L20.1763 12.8322L21.6839 8.72199L19.0836 9.90258" stroke="#F9F051" stroke-miterlimit="10"/>
<path d="M11.6639 22.0969C12.1201 26.7961 12.8056 35.8859 13.0195 49.6441C13.0762 53.245 13.0968 56.9128 13.0917 60.663C13.0839 62.538 13.0788 64.4311 13.071 66.3447C13.0582 68.3587 13.0427 70.3958 13.0298 72.456C12.1897 72.438 11.3469 72.4175 10.4991 72.3995C9.75428 72.3789 9.00691 72.3609 8.25697 72.3403C6.73646 72.2991 5.20049 72.258 3.64648 72.2168C3.74442 68.5413 3.84492 64.8066 3.94801 61.0076C4.03048 57.381 4.11552 53.6977 4.20057 49.9579H4.4557L5.12833 49.9244C5.59222 49.9039 6.0561 49.8833 6.52256 49.8601C6.98902 49.8396 7.45548 49.8164 7.92194 49.7958L8.53272 49.7675H8.71312L8.70281 49.9347V49.9759L8.69766 50.1354L8.68992 50.4646C8.68219 50.9044 8.67188 51.3468 8.66415 51.7866C8.64869 52.6714 8.63323 53.5562 8.62034 54.4462C8.59972 56.2261 8.57653 58.0163 8.55591 59.8193L8.48375 68.2661L6.69007 67.8237L6.85501 53.9524" stroke="#F9F051" stroke-miterlimit="10"/>
<path d="M2.96083 23.4087C2.96083 23.4087 3.167 29.5637 3.25978 32.339C3.35255 35.1143 3.47368 38.705 3.54068 40.7601C3.60769 42.8152 3.69273 45.2998 3.69273 45.2998C3.70046 45.5364 3.89633 45.7268 4.13342 45.7268H9.36499C9.60982 45.7268 9.80568 45.5287 9.80568 45.287C9.80568 45.287 9.91392 45.3487 9.80568 40.7626C9.69744 36.1766 9.5557 34.5407 9.80568 31.2304C10.0557 27.9201 9.80568 23.3958 9.80568 23.3958C9.80568 23.1515 9.60724 22.956 9.36499 22.956H3.40152C3.15154 22.956 2.95052 23.1618 2.96083 23.4112V23.4087Z" stroke="#F9F051" stroke-miterlimit="10"/>
<path d="M5.18768 28.4654L5.44282 40.7601H7.57668V28.1568C7.57668 28.0256 7.47102 27.9201 7.33958 27.9201H5.72372C5.4222 27.9201 5.17995 28.1671 5.18768 28.468V28.4654Z" stroke="#F9F051" stroke-miterlimit="10"/>
<path d="M38.3503 67.0392L22.9674 67.7748C22.8411 67.78 22.7432 67.8828 22.7432 68.0089V73.6701C22.7432 73.7832 22.8334 73.8733 22.9468 73.8733H38.4379C38.5487 73.8733 38.6415 73.7832 38.6415 73.6701V67.317C38.6415 67.1575 38.5075 67.0315 38.3503 67.0392Z" stroke="#F9F051" stroke-miterlimit="10"/>
<path d="M35.1777 69.2512L26.2119 69.5161V71.6484H35.1777V69.2512Z" stroke="#F9F051" stroke-miterlimit="10"/>
<path d="M2.66699 3.06851C2.84481 4.50889 3.05872 6.57686 3.23654 9.30328C3.32416 10.6665 3.40405 12.1943 3.4659 13.8919C3.49683 14.7407 3.5226 15.6306 3.54322 16.5643C3.55095 17.0299 3.56126 17.5083 3.56899 17.997C3.57156 18.2362 3.57672 18.478 3.5793 18.7223C3.5793 18.766 3.58445 18.8098 3.58703 18.8535C3.63084 18.8535 3.67723 18.8509 3.72877 18.8483C4.01225 18.8483 4.3112 18.8483 4.6153 18.8483C5.45802 18.8535 6.3059 18.8561 7.16923 18.8612C7.59962 18.8663 8.03515 18.8715 8.47584 18.8766H8.64077L8.72324 18.8792H8.74644L8.8186 18.8869L8.98096 18.8998L8.95003 18.7686L8.93199 18.6966L8.92168 18.658L8.87787 18.514C8.75675 18.1204 8.63562 17.7269 8.51192 17.3282C8.2439 16.4511 7.97072 15.5612 7.69239 14.6532L8.1872 14.0771L8.51965 13.699C8.74128 13.4469 8.96549 13.1949 9.18713 12.9402C9.63555 12.4335 10.0865 11.9268 10.5375 11.415C11.4344 10.4093 12.3415 9.39331 13.259 8.36704C13.3466 6.24763 13.4368 4.09478 13.527 1.91107C12.3286 1.94194 11.1251 1.97537 9.90872 2.00624C9.32114 2.02167 8.73097 2.03967 8.13824 2.05511C7.84187 2.06282 7.5455 2.07311 7.24655 2.08083C6.83163 2.09883 6.41414 2.11427 5.99664 2.13227C5.98376 2.62869 5.97087 3.1251 5.96056 3.62152C5.95541 3.835 5.94768 4.04848 5.94252 4.26454C5.93737 4.56805 5.93221 4.87156 5.92448 5.17506C6.47083 5.24194 7.01976 5.30624 7.57127 5.37312C7.98618 5.42456 8.4011 5.476 8.8186 5.53001L9.44484 5.60718L9.75925 5.64576L9.81079 5.65347L9.83399 5.65862L9.88037 5.66633L10.1948 5.72292L10.0221 5.89011L9.9448 5.9647L9.90872 6.00071L9.75925 6.15761C9.35722 6.58715 8.95518 7.01926 8.55058 7.45137C7.74909 8.32331 6.93987 9.19783 6.12808 10.0801L5.7312 10.5147V15.4583H5.06888L5.17454 6.14989" stroke="#F9F051" stroke-miterlimit="10"/>
<path d="M15.2695 4.89213C15.5298 4.59891 15.8777 4.23882 16.3287 3.82214C16.5555 3.6138 16.8081 3.3926 17.089 3.15854C17.2307 3.04279 17.3776 2.92448 17.5322 2.79844C17.6998 2.66727 17.8003 2.57981 18.1276 2.35861C18.2178 2.3509 18.3105 2.34575 18.4033 2.33804L18.4703 2.33289L18.5141 2.32775L18.6043 2.31746C18.7255 2.3046 18.8492 2.29431 18.9754 2.28145C19.228 2.2583 19.4934 2.23773 19.7718 2.22229C20.3259 2.18886 20.9263 2.17085 21.568 2.17085C26.9156 2.17085 32.8584 3.46204 39.2935 3.46204H46.0456" stroke="#F9F051" stroke-miterlimit="10"/>
<path d="M45.7905 3.35144C47.3703 2.93476 50.4268 2.32775 55.0682 2.22487C55.4367 2.21972 55.8052 2.21458 56.1815 2.20943C56.7511 2.20686 57.3335 2.20172 57.9314 2.19914C57.9391 2.57724 57.9494 2.95791 57.9572 3.33858L57.9623 3.59065V3.75012V4.07163C57.9572 4.50117 57.952 4.93071 57.9494 5.3654C57.9365 6.23477 57.9108 7.11442 57.8824 8.00694C57.8489 8.89689 57.818 9.7997 57.7845 10.7128C57.7664 11.1655 57.7484 11.6207 57.7304 12.0786C57.7097 12.503 57.6891 12.8656 57.6659 13.1614C57.367 12.8296 57.1093 12.5364 56.8928 12.2818L56.5861 11.9217L56.1403 11.4304C55.545 10.7771 54.9393 10.1186 54.3208 9.46275C53.7023 8.80687 53.0735 8.15098 52.4292 7.49767C52.0066 7.07327 51.5788 6.6463 51.1484 6.21419L51.0736 6.14217L54.4986 5.9364L54.8801 8.25129" stroke="#F9F051" stroke-miterlimit="10"/>
<path d="M49.1895 22.9534V18.2362H55.7508L51.5707 22.9534V19.4914H52.9624" stroke="#F9F051" stroke-miterlimit="10"/>
<path d="M40.7519 57.669C41.1488 57.2909 41.5817 56.8768 42.0662 56.4164C42.3111 56.1875 42.5662 55.9457 42.8394 55.6885C43.1228 55.4262 43.4192 55.1484 43.7362 54.8552C43.3909 54.0964 43.0146 53.2759 42.6126 52.3885C42.4244 51.9744 42.2286 51.5423 42.0276 51.0973C41.8755 50.7681 41.7157 50.4286 41.5508 50.0736C41.4503 50.39 41.3472 50.7141 41.239 51.0485C41.1926 51.1976 41.1436 51.3494 41.0947 51.5037C41.0199 51.7275 40.9426 51.9564 40.8653 52.1853C40.5509 53.1061 40.2236 54.0681 39.8782 55.0764C39.5278 56.0821 39.1618 57.134 38.7804 58.2323C38.6026 58.7365 38.4222 59.2509 38.2392 59.7756C38.1902 59.9351 38.1387 60.0997 38.0897 60.2669C38.1877 60.2077 38.2882 60.146 38.3887 60.0868L38.5227 60.0045L38.5871 59.9659L38.85 59.8193C39.5587 59.4284 40.288 59.0271 41.0328 58.6156C42.3961 57.8722 43.8238 57.0955 45.3134 56.2827C45.2567 56.0152 45.2 55.7348 45.1407 55.4519C44.8057 53.816 44.4681 52.1699 44.1254 50.498C43.7826 48.7824 43.4347 47.0411 43.0765 45.2509C43.445 43.5405 43.8135 41.8172 44.1872 40.081C44.3728 39.2322 44.5583 38.3809 44.7439 37.5269C44.9294 36.673 45.133 35.8165 45.2619 34.9445C45.5557 33.2058 45.852 31.4542 46.1484 29.6897C46.2979 28.8075 46.4499 27.9201 46.602 27.0302C46.7411 26.2251 46.8829 25.4175 47.022 24.6047C40.7313 24.3989 34.2885 24.188 27.6601 23.9694C27.6266 25.6773 27.5931 27.3929 27.5596 29.1213C27.5441 29.9521 27.5286 30.7855 27.5132 31.6214C27.4977 32.5834 27.4823 33.5505 27.4668 34.5201C30.1573 34.6256 32.871 34.7311 35.6054 34.8391C36.9094 34.888 38.2186 34.9342 39.5329 34.9831C41.0225 35.032 42.5172 35.0809 44.0171 35.1297C44.4475 32.5139 44.8805 29.8775 45.3186 27.2231C43.7465 27.1331 42.1667 27.043 40.5818 26.9505L30.3661 26.3769L30.2707 32.8046H41.5044L40.9478 28.6969H34.4353" stroke="#F9F051" stroke-miterlimit="10"/>
<path d="M80.3341 28.2005V40.9864H72.8682V6.24249H93.1914V12.9016H80.3341V21.5439H92.1296V28.2031H80.3341V28.2005Z" fill="#F9F051"/>
<path d="M108.185 28.9953H107.213V40.989H99.7476V6.24249H110.925C114.783 6.24249 117.684 7.21988 119.628 9.17468C121.571 11.1295 122.542 13.9434 122.542 17.6189C122.542 23.2929 120.318 26.8501 115.87 28.2905L122.496 40.989H113.705L108.183 28.9953H108.185ZM110.925 22.2924C112.043 22.2924 113.015 21.8808 113.839 21.0578C114.664 20.2347 115.076 19.0875 115.076 17.6189C115.076 16.1502 114.664 14.9953 113.839 14.1568C113.015 13.3183 112.043 12.8991 110.925 12.8991H107.213V22.2898H110.925V22.2924Z" fill="#F9F051"/>
<path d="M128.217 17.8401C128.217 13.8713 129.196 10.8285 131.155 8.7117C133.114 6.59486 136.021 5.53773 139.881 5.53773C143.742 5.53773 146.641 6.59486 148.584 8.7117C150.527 10.8285 151.499 13.8713 151.499 17.8401V29.3914C151.499 33.3601 150.527 36.3952 148.584 38.4966C146.641 40.598 143.739 41.65 139.881 41.65C136.023 41.65 133.114 40.6006 131.155 38.4966C129.196 36.3952 128.217 33.3601 128.217 29.3914V17.8401ZM144.033 16.9141C144.033 15.4455 143.621 14.2983 142.796 13.4752C141.971 12.6522 141 12.2406 139.881 12.2406C138.763 12.2406 137.783 12.6522 136.943 13.4752C136.103 14.2983 135.683 15.4455 135.683 16.9141V30.2736C135.683 31.7448 136.103 32.8972 136.943 33.7357C137.783 34.5742 138.763 34.9934 139.881 34.9934C141 34.9934 141.971 34.5742 142.796 33.7357C143.621 32.8972 144.033 31.7448 144.033 30.2736V16.9141Z" fill="#F9F051"/>
<path d="M173.521 6.24249H180.986V40.989H174.448L166.673 25.4689L165.745 20.2218H165.614V40.989H158.148V6.24249H164.73L172.418 21.5876L173.389 26.0862H173.521V6.24249Z" fill="#F9F051"/>
<path d="M201.24 12.9016V40.989H193.774V12.9016H187.058V6.24249H208V12.9016H201.24Z" fill="#F9F051"/>
<path d="M79.1592 63.3534V69.4698H91.2228V75.3548H72.603V44.8446H90.8362V50.6909H79.1592V57.4658H89.9445V63.3508H79.1592V63.3534Z" fill="#F9F051"/>
<path d="M110.716 44.8471H117.272V75.3574H111.531L104.704 61.7278L103.889 57.1212H103.773V75.3574H97.2173V44.8471H102.998L109.747 58.3198L110.6 62.2679H110.716V44.8446V44.8471Z" fill="#F9F051"/>
<path d="M133.426 75.3548H123.612V44.8446H133.426C136.815 44.8446 139.361 45.7679 141.067 47.6121C142.773 49.4589 143.629 52.1236 143.629 55.6062V64.5494C143.629 68.0346 142.776 70.7044 141.067 72.5641C139.361 74.4237 136.812 75.3522 133.426 75.3522V75.3548ZM133.426 69.4698C134.408 69.4698 135.261 69.1097 135.987 68.387C136.712 67.6642 137.072 66.6585 137.072 65.3673V54.8372C137.072 53.546 136.709 52.5326 135.987 51.7969C135.263 51.0613 134.41 50.6935 133.426 50.6935H130.168V69.4724H133.426V69.4698Z" fill="#F9F051"/>
<path d="M155.906 75.3548H149.543V70.2055H155.906V75.3548Z" fill="#F9F051"/>
<path d="M168.763 66.4116V75.3548H162.207V44.8446H172.021C175.41 44.8446 177.956 45.7679 179.662 47.6121C181.368 49.4589 182.224 52.1236 182.224 55.6062C182.224 59.0888 181.371 61.7612 179.662 63.6209C177.956 65.4805 175.407 66.409 172.021 66.409H168.763V66.4116ZM172.021 60.5266C173.003 60.5266 173.856 60.1665 174.583 59.4438C175.307 58.721 175.668 57.7153 175.668 56.4241V54.8372C175.668 53.546 175.304 52.5326 174.583 51.7969C173.858 51.0613 173.005 50.6935 172.021 50.6935H168.763V60.5266H172.021Z" fill="#F9F051"/>
<path d="M194.228 63.3534V69.4698H206.292V75.3548H187.672V44.8446H205.905V50.6909H194.228V57.4658H205.013V63.3508H194.228V63.3534Z" fill="#F9F051"/>
</g>
<defs>
<clipPath id="clip0_365_3324">
<rect width="208" height="80" fill="white"/>
</clipPath>
</defs>
</svg>
