<svg width="52" height="44" viewBox="0 0 52 44" fill="none" xmlns="http://www.w3.org/2000/svg">
<path d="M14.143 35.6048C14.4107 36.0788 14.6467 36.513 14.8985 36.9386C15.3337 37.6741 15.7667 38.411 16.2206 39.1359C17.0418 40.4463 16.9335 41.3111 15.6736 42.2236C14.6871 42.9385 13.5513 43.357 12.2993 43.3748C11.5581 43.3854 10.9585 43.1119 10.5904 42.4559C9.76563 40.9864 8.95163 39.5111 8.13547 38.0365C7.41673 36.7389 6.69655 35.4413 5.99008 34.1373C5.87029 33.9163 5.75267 33.8737 5.50876 33.9391C3.37635 34.5118 0.703453 33.367 0.296456 30.8429C0.0936796 29.5865 0.482636 28.4338 1.33055 27.451C1.96774 26.7127 2.76225 26.179 3.66861 25.8393C5.14506 25.2857 6.41151 24.4223 7.54374 23.3685C9.76274 21.3027 11.9825 19.2369 14.1459 17.1157C16.7178 14.5929 19.2348 12.0148 21.7663 9.45153C22.3941 8.81622 22.9815 8.1525 23.4289 7.36512C23.9622 6.42638 24.8101 6.09736 25.7612 6.35603C26.3327 6.51166 26.6553 6.94017 26.8985 7.42197C27.2939 8.20508 27.6583 9.00383 28.0307 9.79902C28.5034 10.8088 28.9789 11.8172 29.4357 12.8334C29.5901 13.1774 29.8023 13.3252 30.2013 13.3365C31.1856 13.3642 32.0891 13.6933 32.8677 14.2788C33.5735 14.8097 33.9762 15.5658 34.0931 16.4185C34.1443 16.7952 34.044 17.2336 33.8823 17.5861C33.6226 18.1525 33.2805 18.6876 32.9219 19.2013C32.7227 19.4863 32.6642 19.6903 32.8317 20.0257C33.8289 22.0197 34.8046 24.0251 35.7658 26.0362C36.0876 26.7098 36.0191 27.3935 35.6316 28.0352C35.2188 28.7167 34.057 28.9661 33.3722 28.4203C32.8562 28.0089 32.3698 27.947 31.7406 27.9982C29.1925 28.205 26.638 28.3322 24.0884 28.5234C22.6185 28.6335 21.1464 28.7614 19.6887 28.9696C18.4143 29.1516 17.158 29.455 15.8951 29.7087C15.7472 29.7385 15.605 29.7975 15.4946 29.8316C15.9608 30.6147 16.4313 31.363 16.8599 32.1334C17.4986 33.2789 17.2294 34.0933 16.0322 34.6987C15.4261 35.005 14.8062 35.2864 14.1423 35.6034L14.143 35.6048ZM18.7794 14.0038C18.5788 14.1829 18.4215 14.3094 18.2815 14.4508C17.3578 15.3824 16.4616 16.3418 15.5119 17.2471C13.1551 19.4955 10.7737 21.7184 8.40536 23.9547C7.28035 25.0171 6.05647 25.9431 4.66518 26.6466C4.04602 26.9593 3.42254 27.2684 2.83225 27.628C2.55154 27.7985 2.34299 28.0842 2.04423 28.3734C2.67349 28.4843 2.77235 28.9213 2.92967 29.3157C3.29048 30.2175 3.63325 31.1278 4.0352 32.0111C4.13911 32.2385 4.41549 32.4972 4.64858 32.537C5.1198 32.6173 5.64803 32.6628 6.094 32.5313C6.90438 32.2918 7.68807 31.9443 8.45515 31.5848C9.98283 30.8684 11.4853 30.0988 13.0122 29.3804C13.9828 28.9235 14.8812 28.3848 15.7111 27.6976C16.585 26.9742 17.5772 26.4078 18.6892 26.0838C19.2168 25.9303 19.5862 26.0475 19.8489 26.5166C20.0206 26.8235 20.1087 27.1739 20.2494 27.4986C20.2898 27.591 20.388 27.7339 20.4515 27.7296C20.7156 27.7118 20.9761 27.6472 21.2842 27.591C21.0143 26.8612 20.7892 26.1875 20.5186 25.5323C19.7269 23.6158 18.9115 21.7084 18.117 19.7933C17.6999 18.7885 17.6696 18.7785 16.6687 19.2319C16.3952 19.3563 16.0755 19.4209 15.7739 19.4295C15.6252 19.4337 15.3921 19.276 15.3423 19.1402C15.2926 19.0052 15.3727 18.7458 15.4881 18.6471C15.6786 18.4857 15.9341 18.3777 16.1802 18.3052C16.5359 18.2008 16.9097 18.1603 17.2705 18.0722C17.8962 17.9187 18.1062 17.9862 18.4583 18.5106C18.5435 18.6378 18.6091 18.7792 18.6712 18.9199C19.3705 20.4997 20.0935 22.0694 20.7545 23.6641C21.1565 24.6327 21.4675 25.6382 21.8052 26.6317C21.8723 26.8299 21.842 27.0616 21.9171 27.2556C21.9625 27.3721 22.1227 27.5221 22.2331 27.5235C22.5232 27.5271 22.8148 27.461 23.1027 27.407C23.12 27.4034 23.1272 27.2521 23.1085 27.1767C23.0457 26.9252 22.9981 26.6637 22.8927 26.4284C21.7576 23.8986 20.6124 21.3723 19.4708 18.8453C19.1468 18.1283 18.708 17.5065 18.0138 17.0858C17.9034 17.019 17.7923 16.9259 17.7302 16.8172C17.6357 16.6523 17.5837 16.464 17.5137 16.2856C17.7381 16.2316 17.9604 16.1563 18.1884 16.1343C18.2924 16.1243 18.4266 16.1975 18.5124 16.2721C18.8336 16.5514 19.2146 16.8001 19.4368 17.1448C19.9752 17.9798 20.4962 18.8354 20.9183 19.7308C22.0275 22.0865 23.2882 24.3804 24.0293 26.8918C24.0589 26.9927 24.1029 27.0964 24.1657 27.1796C24.2183 27.2485 24.3122 27.3366 24.3836 27.3331C24.6939 27.3196 25.002 27.2762 25.3592 27.2378C25.2546 26.9685 25.1954 26.7894 25.1175 26.6182C24.4572 25.1614 23.7702 23.7153 23.1352 22.2478C22.008 19.6434 20.6614 17.1491 19.2961 14.6626C19.1698 14.4323 18.9692 14.2419 18.7794 14.0024V14.0038ZM22.1458 10.5367C21.8709 10.8237 21.6494 11.0533 21.43 11.2849C21.2207 11.506 21.212 11.7376 21.3751 11.9942C21.5656 12.294 21.7511 12.5982 21.9142 12.9137C22.2187 13.5035 22.5074 14.1012 22.7996 14.6974C23.7031 16.5379 24.5965 18.3834 25.5093 20.2197C26.3089 21.8292 26.8862 23.549 27.9636 25.0207C27.9982 25.0683 28.0235 25.123 28.0487 25.177C28.2428 25.5927 28.079 25.8699 27.6186 25.8379C27.4216 25.8244 27.1893 25.7263 27.0514 25.5906C26.8624 25.4037 26.7231 25.1557 26.6062 24.9127C26.1638 23.9938 25.7482 23.0622 25.3058 22.1433C24.0105 19.4501 22.7101 16.7596 21.4047 14.0706C21.1161 13.4765 20.7986 12.8967 20.4587 12.2429C20.1967 12.5158 19.9846 12.7346 19.7738 12.9549C19.6295 13.1056 19.6483 13.2456 19.7428 13.4318C21.2914 16.486 22.8494 19.5361 24.3619 22.6074C25.0475 23.9995 25.6378 25.4378 26.2699 26.8555C26.3572 27.0509 26.4619 27.1916 26.7209 27.1774C27.7392 27.1213 28.7581 27.0815 29.777 27.0318C29.878 27.0268 29.9776 26.9962 30.1645 26.9607C29.9358 26.4505 29.7561 25.9758 29.5165 25.5316C29.0951 24.7478 28.5993 24.0016 28.2032 23.2072C27.2239 21.2437 26.2678 19.2689 25.3304 17.2855C24.3526 15.2176 23.4094 13.134 22.4475 11.0583C22.3746 10.9005 22.2736 10.7555 22.1458 10.5367ZM25.2546 7.29264C24.5719 7.28482 24.1924 7.84551 24.4305 8.3465C24.8938 9.32148 25.3477 10.3007 25.8254 11.2686C27.0745 13.8006 28.3432 16.3233 29.5887 18.8567C30.8977 21.518 32.1836 24.1907 33.4984 26.8484C33.6276 27.1099 33.8715 27.3316 34.1032 27.5242C34.3045 27.6919 34.5246 27.618 34.7079 27.4262C35.011 27.1078 34.9229 26.7731 34.7649 26.4384C34.2237 25.29 33.6767 24.1452 33.1326 22.9982C31.8055 20.2005 30.4813 17.402 29.1528 14.605C28.359 12.9343 27.5587 11.2665 26.7628 9.5972C26.4922 9.02941 26.2331 8.45665 25.956 7.89241C25.7929 7.56126 25.5685 7.28908 25.2553 7.29264H25.2546ZM31.6756 27.1035C32.2031 27.1064 32.3381 26.8797 32.1468 26.4952C31.9628 26.1243 31.7839 25.7505 31.6136 25.3724C31.3559 24.7997 31.1293 24.212 30.8515 23.6492C29.6955 21.3098 28.5142 18.9832 27.3632 16.641C26.2288 14.3314 25.1218 12.0077 23.9975 9.69314C23.9052 9.5034 23.7839 9.3229 23.649 9.16017C23.5963 9.09692 23.4541 9.04647 23.3784 9.07063C23.094 9.16159 22.8956 9.664 23.0168 9.93262C23.5617 11.14 24.0913 12.3544 24.6564 13.5526C25.6868 15.7399 26.6906 17.9414 27.7947 20.0932C28.7198 21.8968 29.715 23.6634 30.4972 25.5366C30.6776 25.9687 30.9417 26.3723 31.2123 26.7589C31.3314 26.9287 31.5616 27.0225 31.6756 27.1035ZM9.90129 32.1469C10.9065 33.8822 11.8764 35.5692 12.86 37.2485C13.4279 38.2185 14.0138 39.1785 14.6034 40.1357C14.7752 40.4143 14.6416 40.6062 14.4692 40.7988C14.2924 40.9963 14.0831 40.9864 13.8948 40.8307C13.7504 40.7113 13.6068 40.5721 13.5152 40.4129C13.1493 39.7747 12.8051 39.1252 12.4508 38.4807C11.4448 36.653 10.4382 34.8252 9.42791 32.9989C9.3543 32.8653 9.27276 32.6741 9.15585 32.64C8.97472 32.5867 8.75463 32.628 8.56195 32.6734C8.5266 32.682 8.49917 32.92 8.54247 33.0209C8.79504 33.6072 9.03318 34.2041 9.34492 34.7598C10.4108 36.6643 11.5206 38.5454 12.5771 40.4555C12.8527 40.9537 12.992 41.5243 13.2251 42.1447C13.8486 41.8476 14.5089 41.5918 15.1064 41.2337C15.7782 40.8314 15.7926 40.5586 15.4145 39.8835C13.9301 37.2328 12.4558 34.5772 10.9772 31.923C10.9173 31.815 10.8517 31.7098 10.7723 31.5755C10.4569 31.7823 10.1806 31.9635 9.90201 32.1462L9.90129 32.1469ZM6.84954 33.4985C6.97871 33.7834 7.09128 34.0833 7.24499 34.3619C8.53381 36.6984 9.82696 39.0328 11.1302 41.3623C11.2673 41.6067 11.4521 41.8391 11.6621 42.026C11.9305 42.2648 12.2567 42.4083 12.6767 42.2477C12.6009 42.1376 12.5396 42.0537 12.484 41.967C12.1138 41.3886 11.7277 40.8201 11.3799 40.2288C10.9895 39.5644 10.6337 38.8801 10.2635 38.2035C9.43945 36.6956 8.60453 35.1933 7.79847 33.6761C7.51704 33.1467 7.37199 33.0927 6.84882 33.4992L6.84954 33.4985ZM32.0725 18.4232C32.2132 18.3244 32.2637 18.2939 32.3085 18.2569C33.0316 17.6508 33.2329 16.653 32.8014 15.8138C32.3756 14.9845 31.0723 14.3271 30.2201 14.5162C30.8306 15.8045 31.4404 17.0922 32.0718 18.4239L32.0725 18.4232ZM14.2801 33.7323C14.2808 33.9625 14.2563 34.2183 14.5818 34.1274C14.9815 34.0158 15.3893 33.8943 15.753 33.7024C16.2141 33.4594 16.2963 33.1318 16.0755 32.6514C15.9218 32.3181 15.7335 32.0005 15.5523 31.6807C15.2254 31.1051 15.0299 31.0397 14.3876 31.2778C14.3205 31.3026 14.2534 31.3296 14.187 31.3581C13.9056 31.4789 13.7923 31.6466 13.9049 31.9728C14.104 32.5498 14.4093 33.1112 14.2801 33.7316V33.7323ZM3.13317 32.655C3.16925 32.6294 3.20605 32.6038 3.24213 32.5782C3.06317 32.2257 2.8741 31.8782 2.70813 31.5201C2.30618 30.6517 1.68919 29.8437 1.92733 28.77C1.32694 29.3711 1.179 30.4733 1.59105 31.3041C1.91723 31.9621 2.36536 32.5015 3.13244 32.6557L3.13317 32.655ZM15.8612 28.2953C15.8691 28.3358 15.8771 28.3763 15.885 28.4168C15.9875 28.4281 16.0921 28.4594 16.191 28.4466C17.1392 28.3272 18.0874 28.2071 19.0335 28.0707C19.3964 28.0188 19.351 27.731 19.3026 27.4873C19.237 27.1554 18.988 26.9714 18.7181 27.0815C17.7598 27.4723 16.8123 27.8881 15.8605 28.2945L15.8612 28.2953ZM11.8302 31.3588C11.8966 31.5485 11.9211 31.6807 11.9853 31.7908C12.4587 32.5967 12.9364 33.4004 13.4243 34.1977C13.4741 34.2795 13.6003 34.3157 13.6913 34.3725C13.6985 34.2596 13.7483 34.1288 13.7064 34.0371C13.2821 33.1012 12.847 32.1696 12.3996 31.2437C12.3671 31.1761 12.2004 31.1143 12.1239 31.1378C12.0092 31.1733 11.9197 31.2863 11.8295 31.3588H11.8302Z" fill="#211421"/>
<path d="M49.3423 17.6579C49.3026 15.1167 49.0017 12.6053 48.1841 10.1899C47.6594 8.64002 46.7625 7.27775 45.6223 6.07253C44.4843 4.86872 43.194 3.84613 41.8164 2.93368C40.8047 2.26356 39.7028 1.76825 38.458 1.66308C38.0943 1.63252 37.8792 1.41933 37.893 1.13792C37.9081 0.825957 38.1924 0.501911 38.5359 0.543838C39.1233 0.615611 39.7194 0.720074 40.2772 0.90839C42.4507 1.64105 44.2245 2.97419 45.8265 4.56315C47.2734 5.99862 48.4713 7.6018 49.2275 9.48709C49.8387 11.0107 50.3958 12.5527 50.7198 14.1723C51.1651 16.3944 51.1838 18.5959 50.6231 20.8024C50.2652 22.2123 49.9636 23.6357 49.6215 25.0499C49.5616 25.2979 49.4267 25.5281 49.3264 25.7662C49.2347 25.9836 49.1546 26.206 49.0493 26.4164C48.9187 26.6779 48.796 26.9508 48.617 27.1782C48.4474 27.3928 48.1913 27.5079 47.9156 27.3281C47.6414 27.149 47.5166 26.8875 47.5894 26.5649C47.6234 26.4171 47.6869 26.2714 47.7626 26.1385C48.5882 24.6896 48.9483 23.1042 49.1279 21.4768C49.2679 20.2105 49.3365 18.937 49.4368 17.6664C49.405 17.6636 49.3733 17.6607 49.3415 17.6572L49.3423 17.6579Z" fill="#211421"/>
<path d="M44.7883 17.6422C44.7551 19.1651 44.5263 20.6368 44.1056 22.0865C43.9678 22.5619 43.9086 23.0586 43.7816 23.5376C43.7159 23.7842 43.6207 24.0428 43.4655 24.2397C43.353 24.3825 43.1026 24.5275 42.9424 24.5019C42.6537 24.455 42.4228 24.2383 42.4184 23.9078C42.4163 23.7231 42.4235 23.5113 42.5094 23.3571C42.8889 22.6777 43.0326 21.9479 43.1184 21.1868C43.2137 20.3426 43.4302 19.509 43.4966 18.6634C43.5593 17.8661 43.5074 17.0588 43.4836 16.2565C43.4518 15.1728 43.1956 14.1246 42.8413 13.1077C42.1471 11.1187 41.025 9.42025 39.2996 8.1262C38.3283 7.3978 37.2891 6.84138 36.0999 6.56281C35.9022 6.51662 35.6972 6.49317 35.506 6.42922C35.1091 6.29562 34.9114 5.99573 34.9922 5.68732C35.0802 5.3519 35.4021 5.16714 35.8235 5.26023C36.9796 5.51393 38.0627 5.9467 39.0586 6.58484C41.9451 8.4339 43.5355 11.1357 44.2766 14.3676C44.5234 15.4428 44.6216 16.5507 44.7875 17.6429L44.7883 17.6422Z" fill="#211421"/>
<path d="M40.6671 18.5724C40.6433 19.3292 40.5192 20.5423 39.8697 21.643C39.6431 22.0268 39.4345 22.1483 39.1351 22.0076C38.7873 21.8448 38.6169 21.4526 38.8248 21.115C39.8509 19.45 39.6922 17.6784 39.3472 15.8884C39.1524 14.8778 38.8536 13.9057 38.3875 12.9734C37.4421 11.0845 35.8344 10.0896 33.8463 9.56803C33.6846 9.52539 33.5194 9.49626 33.3599 9.44793C33.0092 9.34063 32.8165 9.09546 32.849 8.81334C32.8829 8.51914 33.1514 8.28677 33.5187 8.28748C33.7532 8.28748 33.9949 8.33083 34.2223 8.39478C36.7948 9.12033 38.5441 10.7541 39.6012 13.146C40.2991 14.7243 40.6721 16.3709 40.6678 18.5724H40.6671Z" fill="#211421"/>
<path d="M32.1233 11.498C34.5833 11.8924 36.1196 13.6512 36.6775 16.5783C36.7965 17.203 36.8507 17.8077 36.4927 18.3577C36.4198 18.4693 36.352 18.5908 36.2618 18.6797C36.0359 18.9007 35.7523 19.1558 35.4969 18.9142C35.3756 18.799 35.3973 18.3684 35.4536 18.1112C35.8122 16.476 35.2263 14.7684 33.9367 13.6299C33.4121 13.1673 32.9402 12.6201 32.4574 12.0936C32.3347 11.9592 32.2647 11.7567 32.1226 11.4988L32.1233 11.498Z" fill="#211421"/>
<path d="M4.59229 28.9398C4.60455 28.0543 4.97402 27.5057 5.60978 27.0879C7.40518 25.9075 9.20058 24.7258 10.9758 23.5163C11.5762 23.107 12.0885 22.5711 12.6911 22.1661C13.4712 21.6409 14.2989 21.1826 15.1121 20.7065C15.3481 20.5679 15.5992 20.4449 15.8583 20.3568C15.986 20.3135 16.2328 20.3156 16.2747 20.3852C16.3533 20.516 16.3793 20.7349 16.3209 20.872C16.253 21.0312 16.0921 21.1833 15.9326 21.2693C14.0752 22.2698 12.5237 23.6897 10.8033 24.8764C10.0759 25.3781 9.32182 25.8407 8.58287 26.3261C7.80424 26.837 7.02272 27.3444 6.25491 27.871C5.54555 28.3578 5.48205 29.2738 6.12574 29.8522C6.25707 29.9702 6.49521 30.0406 6.67417 30.0249C7.29261 29.9702 7.79486 29.6568 8.27041 29.2745C8.62906 28.9867 9.0043 28.679 9.42645 28.5141C11.3792 27.7545 13.1529 26.6672 14.9729 25.6638C15.9889 25.1038 17.0064 24.5481 18.0246 23.9924C18.3392 23.8204 18.6192 23.9739 18.6099 24.3292C18.5976 24.7712 18.301 25.0299 17.9373 25.2218C16.3079 26.0824 14.6828 26.9515 13.044 27.7935C11.9695 28.3457 10.8719 28.8524 9.79015 29.3896C9.59026 29.4891 9.3781 29.6049 9.23306 29.7662C8.50133 30.5842 7.52858 30.9239 6.49521 31.1427C6.0478 31.2373 5.67689 31.0845 5.3803 30.7277C4.91557 30.1685 4.70053 29.5161 4.59301 28.9391L4.59229 28.9398Z" fill="#211421"/>
<path d="M7.02295 28.404C7.14635 28.3308 7.2481 28.2867 7.32964 28.2192C8.21074 27.4894 9.10989 26.7958 10.1411 26.265C11.02 25.8123 11.8441 25.2566 12.6906 24.7435C13.5897 24.1985 14.4961 23.6648 15.3801 23.097C15.878 22.7765 16.3406 22.4013 16.8111 22.041C17.0009 21.8953 17.1668 21.6843 17.436 21.8676C17.6886 22.0403 17.8329 22.2741 17.7701 22.5946C17.6806 23.0501 17.3465 23.2867 16.9605 23.4814C16.3305 23.7991 15.6889 24.099 15.0792 24.4507C13.62 25.2935 12.1876 26.1818 10.7227 27.0154C9.75719 27.5647 8.75413 28.0501 7.76911 28.566C7.49417 28.7102 7.37582 28.6996 7.02295 28.4033V28.404Z" fill="#211421"/>
</svg>
