<svg width="235" height="300" viewBox="0 0 235 300" fill="none" xmlns="http://www.w3.org/2000/svg">
<path d="M235 300H220.356C222.108 298.255 233.374 287.025 235 285.396V300Z" fill="#2F2F2F" fill-opacity="0.15"/>
<path d="M235 270.495C225.132 280.33 215.263 290.165 205.395 300H193.025L235 257.851V270.495Z" fill="#2F2F2F" fill-opacity="0.15"/>
<path d="M162.975 288.351L151.285 300H138.606L156.635 282.033L162.975 288.351Z" fill="#2F2F2F" fill-opacity="0.15"/>
<path d="M117.526 290.963L141.57 267.002L147.908 273.318L121.133 300H113.918L87.1348 273.309L93.4727 266.992L117.526 290.963Z" fill="#2F2F2F" fill-opacity="0.15"/>
<path d="M96.4385 300H83.7607L72.0703 288.351L78.4199 282.033L96.4385 300Z" fill="#2F2F2F" fill-opacity="0.15"/>
<path fill-rule="evenodd" clip-rule="evenodd" d="M3.27273 261.057L0 257.795C0 257.795 4.62743 262.416 3.27273 261.057Z" fill="#2F2F2F" fill-opacity="0.15"/>
<path d="M14.6885 300H0V285.36C1.48178 286.837 12.9222 298.24 14.6885 300Z" fill="#2F2F2F" fill-opacity="0.15"/>
<path d="M178.466 266.863L172.128 273.181L145.207 246.354L117.527 273.949L89.8369 246.354L62.918 273.181L56.5781 266.863L89.8369 233.719L117.521 261.309L145.207 233.719L178.466 266.863Z" fill="#2F2F2F" fill-opacity="0.15"/>
<path d="M208.211 56.7646C208.317 56.8705 227.15 75.639 235 83.4619V96.0977C225.011 86.1442 215.024 76.1893 205.036 66.2354L120.973 150.011L205.036 233.787C215.024 223.833 225.013 213.88 235 203.925V216.561C225.012 226.515 215.024 236.469 205.036 246.423L117.517 159.203L29.999 246.423L0 216.525V203.89L29.999 233.787L114.062 150.011L29.999 66.2354C19.9992 76.201 10.0002 86.1675 0 96.1328V83.4971C9.99966 73.5316 20.0011 63.5678 29.999 53.6006L117.517 140.819L205.036 53.6006L208.211 56.7646Z" fill="#2F2F2F" fill-opacity="0.15"/>
<path d="M66.5127 120.051L36.2441 150.016L66.5127 179.974L33.1738 213.208L26.835 206.891L53.8145 180.003L23.5801 150.102L23.7119 150.057L23.54 150.002L53.8145 120.03L26.835 93.1436L33.1738 86.8252L66.5127 120.051Z" fill="#2F2F2F" fill-opacity="0.15"/>
<path d="M208.211 93.1436L181.231 120.03L211.505 150.012L181.231 180.003L208.211 206.891L201.871 213.208L168.532 179.974L198.8 150.017L168.532 120.051L201.871 86.8252L208.211 93.1436Z" fill="#2F2F2F" fill-opacity="0.15"/>
<path d="M3.08984 176.909C4.16918 177.995 18.0127 191.781 18.0918 191.859L11.7529 198.177C11.6973 198.121 4.41862 190.868 0 186.465V173.819L3.08984 176.909Z" fill="#2F2F2F" fill-opacity="0.15"/>
<path d="M235 186.52L223.303 198.177L216.953 191.859L235 173.874V186.52Z" fill="#2F2F2F" fill-opacity="0.15"/>
<path d="M33.1641 123.194L6.26367 150.002C14.0357 157.75 33.0942 176.75 33.1738 176.829L26.835 183.146C26.7666 183.078 7.82998 164.207 0 156.403V143.609L26.8252 116.876L33.1641 123.194Z" fill="#2F2F2F" fill-opacity="0.15"/>
<path d="M235 143.574V156.457L208.221 183.146L201.871 176.829L228.775 150.017C220.999 142.264 201.945 123.268 201.871 123.194L208.211 116.876C208.243 116.908 227.135 135.736 235 143.574Z" fill="#2F2F2F" fill-opacity="0.15"/>
<path d="M89.6689 149.995L69.6172 168.266L63.5791 161.659L76.4033 150.017L63.5791 138.375L69.6172 131.768L89.6689 149.995Z" fill="#2F2F2F" fill-opacity="0.15"/>
<path d="M171.466 138.375L158.641 150.017L171.466 161.659L165.428 168.266L145.398 150.022L165.428 131.768L171.466 138.375Z" fill="#2F2F2F" fill-opacity="0.15"/>
<path d="M18.082 108.174C12.0514 114.184 6.02035 120.194 0 126.214V113.559C4.44624 109.128 11.7432 101.855 11.7432 101.855L18.082 108.174Z" fill="#2F2F2F" fill-opacity="0.15"/>
<path d="M235 113.523V126.158L216.953 108.174L223.293 101.855L235 113.523Z" fill="#2F2F2F" fill-opacity="0.15"/>
<path fill-rule="evenodd" clip-rule="evenodd" d="M66.3369 0L36.2559 29.7695L90.5967 83.6738L117.537 56.835L144.438 83.666L198.775 29.7588L168.708 0H181.447L235 53.0029V65.6084L205.136 36.0527L117.537 123.005L29.8945 36.0664L0 65.6523V53.0566L53.6084 0H66.3369ZM96.9668 89.9922L117.515 110.376L138.086 89.9678L117.542 69.4951L96.9668 89.9922Z" fill="#2F2F2F" fill-opacity="0.15"/>
<path d="M117.525 26.1055L145.208 53.6709L172.128 26.8438L178.467 33.1611L145.208 66.3154L117.522 38.7246L89.8369 66.3154L56.5781 33.1611L62.918 26.8438L89.8369 53.6709L117.525 26.1055Z" fill="#2F2F2F" fill-opacity="0.15"/>
<path d="M42.3623 0C28.2392 14.0768 14.1022 28.1396 0 42.2373V29.583C6.91932 22.6776 22.716 6.93407 29.6738 0H42.3623Z" fill="#2F2F2F" fill-opacity="0.15"/>
<path d="M205.352 0L235 29.5479V42.1621L193.356 0H205.352Z" fill="#2F2F2F" fill-opacity="0.15"/>
<path d="M121.1 0L147.912 26.7217L141.573 33.0371L117.544 9.08984L93.4854 33.0674L87.1475 26.752L113.987 0H121.1Z" fill="#2F2F2F" fill-opacity="0.15"/>
<path d="M96.4717 0L78.4199 18.001L72.0703 11.6729L83.7939 0H96.4717Z" fill="#2F2F2F" fill-opacity="0.15"/>
<path d="M151.252 0L162.975 11.6729L156.635 18.001L138.573 0H151.252Z" fill="#2F2F2F" fill-opacity="0.15"/>
<path d="M14.7217 0C13.0746 1.64269 1.51575 13.1705 0 14.6729V0H14.7217Z" fill="#2F2F2F" fill-opacity="0.15"/>
<path d="M235 0V14.6279C233.32 12.954 221.955 1.6266 220.323 0H235Z" fill="#2F2F2F" fill-opacity="0.15"/>
<path fill-rule="evenodd" clip-rule="evenodd" d="M205.133 263.981L117.537 177.039L29.8955 263.967L0 234.381V246.977L53.5752 300H66.3037L36.2559 270.262L90.5967 216.359L117.527 243.189L144.437 216.372L198.771 270.275C188.764 280.18 178.736 290.064 168.76 300H181.48L235 247.03V234.425L205.133 263.981ZM96.9502 210.058L117.523 230.56L138.085 210.07L117.512 189.66L96.9502 210.058Z" fill="#2F2F2F" fill-opacity="0.15"/>
<path d="M0 257.795C0 257.795 4.62743 262.416 3.27273 261.057L42.3389 300H29.6309C22.6789 293.062 6.91447 277.351 0 270.46V257.795Z" fill="#2F2F2F" fill-opacity="0.15"/>
</svg>
