<svg width="84" height="40" viewBox="0 0 84 40" fill="none" xmlns="http://www.w3.org/2000/svg">
<g clip-path="url(#clip0_394_22)">
<path d="M69.4641 34.7233C67.1357 38.7127 14.3336 35.7361 9.99994 35.4467C16.6335 24.3364 23.6757 13.5155 31.1075 3.01494C34.5668 2.2398 66.4895 31.8708 69.4736 34.7233L69.4641 34.7233Z" stroke="#AF7B41" stroke-opacity="0.5" stroke-linecap="round" stroke-linejoin="round"/>
<path d="M38.5774 7.59344C24.8447 27.6127 24.8066 27.2923 25.3008 27.8711C25.8711 28.5532 40.7252 30.0725 53.3936 29.411C51.3978 25.9487 46.9501 25.0186 40.3071 17.0501C38.872 18.7968 37.6175 20.7295 36.5626 22.7758" stroke="#AF7B41" stroke-opacity="0.5" stroke-linecap="round" stroke-linejoin="round"/>
<path d="M-37.9905 5.06178C-35.6621 1.0724 17.14 4.04894 21.4737 4.33832C14.8402 15.4486 7.79798 26.2696 0.366142 36.7701C-3.09318 37.5453 -35.0159 7.91429 -38 5.06178H-37.9905Z" stroke="#AF7B41" stroke-opacity="0.5" stroke-linecap="round" stroke-linejoin="round"/>
<path d="M-7.10377 32.1916C6.62897 12.1724 6.66698 12.4928 6.17279 11.914C5.60258 11.2319 -9.25159 9.71262 -21.9199 10.3741C-19.9242 13.8364 -15.4765 14.7665 -8.83343 22.7349C-7.39838 20.9883 -6.1439 19.0556 -5.089 17.0093" stroke="#AF7B41" stroke-opacity="0.5" stroke-linecap="round" stroke-linejoin="round"/>
<path d="M46.0095 5.06178C48.3379 1.0724 101.14 4.04894 105.474 4.33832C98.8402 15.4486 91.798 26.2696 84.3661 36.7701C80.9068 37.5453 48.9841 7.91429 46 5.06178H46.0095Z" stroke="#AF7B41" stroke-opacity="0.5" stroke-linecap="round" stroke-linejoin="round"/>
<path d="M76.8962 32.1916C90.629 12.1724 90.667 12.4928 90.1728 11.914C89.6026 11.2319 74.7484 9.71262 62.0801 10.3741C64.0758 13.8364 68.5235 14.7665 75.1666 22.7349C76.6016 20.9883 77.8561 19.0556 78.911 17.0093" stroke="#AF7B41" stroke-opacity="0.5" stroke-linecap="round" stroke-linejoin="round"/>
</g>
<defs>
<clipPath id="clip0_394_22">
<rect width="84" height="40" fill="white"/>
</clipPath>
</defs>
</svg>
