<svg width="400" height="389" viewBox="0 0 400 389" fill="none" xmlns="http://www.w3.org/2000/svg">
<path d="M190.597 376.026C187.041 374.779 106.218 312.044 104.647 307.703C104.041 306.06 112.495 293.758 123.128 279.18C125.422 276.032 127.812 272.796 130.258 269.522C146.109 248.248 163.427 226.048 163.427 226.048L217.614 267.857L182.956 310.18L175.356 319.476C175.356 319.476 195.555 357.336 196.767 362.279C197.96 367.211 194.157 377.272 190.601 376.022L190.597 376.026Z" fill="#864240"/>
<path d="M138.78 258.161C135.971 261.889 133.098 265.73 130.258 269.526C127.804 272.804 125.414 276.032 123.12 279.176C112.487 293.762 104.049 306.06 104.651 307.707C106.221 312.048 187.033 374.776 190.601 376.03C194.153 377.28 197.952 367.214 196.763 362.279C195.544 357.34 175.344 319.483 175.344 319.483L182.948 310.188L190.681 300.744L138.772 258.165L138.78 258.161Z" fill="#ECECEC"/>
<path d="M190.974 376.792C187.361 375.507 105.451 311.323 103.874 306.902C103.146 304.86 116.066 286.871 130.098 268.188L183.504 309.787L175.73 319.209C175.73 319.209 196.1 357.812 197.308 362.847C198.501 367.87 194.583 378.084 190.974 376.799V376.792Z" fill="#375A64"/>
<path d="M192.369 372.592C178.904 361.498 123.539 318.012 109.384 308.065C109.27 307.985 109.209 308.061 109.316 308.153C122.423 319.441 178.138 362.477 192.194 372.817C192.491 373.034 192.655 372.824 192.369 372.592Z" fill="#1A2E35"/>
<path d="M180.059 317.669C175.444 312.429 168.187 308.076 161.041 308.694C160.763 308.717 160.801 309.109 161.022 309.193C167.669 311.689 173.492 314.513 179.503 318.336C179.926 318.607 180.391 318.046 180.059 317.669Z" fill="#1A2E35"/>
<path d="M182.117 323.073C177.506 317.833 170.245 313.484 163.099 314.098C162.821 314.121 162.859 314.513 163.08 314.597C169.727 317.094 175.551 319.918 181.561 323.74C181.984 324.011 182.449 323.451 182.117 323.073Z" fill="#1A2E35"/>
<path d="M184.175 328.481C179.564 323.237 172.303 318.889 165.157 319.506C164.879 319.529 164.917 319.922 165.138 320.005C171.785 322.502 177.608 325.326 183.619 329.148C184.042 329.419 184.507 328.859 184.175 328.481Z" fill="#1A2E35"/>
<path d="M186.233 333.886C181.622 328.645 174.361 324.293 167.215 324.91C166.937 324.933 166.975 325.326 167.196 325.41C173.843 327.906 179.666 330.73 185.677 334.553C186.1 334.823 186.565 334.263 186.233 333.886Z" fill="#1A2E35"/>
<path d="M199.828 312.993C199.995 308.404 195.01 306.62 191.271 306.75C185.212 306.956 178.26 309.246 173.252 312.608C173.13 312.692 173.149 312.817 173.226 312.901C172.921 313.324 172.947 314.048 173.546 314.239C179.301 316.084 185.227 318.767 191.378 318.789C194.968 318.801 199.671 317.33 199.831 312.993H199.828ZM182.845 315.249C179.99 314.41 177.197 313.439 174.312 312.707C177.829 311.575 181.282 310.294 184.911 309.517C186.645 309.147 188.428 308.797 190.197 308.667C192.948 308.465 201.752 310.336 196.157 315.519C193.07 318.378 186.245 316.247 182.841 315.249H182.845Z" fill="#1A2E35"/>
<path d="M160.626 300.435C163.591 305.824 168.786 309.738 173.165 313.907C173.618 314.338 174.266 314.018 174.491 313.545C174.601 313.572 174.723 313.53 174.739 313.381C175.287 307.375 173.969 300.176 171.248 294.756C169.567 291.41 165.615 287.888 161.67 290.236C157.935 292.454 158.896 297.287 160.63 300.431L160.626 300.435ZM161.205 294.668C163.073 287.271 168.934 294.101 170.074 296.616C170.805 298.232 171.358 299.966 171.861 301.666C172.917 305.225 173.45 308.865 174.14 312.497C172.117 310.317 169.925 308.332 167.821 306.228C165.317 303.72 160.176 298.746 161.205 294.668Z" fill="#1A2E35"/>
<path d="M273.513 184.739C269.797 212.904 200.392 294.204 192.369 303.53C191.188 304.905 190.544 305.652 190.544 305.652L133.132 261.53L133.791 260.677L184.35 194.48C184.35 194.48 100.748 243.267 58.917 221.12C40.1393 211.181 26.2095 193.505 26.2095 193.505L80.8046 164.395C80.8046 164.395 95.9121 169.277 105.566 167.871C138.849 163 213.422 134.687 231.117 135.399C253.943 136.337 276.924 158.899 273.517 184.739H273.513Z" fill="#7B6CF8"/>
<path d="M202.507 169.871C200.548 171.857 198.981 174.342 197.293 176.556C195.506 178.9 193.692 181.221 191.908 183.565C191.889 183.588 191.874 183.611 191.855 183.634C192.171 182.948 192.48 182.258 192.811 181.576C193.936 179.243 194.839 176.831 196.173 174.601C196.253 174.464 196.047 174.338 195.963 174.472C194.595 176.686 193.006 178.79 191.836 181.122C191.283 182.22 190.761 183.329 190.277 184.457C190.01 185.074 189.736 185.692 189.499 186.321C189.389 186.606 189.252 186.911 189.172 187.224C188.371 188.31 187.582 189.404 186.816 190.517C185.113 192.982 183.611 195.589 181.888 198.036C181.797 198.166 182.003 198.288 182.098 198.166C183.844 195.868 185.799 193.722 187.571 191.439C189.374 189.114 191.089 186.728 192.777 184.32C194.427 181.972 196.043 179.598 197.69 177.25C199.347 174.883 201.318 172.547 202.663 169.986C202.709 169.898 202.598 169.791 202.522 169.871H202.507Z" fill="#1A2E35"/>
<path d="M196.428 292.027C193.276 289.104 189.884 286.402 186.557 283.681C183.219 280.948 179.865 278.231 176.496 275.536C169.754 270.14 163.042 264.698 156.228 259.392C152.485 256.477 148.712 253.603 144.817 250.893C144.642 250.771 144.448 251.05 144.6 251.191C150.984 256.995 157.794 262.304 164.529 267.689C171.278 273.086 178.043 278.46 184.873 283.753C188.611 286.65 192.327 289.634 196.234 292.298C196.39 292.405 196.565 292.157 196.428 292.031V292.027Z" fill="#1A2E35"/>
<path d="M10.1872 63.029C8.61321 64.1419 7.79381 66.1275 8.25496 68.1246C8.83807 70.6438 11.2734 72.2406 13.785 71.8595C13.6668 72.5265 13.6821 73.2392 13.8421 73.9328C14.4786 76.6768 17.1007 78.449 19.8333 78.0756C19.7457 78.6434 19.7685 79.2265 19.9057 79.8173C20.5155 82.4584 23.1681 84.1124 25.8092 83.5027C26.9374 83.2397 27.8901 82.5994 28.5533 81.7533C29.3308 84.1734 31.8233 85.6102 34.3425 85.0271C35.0361 84.8671 35.6802 84.5546 36.2061 84.1391C36.2214 84.284 36.2557 84.4402 36.29 84.5774C36.8998 87.2186 39.5333 88.8612 42.1897 88.2476C43.7866 87.8779 45.0328 86.765 45.6197 85.3511C46.5573 87.4206 48.8592 88.5906 51.1536 88.0608C52.9601 87.6416 54.294 86.2924 54.7742 84.6422C55.8413 85.1453 57.0876 85.313 58.3414 85.0233C59.8164 84.6803 61.0169 83.7656 61.7258 82.5575C62.9034 83.2931 64.3402 83.5827 65.7999 83.2435C68.1972 82.6871 69.8588 80.6214 69.977 78.2699C70.5868 78.3652 71.2423 78.3614 71.9016 78.2089C74.3331 77.6449 75.93 75.3734 75.6823 72.961C76.4369 73.1325 77.2449 73.1477 78.0605 72.961C80.9798 72.2864 82.7978 69.3937 82.1232 66.4743C81.986 65.8836 81.7459 65.3157 81.4334 64.8393C81.7116 64.847 81.9936 64.8012 82.2871 64.7326C84.9282 64.1228 86.5861 61.4855 85.9763 58.8443C85.7629 57.922 85.3055 57.1331 84.6843 56.5081C87.3026 55.6468 88.888 52.918 88.2516 50.1739C88.0153 49.1487 87.4969 48.2607 86.8109 47.5785C88.6365 46.3704 89.6312 44.1065 89.1053 41.8313C88.7165 40.1467 87.5656 38.8204 86.0944 38.1535C86.8681 37.0597 87.1654 35.6533 86.8414 34.2661C86.5137 32.8407 85.6104 31.7126 84.4175 31.0723C85.4656 29.8222 85.9306 28.1225 85.5342 26.4036C84.9892 24.0407 82.9807 22.4019 80.6902 22.2342C80.8846 21.4948 80.915 20.6792 80.7321 19.8827C80.1681 17.4512 77.9004 15.8695 75.4841 16.102C75.6594 15.3664 75.6594 14.5623 75.4765 13.7772C74.8019 10.8578 71.894 9.05895 68.9937 9.72971C68.5783 9.82499 68.1705 9.97363 67.8122 10.168C67.8008 9.87835 67.7512 9.59632 67.6865 9.29905C67.0157 6.39874 64.1078 4.58081 61.2036 5.25158C60.7501 5.35448 60.3309 5.50693 59.9421 5.72798C59.9917 5.22109 59.946 4.72183 59.8278 4.19969C59.1532 1.28033 56.2415 -0.533787 53.3259 0.140791C51.832 0.487608 50.62 1.42516 49.8844 2.67522C48.6229 1.3375 46.7021 0.704846 44.7889 1.14694C43.3635 1.4747 42.2087 2.32841 41.477 3.44889C40.467 1.53949 38.2642 0.476175 36.0575 0.986873C34.3387 1.38324 33.0352 2.63711 32.5017 4.20732C31.3698 3.35361 29.8986 2.99917 28.4199 3.33837C26.3161 3.8262 24.8603 5.59077 24.6545 7.63357C23.4501 6.77605 21.9066 6.44067 20.3593 6.79511C17.8058 7.38584 16.0869 9.68779 16.1555 12.1955C15.5686 12.1117 14.9664 12.1231 14.3605 12.2641C11.7193 12.8739 10.0805 15.5227 10.6941 18.1638C10.8313 18.7546 11.0676 19.3034 11.3954 19.776C11.2887 19.7836 11.1819 19.8065 11.079 19.8293C8.15968 20.5039 6.34556 23.4156 7.02014 26.3312C7.1421 26.8533 7.32885 27.3564 7.59563 27.7909C7.16878 27.7604 6.72287 27.8099 6.28839 27.909C3.64725 28.5188 2.00463 31.1523 2.61442 33.7935C2.91931 35.1122 3.73872 36.206 4.8249 36.8691C3.53291 38.0086 2.89264 39.8228 3.30805 41.6293C3.60914 42.9327 4.40567 43.9922 5.45756 44.663C3.45288 45.8025 2.3362 48.1845 2.88882 50.5665C3.41477 52.8417 5.32798 54.4691 7.54227 54.7054C6.36462 55.8564 5.80438 57.56 6.20455 59.2788C6.66189 61.2606 8.27783 62.6974 10.1834 63.0252L10.1872 63.029Z" fill="#001018"/>
<path d="M51.7975 107.707C62.0191 122.384 97.0629 160.462 121.291 165.984C134.641 169.025 199.161 178.05 208.002 170.005C218.357 160.584 213.555 125.06 205.323 124.736C180.196 123.749 133.692 128.665 122.076 126.1C116.82 124.942 88.9679 106.976 59.2255 92.6075C47.9787 87.1727 45.2042 98.2328 51.8013 107.704L51.7975 107.707Z" fill="#864240"/>
<path d="M191.641 122.788L187.331 175.966C187.331 175.966 128.791 175.043 111.123 165.104C93.4501 155.168 64.6834 129.824 53.6767 112.212C42.67 94.6008 46.3516 84.9928 67.8352 95.8242C89.3188 106.656 118.322 124.038 122.122 124.957C125.921 125.875 191.641 122.784 191.641 122.784V122.788Z" fill="#38FFE8"/>
<path d="M179.952 126.485C179.952 126.348 179.743 126.295 179.712 126.443C178.988 130.094 178.687 133.848 178.272 137.545C177.841 141.368 177.475 145.202 177.132 149.036C176.446 156.673 175.642 164.364 175.402 172.032C175.39 172.364 175.832 172.36 175.882 172.048C177.033 164.517 177.647 156.864 178.359 149.28C178.714 145.522 179.049 141.756 179.32 137.991C179.594 134.172 180.002 130.315 179.952 126.485Z" fill="#1A2E35"/>
<path d="M100.577 113.538C94.8792 124.568 87.9886 135.03 81.9593 143.399C81.7611 143.201 81.5439 143.018 81.3457 142.85C87.3407 134.496 94.2008 124.084 99.8452 113.123C100.093 113.256 100.344 113.39 100.577 113.538Z" fill="white"/>
<path d="M107.551 117.426C101.789 128.97 94.5973 140.011 88.286 148.815C88.0687 148.647 87.8553 148.464 87.6533 148.285C93.9303 139.5 101.107 128.505 106.835 117.03C107.083 117.163 107.315 117.296 107.548 117.43L107.551 117.426Z" fill="white"/>
<path opacity="0.1" d="M135.468 171.849C125.453 170.272 116.435 168.095 111.123 165.108C93.4501 155.16 64.6872 129.831 53.6767 112.212C45.273 98.7587 45.4217 89.974 55.5518 91.4032L135.468 171.853V171.849Z" fill="black"/>
<path d="M0 206.223C3.20901 207.255 94.4791 180.848 94.4791 180.848L83.7011 149.158C83.7011 149.158 89.0215 138.967 86.5518 129.164C83.2514 116.069 59.0085 94.5398 57.1067 93.2745C49.4576 88.2056 42.2888 88.2933 35.9546 91.6586C9.56605 105.676 0 206.223 0 206.223Z" fill="#38FFE8"/>
<path d="M82.0089 119.918C58.391 131.478 25.7902 135.895 12.1042 137.29C12.169 137.008 12.2529 136.726 12.3367 136.444C26.1218 134.999 58.2081 130.613 81.5248 119.221C81.6925 119.453 81.8564 119.686 82.0051 119.918H82.0089Z" fill="white"/>
<path d="M85.6296 126.428C60.5521 140.114 22.6347 144.714 9.94727 145.926C9.99681 145.644 10.0654 145.343 10.1454 145.061C23.0501 143.815 60.5178 139.199 85.279 125.662C85.4124 125.929 85.5267 126.176 85.6296 126.424V126.428Z" fill="white"/>
<path d="M69.6302 104.685C71.9779 107.422 74.5047 110.021 76.9324 112.7C75.7967 110.703 74.6762 108.698 73.468 106.747C73.4452 106.709 73.4947 106.663 73.5252 106.701C75.2784 109.034 76.8867 111.45 78.152 114.072C79.9509 116.115 81.6697 118.226 83.1827 120.494C85.0007 123.219 86.5251 126.138 87.3293 129.328C88.1335 132.514 88.1296 135.872 87.6075 139.104C86.9977 142.85 85.7972 146.459 84.5243 150.023C84.3566 150.495 83.6896 150.198 83.8154 149.737C85.5304 143.548 87.4741 137.015 86.0983 130.563C84.7415 124.191 80.7398 118.771 76.86 113.699C74.5237 110.642 72.1494 107.578 69.4358 104.841C69.3253 104.731 69.5235 104.567 69.6302 104.689V104.685Z" fill="#1A2E35"/>
<path d="M24.0294 113.737C16.6929 155.366 22.6498 186.797 29.7233 190.658C48.7602 201.055 85.4847 182.711 98.3817 178.523C103.595 176.831 98.5799 133.562 92.8364 134.729C78.6893 137.606 53.4022 152.306 52.6933 152.23C51.2832 152.085 49.6329 141.459 42.3574 110.493C36.4729 85.4387 27.0288 96.716 24.0294 113.737Z" fill="#FCF18B"/>
<path d="M87.4324 136.192C87.4324 136.192 114.191 124.999 135.838 125.993C143.178 126.329 172.951 135.704 170.992 142.984C169.216 149.573 144.539 138.814 144.539 138.814C144.539 138.814 170.402 147.469 166.804 155.008C163.206 162.546 136.943 146.684 136.943 146.684C136.943 146.684 163.317 156.17 158.374 163.362C154.642 168.797 130.041 155.77 130.041 155.77C130.041 155.77 152.653 164.082 149.055 169.833C145.08 176.191 121.619 165.592 121.619 165.592C110.01 178.675 99.1327 180.154 91.2702 180.288C89.3646 180.318 87.4362 136.196 87.4362 136.196L87.4324 136.192Z" fill="#FCF18B"/>
<path d="M135.785 135.247C138.86 136.154 141.978 137.05 144.962 138.227C147.946 139.405 150.888 140.685 153.751 142.134C160.767 145.69 164.605 149.013 164.346 148.83C158.214 144.588 147.596 140.209 144.611 139.031C141.635 137.858 138.716 136.535 135.739 135.357C135.663 135.327 135.716 135.224 135.789 135.247H135.785Z" fill="#1A2E35"/>
<path d="M131.341 145.941C135.217 147.267 139.112 148.445 142.931 149.943C146.73 151.433 150.206 153.182 153.892 154.932C154.174 155.065 154.01 155.176 153.72 155.05C149.966 153.449 146.372 152.26 142.599 150.701C138.841 149.15 135.114 147.439 131.303 146.029C131.242 146.006 131.284 145.918 131.341 145.937V145.941Z" fill="#1A2E35"/>
<path d="M125.876 154.436C131.901 156.163 137.603 158.998 143.129 161.914C143.403 162.059 143.174 162.177 142.885 162.043C137.195 159.452 132.751 157.375 125.815 154.65C125.708 154.608 125.75 154.402 125.876 154.44V154.436Z" fill="#1A2E35"/>
<path d="M82.1729 136.341L104.057 183.15C104.057 183.15 36.1377 202.968 26.9223 191.043C17.7069 179.117 18.351 141.615 22.6728 115.673C26.9985 89.7263 38.6684 89.2309 43.7791 112.685C48.8899 136.139 51.9008 150.945 52.8193 150.816C53.7377 150.686 82.1729 136.341 82.1729 136.341Z" fill="#38FFE8"/>
<path d="M49.5377 139.134C40.2194 145.461 29.59 150.877 19.6428 155.244V154.349C29.5404 149.981 40.1203 144.584 49.3395 138.288C49.4234 138.57 49.4729 138.852 49.5377 139.134Z" fill="white"/>
<path d="M51.4662 147.222C41.6677 153.914 30.3751 159.578 19.9783 164.079L19.9287 163.183C30.2913 158.697 41.519 153.034 51.2337 146.376C51.3176 146.673 51.4014 146.959 51.4662 147.222Z" fill="white"/>
<path d="M73.3081 142.633C73.2356 142.515 73.0298 142.572 73.0794 142.717C74.299 146.231 75.9378 149.623 77.447 153.026C79.0096 156.544 80.6255 160.035 82.2681 163.518C85.5343 170.459 88.7243 177.498 92.3944 184.236C92.5545 184.529 92.9318 184.301 92.8175 184.007C90.0086 176.926 86.67 170.013 83.4534 163.107C81.8603 159.684 80.2482 156.266 78.5789 152.878C76.8868 149.444 75.2899 145.907 73.3119 142.629L73.3081 142.633Z" fill="#1A2E35"/>
<path d="M68.1668 191.752C66.3032 191.698 64.3099 192.377 62.4806 192.701C60.5178 193.047 58.5512 193.36 56.577 193.619C52.7582 194.118 48.8975 194.507 45.0482 194.606C41.2523 194.705 31.8654 194.141 28.9803 191.523C26.4573 189.232 24.6775 185.608 24.0715 183.07C23.0234 178.687 22.3031 174.197 21.7429 169.727C20.55 160.241 20.47 150.686 20.8511 141.147C20.9578 138.494 21.1217 135.842 21.316 133.193C21.5142 130.498 21.8305 127.789 21.922 125.09C21.922 124.984 21.7619 124.968 21.7391 125.071C20.7558 129.332 20.3289 133.787 19.9402 138.159C19.7763 135.422 19.4486 132.69 19.4028 129.95C19.4028 129.79 19.1551 129.797 19.1551 129.957C19.2046 132.846 19.0103 135.727 19.117 138.616C19.178 140.244 19.3419 141.852 19.521 143.46C19.2923 147.127 19.1932 150.793 19.2275 154.471C19.319 164.044 20.0431 173.946 22.5928 183.211C23.7133 187.289 25.4397 191.188 29.1709 193.368C31.3356 194.633 35.2192 195.487 38.1081 195.711C44.6519 196.218 51.2338 195.67 57.6747 194.473C59.4812 194.137 61.28 193.76 63.0713 193.349C64.7482 192.967 66.6919 192.739 68.2202 191.935C68.3079 191.889 68.2545 191.767 68.1706 191.763L68.1668 191.752Z" fill="#1A2E35"/>
<path d="M83.0381 136.703C83.0381 136.703 83.0381 136.711 83.0421 136.715C83.0421 136.715 83.0421 136.715 83.0421 136.711C83.0421 136.711 83.0422 136.707 83.0381 136.703Z" fill="#1A2E35"/>
<path d="M82.0776 135.457C77.0811 137.957 72.0618 140.472 67.0882 143.018C64.63 144.276 62.1718 145.53 59.7174 146.795C57.3583 148.015 52.8535 150.446 52.8535 150.442C52.8001 149.318 51.935 146.048 51.4586 143.94C50.9403 141.642 50.4105 139.344 49.8198 137.065C49.6673 136.474 49.4958 135.884 49.3396 135.293C49.2329 134.195 49.1338 133.098 49.0309 132C48.867 130.232 48.7145 128.425 48.4439 126.672C48.4325 126.607 48.3525 126.611 48.3448 126.672C48.1695 128.349 48.2115 130.045 48.3753 131.729C47.6093 128.97 46.8242 126.215 46.0086 123.471C45.9819 123.379 45.8485 123.421 45.8676 123.512C46.7594 128.147 47.7084 132.777 48.7717 137.378C49.2862 139.607 49.8579 141.825 50.441 144.039C51.005 146.181 52.2246 151.201 52.419 151.132C54.9915 150.244 57.4497 148.994 59.9041 147.832C62.4614 146.616 64.9997 145.37 67.5303 144.104C72.4391 141.646 77.3898 139.142 82.1347 136.368C82.1271 136.394 82.8703 137.907 82.916 137.976C83.0418 138.174 83.2057 137.831 83.1447 137.618C83.0418 137.24 82.1767 135.403 82.0699 135.457H82.0776Z" fill="#1A2E35"/>
<path d="M182.464 171.701H85.6218V176.046H182.464V171.701Z" fill="#C8C8C8"/>
<path d="M106.343 171.701L103.028 176.046H182.464V171.701H106.343Z" fill="#A8A8A8"/>
<path d="M110.486 176.042H204.866L212.721 111.942H118.345L110.486 176.042Z" fill="#C8C8C8"/>
<path d="M155.858 143.99C155.801 147.161 158.328 149.733 161.502 149.733C164.677 149.733 167.292 147.161 167.349 143.99C167.406 140.815 164.879 138.246 161.704 138.246C158.53 138.246 155.915 140.819 155.858 143.99Z" fill="white"/>
<path d="M211.955 118.139C215.51 123.631 224.291 130.052 225.5 134.763C226.59 139.016 223.201 141.01 223.201 141.01C223.201 141.01 228.293 142.759 228.682 147.214C228.884 149.505 225.397 151.841 225.397 151.841C225.397 151.841 229.414 153.423 229.517 157.405C229.6 160.58 226.094 162.444 226.094 162.444C226.094 162.444 229.242 165.756 228.289 169.018C226.357 175.63 199.34 179.201 193.852 169.799C191.294 165.416 197.941 164.906 197.941 164.906C197.941 164.906 188.203 163.335 187.327 157.786C186.446 152.237 195.124 152.089 195.124 152.089C195.124 152.089 185.703 150.484 185.372 144.638C185.029 138.551 193.73 139.893 193.73 139.893C193.73 139.893 187.182 136.615 187.956 132.08C189.229 124.595 204.637 132.553 210.388 130.357L211.951 118.142L211.955 118.139Z" fill="#FCF18B"/>
<path d="M225.587 162.821C225.675 162.802 225.721 162.924 225.633 162.958C217.031 166.297 206.562 167.333 197.583 164.978C197.289 164.902 197.285 164.387 197.625 164.41C207.343 165.066 216.017 164.875 225.587 162.821Z" fill="#E8DE85"/>
<path d="M225.538 151.883C225.641 151.86 225.679 152.031 225.572 152.073C216.692 155.465 204.866 156.307 194.835 152.374C194.492 152.241 194.317 151.772 194.724 151.898C201.592 154.006 216.932 153.777 225.534 151.883H225.538Z" fill="#E8DE85"/>
<path d="M193.089 139.374C202.85 142.774 212.721 142.702 222.843 141.169C222.977 141.15 222.988 141.337 222.885 141.387C218.136 143.487 211.581 143.788 206.459 143.593C201.554 143.407 197.164 142.252 192.971 139.717C192.807 139.618 192.88 139.302 193.089 139.374Z" fill="#E8DE85"/>
<path d="M31.5452 94.9246C31.5452 94.9246 47.6969 108.607 57.9642 106.095C68.2316 103.584 61.9279 93.1829 61.9279 93.1829C61.9279 93.1829 52.5638 87.4662 42.5518 88.7734C35.4249 89.7033 31.5452 94.9246 31.5452 94.9246Z" fill="#FCF18B"/>
<path d="M39.8574 92.4667C40.2194 94.1207 47.9409 104.944 55.487 104.701C57.9452 104.617 58.0862 91.1823 58.0862 91.1823L58.3225 90.1914L61.6306 76.3378L43.1197 64.2068C43.1197 64.2068 39.7164 91.7616 39.8612 92.4629L39.8574 92.4667Z" fill="#FCF18B"/>
<path d="M61.6306 76.3339L58.3225 90.1875C54.3817 88.644 45.9323 84.1811 41.9763 73.6242C42.5442 68.8487 43.032 64.8775 43.0968 64.2944C43.1121 64.2487 43.1121 64.2144 43.1121 64.2144L45.4597 65.6321L61.6306 76.3339Z" fill="#E8DE85"/>
<path d="M81.4907 56.2297C82.009 81.2196 67.0996 84.3524 61.7106 84.4553C56.8171 84.5506 40.1508 84.2571 37.0523 59.454C33.9538 34.6509 45.4102 26.5102 56.5846 25.6984C67.7628 24.8866 80.9685 31.236 81.4868 56.2259L81.4907 56.2297Z" fill="#FCF18B"/>
<path d="M62.7738 72.4426C63.1206 72.8923 63.4483 73.4944 64.0543 73.6278C64.6336 73.7574 65.3577 73.5897 65.9256 73.4563C65.9828 73.4411 66.0285 73.5059 65.9866 73.5516C65.4606 74.1385 64.4812 74.4129 63.7189 74.169C62.9758 73.9289 62.6899 73.2162 62.6023 72.4921C62.5908 72.3892 62.7242 72.374 62.7738 72.4387V72.4426Z" fill="#1A2E35"/>
<path d="M70.5335 66.3676C70.5335 66.3676 70.6783 68.9288 70.5792 70.1255C70.5678 70.236 70.2781 70.2665 69.8703 70.2589C69.8513 70.2627 69.8399 70.2703 69.8246 70.2589C67.6865 70.4151 65.6209 69.5157 64.4813 67.6863C64.4089 67.5644 64.569 67.4538 64.6719 67.5339C66.1545 68.8182 67.8695 69.2603 69.737 69.4433C69.8475 69.1193 69.3444 65.0642 69.535 65.0642C70.1943 65.0642 71.4444 65.6092 72.199 65.8989C72.0542 60.5518 71.0556 55.2733 70.9908 49.9491C70.9908 49.7585 71.269 49.7242 71.311 49.8957C72.7516 55.3533 73.0527 61.5008 73.3423 67.0194C73.3843 67.7054 70.9985 66.6078 70.5373 66.3676H70.5335Z" fill="#1A2E35"/>
<path d="M69.8511 69.7787C69.8511 69.7787 68.7001 71.387 67.0918 71.9892C66.5011 72.214 65.8608 72.3055 65.1862 72.1378C63.8028 71.7986 63.7456 70.5333 63.9819 69.4471C64.1725 68.5515 64.5726 67.7778 64.5726 67.7778C64.5726 67.7778 66.6192 69.6301 69.8511 69.7749V69.7787Z" fill="#1A2E35"/>
<path d="M67.0957 71.9893C66.505 72.2142 65.8647 72.3056 65.1901 72.138C63.8067 71.7988 63.7495 70.5335 63.9858 69.4473C65.4684 69.573 66.9471 70.5525 67.0957 71.9893Z" fill="#FF9CBF"/>
<path d="M38.9883 58.3908C41.6332 58.2231 48.501 50.9132 48.6648 38.1267C48.6648 38.1267 47.7235 49.5984 46.8698 51.2829C46.0123 52.9675 50.7076 47.1707 50.982 36.8576C50.982 36.8576 56.7064 40.9584 61.5809 42.3038C66.4554 43.6491 69.4319 43.592 69.7826 43.2375C70.1294 42.8831 62.9567 40.6535 61.0092 38.4278C61.0092 38.4278 73.9825 44.3999 79.9546 44.8344C80.6444 44.884 80.4539 32.6043 71.2041 26.6132C61.9506 20.622 48.3142 25.2602 44.4001 29.0714C44.4001 29.0714 41.6218 30.3253 36.6329 37.1739C31.6403 44.0188 36.1413 58.5699 38.9921 58.3908H38.9883Z" fill="#192D35"/>
<path d="M38.4889 64.3552C39.7542 67.831 29.9099 52.0794 29.6927 49.5107C29.4755 46.9419 33.0122 33.8429 43.1347 27.3258C51.6146 21.8682 63.0062 23.7585 64.9956 24.113C68.7573 24.7799 71.2002 26.6169 71.2002 26.6169C71.2002 26.6169 56.2757 24.0939 44.3962 29.0751C38.668 31.4762 33.744 51.3324 38.4889 64.3552Z" fill="#CC92F4"/>
<path d="M38.4127 26.6895C38.4127 26.6895 40.3793 18.7775 46.8469 15.8772C46.8469 15.8772 48.7029 22.6154 47.0413 25.5614C46.2142 27.0249 41.1034 29.1591 40.2078 28.4808C39.3122 27.8024 38.4089 26.6895 38.4089 26.6895H38.4127Z" fill="#CC92F4"/>
<path opacity="0.1" d="M38.4167 26.6934C38.4167 26.6934 39.3238 27.8024 40.2118 28.477C40.2423 28.5037 40.288 28.5342 40.349 28.5456C40.3947 28.5723 40.4557 28.5837 40.5319 28.5952C40.5777 28.5952 40.6234 28.6066 40.6806 28.6028C41.3552 28.6447 42.4909 28.3208 43.6342 27.8291C43.2036 26.983 42.5824 25.9045 41.9916 25.1727C41.4809 24.5401 40.4176 24.1894 39.4038 23.9836C38.6873 25.5615 38.4167 26.6972 38.4167 26.6972V26.6934Z" fill="#010000"/>
<path d="M37.0675 28.1226C37.0675 28.1226 27.2613 29.6585 23.4082 33.119C23.4082 33.119 27.4099 37.2084 32.475 36.9226C34.7426 36.793 39.6667 31.0305 38.9845 30.0358C38.3023 29.0411 37.0637 28.1226 37.0637 28.1226H37.0675Z" fill="#CC92F4"/>
<path opacity="0.1" d="M34.8571 28.5457C34.9638 29.468 35.2649 30.7409 36.0081 31.587C36.4197 32.0596 37.0523 32.4331 37.7269 32.7304C38.6683 31.5184 39.2437 30.4246 38.9846 30.0359C38.3062 29.0526 37.0638 28.1265 37.0638 28.1265C37.0638 28.1265 36.1872 28.2599 34.8533 28.5495L34.8571 28.5457Z" fill="#010000"/>
<path d="M36.7625 30.5539C38.024 31.8116 40.0668 31.8078 41.3245 30.5463C42.5821 29.2848 42.5783 27.242 41.3168 25.9843C40.0553 24.7267 38.0125 24.7305 36.7549 25.992C35.4972 27.2535 35.501 29.2963 36.7625 30.5539Z" fill="#38FFE8"/>
<path d="M41.0653 61.2949C41.0653 61.2949 36.1374 53.1505 32.4749 54.8579C28.8161 56.5653 32.1624 68.1208 36.2098 69.9387C40.2535 71.7566 42.0104 68.0445 42.0104 68.0445L41.0653 61.2949Z" fill="#FCF18B"/>
<path d="M33.5153 58.1469C33.4505 58.1355 33.4315 58.2308 33.4848 58.2575C36.3165 59.6257 37.6695 62.4231 38.5575 65.2891C37.7648 64.1572 36.6252 63.4902 35.116 64.424C35.036 64.4735 35.1008 64.5955 35.1846 64.584C36.3928 64.4087 37.2388 64.6717 37.9782 65.6778C38.5042 66.3905 38.8357 67.2709 39.194 68.0789C39.3121 68.3495 39.7923 68.2389 39.7123 67.934C39.7047 67.9112 39.7009 67.8883 39.6932 67.8654C40.0096 64.161 37.4713 58.7834 33.5153 58.1508V58.1469Z" fill="#E8DE85"/>
<path d="M398.706 303.449C397.399 306.982 333.265 386.701 328.901 388.195C327.247 388.77 315.093 380.107 300.702 369.223C297.592 366.871 294.398 364.428 291.17 361.924C270.178 345.704 248.283 328.005 248.283 328.005L291.029 274.553L332.742 309.944L341.905 317.703C341.905 317.703 380.112 298.163 385.078 297.039C390.028 295.93 400.021 299.909 398.714 303.446L398.706 303.449Z" fill="#864240"/>
<path d="M279.958 353.208C283.635 356.082 287.427 359.02 291.17 361.924C294.406 364.436 297.588 366.882 300.694 369.23C315.093 380.115 327.243 388.766 328.901 388.191C333.268 386.697 397.395 306.99 398.71 303.442C400.025 299.912 390.024 295.937 385.066 297.039C380.108 298.171 341.904 317.711 341.904 317.711L332.742 309.943L323.435 302.047L279.961 353.204L279.958 353.208Z" fill="#ECECEC"/>
<path d="M399.476 303.083C398.127 306.674 332.529 387.455 328.081 388.953C326.027 389.647 308.263 376.414 289.829 362.058L332.35 309.383L341.634 317.322C341.634 317.322 380.584 297.626 385.638 296.505C390.68 295.4 400.825 299.493 399.476 303.083Z" fill="#375A64"/>
<path d="M395.303 301.62C383.972 314.89 339.534 369.489 329.343 383.469C329.259 383.583 329.335 383.644 329.427 383.537C340.944 370.629 384.94 315.672 395.524 301.799C395.749 301.506 395.539 301.338 395.303 301.62Z" fill="#1A2E35"/>
<path d="M340.171 312.97C334.85 317.49 330.376 324.674 330.864 331.827C330.883 332.106 331.275 332.075 331.363 331.858C333.974 325.257 336.897 319.483 340.826 313.538C341.104 313.118 340.552 312.646 340.171 312.97Z" fill="#1A2E35"/>
<path d="M345.613 311.007C340.292 315.527 335.818 322.711 336.306 329.865C336.325 330.143 336.717 330.112 336.805 329.895C339.416 323.29 342.339 317.52 346.268 311.575C346.546 311.156 345.994 310.683 345.613 311.007Z" fill="#1A2E35"/>
<path d="M351.055 309.044C345.735 313.564 341.26 320.748 341.748 327.902C341.767 328.18 342.16 328.15 342.247 327.932C344.858 321.328 347.781 315.558 351.711 309.612C351.989 309.193 351.436 308.72 351.055 309.044Z" fill="#1A2E35"/>
<path d="M356.497 307.077C351.177 311.597 346.703 318.782 347.191 325.935C347.21 326.213 347.602 326.183 347.69 325.966C350.3 319.361 353.224 313.591 357.153 307.645C357.431 307.226 356.879 306.753 356.497 307.077Z" fill="#1A2E35"/>
<path d="M335.841 293.121C331.256 292.873 329.389 297.824 329.45 301.567C329.553 307.626 331.717 314.62 334.991 319.685C335.071 319.811 335.197 319.792 335.285 319.715C335.704 320.028 336.428 320.013 336.63 319.418C338.574 313.694 341.36 307.817 341.489 301.669C341.565 298.079 340.174 293.353 335.837 293.117L335.841 293.121ZM337.804 310.142C336.916 312.981 335.894 315.756 335.113 318.629C334.042 315.092 332.823 311.62 332.11 307.977C331.771 306.239 331.451 304.448 331.351 302.676C331.195 299.92 333.223 291.151 338.307 296.837C341.108 299.973 338.863 306.761 337.804 310.146V310.142Z" fill="#1A2E35"/>
<path d="M322.601 332.102C328.04 329.228 332.045 324.102 336.291 319.799C336.729 319.353 336.42 318.698 335.952 318.465C335.978 318.355 335.94 318.233 335.791 318.218C329.797 317.562 322.574 318.759 317.109 321.385C313.736 323.005 310.146 326.896 312.421 330.882C314.575 334.655 319.422 333.779 322.597 332.102H322.601ZM316.85 331.423C309.487 329.426 316.419 323.683 318.954 322.589C320.581 321.884 322.327 321.366 324.034 320.889C327.613 319.895 331.26 319.426 334.903 318.801C332.689 320.786 330.662 322.944 328.524 325.009C325.974 327.471 320.909 332.525 316.85 331.423Z" fill="#1A2E35"/>
<path d="M330.486 301.757L285.488 362.469L133.643 257.102L119 246.937C119 246.937 114.854 249.727 108.615 253.18C99.9443 257.971 87.2417 264.038 76.0025 265.696C57.1525 268.486 25.6759 268.185 9.78715 246.941C-3.59389 229.051 3.67402 205.712 3.67402 205.712L24.3725 196.824C24.3725 196.824 73.3538 156.014 105.082 154.783C118.558 154.246 138.182 164.46 156.354 175.131C174.51 185.787 330.486 301.757 330.486 301.757Z" fill="#5835F2"/>
<path d="M119 246.937C119 246.937 114.854 249.727 108.615 253.18C97.5815 239.971 74.2228 215.983 73.5139 215.133L119 246.941V246.937Z" fill="#1A2E35"/>
<path d="M42.3194 183.161C39.3925 185.192 36.5608 187.353 33.6719 189.442C30.8287 191.496 27.898 193.424 25.1958 195.665C22.448 197.945 19.8449 200.38 17.2571 202.834C16.0071 204.02 14.7684 205.212 13.5641 206.44C12.3674 207.655 11.0297 208.875 10.0388 210.266C9.94731 210.396 10.1341 210.548 10.256 210.472C11.6547 209.576 12.9124 208.345 14.1815 207.278C15.5535 206.127 16.9065 204.953 18.2709 203.795C20.9044 201.558 23.5875 199.381 26.2134 197.137C28.8241 194.907 31.2404 192.468 33.8243 190.208C36.5912 187.792 39.5068 185.539 42.3804 183.252C42.4338 183.211 42.3804 183.115 42.3233 183.157L42.3194 183.161Z" fill="#1A2E35"/>
<path d="M319.922 299.577C316.998 302.729 314.296 306.121 311.575 309.448C308.842 312.787 306.125 316.141 303.431 319.51C298.034 326.252 292.592 332.963 287.286 339.778C284.371 343.52 281.497 347.293 278.787 351.188C278.666 351.364 278.944 351.558 279.085 351.406C284.889 345.022 290.198 338.211 295.583 331.477C300.98 324.727 306.354 317.962 311.647 311.133C314.544 307.394 317.528 303.678 320.192 299.772C320.299 299.615 320.051 299.44 319.925 299.577H319.922Z" fill="#1A2E35"/>
<path d="M195.304 300.198C187.75 294.245 179.914 288.624 172.082 283.04C164.288 277.484 156.502 271.912 148.59 266.523C146.319 264.975 144.028 263.462 141.741 261.938C139.459 260.421 137.08 259.019 134.843 257.441C134.714 257.349 134.596 257.566 134.725 257.658C136.779 259.133 138.719 260.783 140.739 262.311C142.668 263.771 144.581 265.25 146.524 266.687C150.317 269.495 154.151 272.251 157.973 275.018C165.733 280.628 173.546 286.166 181.442 291.577C185.924 294.653 190.387 297.736 194.968 300.659C195.243 300.835 195.567 300.4 195.308 300.198H195.304Z" fill="#1A2E35"/>
<path d="M243.862 237.554C236.88 231.769 229.398 226.566 222.081 221.216C214.68 215.804 207.316 210.342 199.885 204.972C192.514 199.644 185.139 194.312 177.768 188.984C170.622 183.82 163.511 178.568 155.965 173.995C151.833 171.491 147.599 169.17 143.243 167.082C139.013 165.054 134.618 162.985 130.094 161.712C129.957 161.673 129.885 161.872 130.007 161.94C133.726 164.017 137.633 165.767 141.398 167.771C145.118 169.753 148.788 171.838 152.39 174.026C159.883 178.568 166.956 183.729 174.064 188.84C188.825 199.454 203.555 210.114 218.422 220.583C226.738 226.441 234.89 232.622 243.526 238.008C243.797 238.175 244.11 237.76 243.858 237.554H243.862Z" fill="#1A2E35"/>
</svg>
