<svg width="957" height="32" viewBox="0 0 957 32" fill="none" xmlns="http://www.w3.org/2000/svg">
<path d="M952.012 15.6316C949.26 12.0206 946.507 8.40962 943.749 4.7986C943.123 3.98048 942.339 3.07773 941.303 3.09466C940.354 3.11159 939.626 3.89021 939.017 4.61241C935.093 9.27287 931.169 13.9277 927.245 18.5882C921.376 13.8036 915.502 9.01897 909.633 4.23438C909.036 3.74915 908.393 3.247 907.625 3.18493C906.42 3.08902 905.459 4.09897 904.668 5.00172C901.455 8.66916 897.895 12.0263 894.045 15.0279C893.465 15.4793 892.8 15.9476 892.066 15.8799C891.412 15.8178 890.883 15.3495 890.4 14.8982C886.396 11.1574 882.398 7.41659 878.395 3.67016C877.832 3.1398 877.234 2.59815 876.489 2.37246C874.829 1.87594 873.208 3.12851 871.894 4.25131C867.385 8.11058 864.917 11.4733 859.662 14.2493C858.962 14.6217 858.195 14.9941 857.41 14.8925C856.506 14.7797 855.806 14.08 855.18 13.4199C851.473 9.5042 847.765 5.58851 844.057 1.67282C843.551 1.14246 842.976 0.572594 842.243 0.510529C841.213 0.420254 840.417 1.33429 839.803 2.15805C837.255 5.59416 833.098 9.02462 829.93 12.4607C828.605 13.8938 826.399 14.1195 824.789 13.008C820.479 10.0346 816.742 6.23172 813.87 1.86466C813.478 1.26658 812.972 0.736217 812.329 0.403327C810.692 -0.448645 809.77 0.48796 808.974 1.3625C808.246 2.1637 807.53 2.97617 806.813 3.78865C806.54 4.03691 806.284 4.32466 806.051 4.60113C802.127 9.26159 798.203 13.9164 794.279 18.5769C788.41 13.7923 782.535 9.00769 776.667 4.2231C776.069 3.73787 775.427 3.23571 774.659 3.17365C773.453 3.07773 772.492 4.08769 771.702 4.99044C768.489 8.65787 764.929 12.015 761.079 15.0166C760.499 15.468 759.833 15.9363 759.1 15.8686C758.446 15.8065 757.917 15.3382 757.433 14.8869C753.43 11.1461 749.432 7.4053 745.428 3.65888C744.865 3.12851 744.268 2.58686 743.523 2.36117C741.862 1.86466 740.242 3.11723 738.928 4.24003C734.418 8.09929 731.95 11.462 726.695 14.238C725.996 14.6104 725.228 14.9828 724.443 14.8812C723.539 14.7684 722.84 14.0687 722.214 13.4086C718.506 9.49292 714.798 5.57723 711.09 1.66154C710.584 1.13117 710.01 0.561309 709.276 0.499245C708.247 0.40897 707.451 1.32301 706.837 2.14677C704.289 5.58287 700.132 9.01333 696.964 12.4494C695.639 13.8826 693.432 14.1082 691.823 12.9967C687.512 10.0233 683.776 6.22044 680.904 1.85337C680.512 1.2553 680.006 0.724933 679.363 0.392043C677.725 -0.45993 676.804 0.476676 676.008 1.35122C671.367 6.42356 667.068 11.8006 663.121 17.4202C657.719 13.0193 652.316 8.61273 646.908 4.21182C646.31 3.72659 645.668 3.22443 644.9 3.16237C643.694 3.06645 642.733 4.0764 641.943 4.97916C638.73 8.64659 635.17 12.0037 631.32 15.0054C630.74 15.4567 630.074 15.925 629.341 15.8573C628.687 15.7953 628.158 15.327 627.674 14.8756C623.671 11.1348 619.673 7.39402 615.669 3.64759C615.106 3.11723 614.509 2.57558 613.764 2.34989C612.104 1.85337 610.483 3.10594 609.169 4.22874C604.659 8.08801 602.191 11.4508 596.936 14.2267C596.237 14.5991 595.469 14.9715 594.684 14.8699C593.78 14.7571 593.075 14.0575 592.455 13.3973C588.747 9.48163 585.039 5.56594 581.331 1.65025C580.825 1.11989 580.251 0.550025 579.517 0.48796C578.488 0.397685 577.692 1.31172 577.078 2.13548C574.53 5.57159 570.373 9.00205 567.205 12.4381C565.88 13.8713 563.674 14.097 562.064 12.9854C557.753 10.012 554.017 6.20916 551.145 1.84209C550.753 1.24402 550.247 0.713649 549.604 0.380759C547.966 -0.471214 547.045 0.465392 546.249 1.33993C545.726 1.91544 545.214 2.50223 544.696 3.08337C544.611 3.07209 544.52 3.05516 544.429 3.06081C543.479 3.07773 542.751 3.85636 542.143 4.57856C538.219 9.23902 534.295 13.8938 530.371 18.5543C524.502 13.7697 518.627 8.98512 512.758 4.20053C512.161 3.7153 511.519 3.21315 510.751 3.15108C509.545 3.05516 508.584 4.06512 507.794 4.96787C504.58 8.6353 501.02 11.9924 497.17 14.9941C496.59 15.4454 495.925 15.9137 495.191 15.846C494.537 15.784 494.008 15.3157 493.525 14.8643C489.521 11.1235 485.524 7.38273 481.52 3.63631C480.957 3.10594 480.36 2.56429 479.615 2.3386C477.954 1.84209 476.333 3.09466 475.02 4.21746C470.51 8.07673 468.042 11.4395 462.787 14.2154C462.088 14.5878 461.32 14.9602 460.535 14.8587C459.631 14.7458 458.926 14.0462 458.306 13.386C454.598 9.47035 450.89 5.55466 447.182 1.63897C446.676 1.1086 446.102 0.53874 445.368 0.476676C444.339 0.386401 443.543 1.30044 442.928 2.1242C440.381 5.5603 436.223 8.99076 433.056 12.4269C431.731 13.86 429.524 14.0857 427.915 12.9742C423.604 10.0007 419.868 6.19787 416.996 1.8308C416.604 1.23273 416.097 0.702364 415.455 0.369474C413.817 -0.482499 412.896 0.454107 412.099 1.32865C407.669 6.1753 403.546 11.2984 399.747 16.6472C394.652 12.4946 389.556 8.34191 384.461 4.18925C383.864 3.70402 383.221 3.20186 382.453 3.1398C381.248 3.04388 380.287 4.05383 379.496 4.95659C376.283 8.62402 372.723 11.9811 368.873 14.9828C368.293 15.4342 367.628 15.9025 366.894 15.8348C366.24 15.7727 365.711 15.3044 365.228 14.853C361.224 11.1122 357.226 7.37145 353.223 3.62503C352.66 3.09466 352.062 2.55301 351.317 2.32732C349.657 1.83081 348.036 3.08337 346.722 4.20617C342.213 8.06544 339.744 11.4282 334.49 14.2042C333.79 14.5765 333.023 14.9489 332.238 14.8474C331.334 14.7345 330.628 14.0349 330.008 13.3748C326.301 9.45907 322.593 5.54338 318.885 1.62769C318.379 1.09732 317.804 0.527456 317.071 0.465392C316.041 0.375116 315.245 1.28915 314.631 2.11292C312.083 5.54902 307.926 8.97948 304.758 12.4156C303.433 13.8487 301.227 14.0744 299.617 12.9629C295.307 9.98943 291.57 6.18659 288.698 1.81952C288.306 1.22145 287.8 0.69108 287.157 0.35819C285.52 -0.493783 284.598 0.442823 283.802 1.31736C279.161 6.38971 274.862 11.7667 270.915 17.3864C265.513 12.9854 260.11 8.57888 254.702 4.17796C254.105 3.69273 253.462 3.19058 252.694 3.12851C251.489 3.03259 250.528 4.04255 249.737 4.9453C246.524 8.61273 242.964 11.9698 239.114 14.9715C238.534 15.4229 237.869 15.8912 237.135 15.8235C236.481 15.7614 235.952 15.2931 235.469 14.8417C231.465 11.1009 227.467 7.36017 223.464 3.61374C222.901 3.08337 222.303 2.54172 221.558 2.31603C219.898 1.81952 218.277 3.07209 216.963 4.19489C212.454 8.05416 209.986 11.4169 204.731 14.1929C204.031 14.5653 203.264 14.9376 202.479 14.8361C201.575 14.7232 200.875 14.0236 200.249 13.3635C196.542 9.44778 192.834 5.53209 189.126 1.6164C188.62 1.08603 188.045 0.516172 187.312 0.454107C186.282 0.363832 185.486 1.27787 184.872 2.10163C182.324 5.53773 178.167 8.96819 174.999 12.4043C173.674 13.8374 171.468 14.0631 169.858 12.9516C165.548 9.97815 161.811 6.1753 158.94 1.80824C158.547 1.21016 158.041 0.679795 157.398 0.346905C155.761 -0.505068 154.839 0.431538 154.043 1.30608C153.52 1.88158 153.008 2.46837 152.491 3.04952C152.405 3.03824 152.314 3.02131 152.223 3.02695C151.274 3.04388 150.546 3.8225 149.937 4.54471C146.013 9.20517 142.089 13.86 138.165 18.5204C132.296 13.7359 126.422 8.95127 120.553 4.16668C119.956 3.68145 119.313 3.17929 118.545 3.11723C117.34 3.02131 116.378 4.03127 115.588 4.93402C112.375 8.60145 108.815 11.9586 104.965 14.9602C104.385 15.4116 103.719 15.8799 102.986 15.8122C102.332 15.7501 101.803 15.2818 101.319 14.8304C97.3158 11.0897 93.3179 7.34888 89.3143 3.60246C88.7513 3.07209 88.1542 2.53044 87.4092 2.30475C85.7486 1.80824 84.1278 3.06081 82.8141 4.1836C78.3044 8.04287 75.8363 11.4056 70.5815 14.1816C69.882 14.554 69.1143 14.9264 68.3295 14.8248C67.4253 14.712 66.7258 14.0123 66.1002 13.3522C62.3923 9.4365 58.6844 5.52081 54.9766 1.60512C54.4704 1.07475 53.896 0.504887 53.1624 0.442823C52.1331 0.352548 51.3369 1.26658 50.7227 2.09035C48.175 5.52645 44.0178 8.95691 40.8502 12.393C39.5251 13.8261 37.3186 14.0518 35.7092 12.9403C31.3985 9.96686 27.6622 6.16402 24.7903 1.79695C24.3979 1.19888 23.8917 0.668511 23.2491 0.335621C21.6113 -0.516352 20.69 0.420254 19.8938 1.2948C12.6088 9.38572 6.11436 18.1368 0.575276 27.4521C0.393293 27.7567 0.205624 28.084 0.0975724 28.4225C0.0179552 28.6764 -0.0218534 28.936 0.0122683 29.2011C0.171503 30.3691 1.59893 30.8374 2.77612 31.0236C9.46397 32.0617 16.2655 32.0279 23.033 31.9827C61.6758 31.7571 100.319 31.5257 138.956 31.3C144.984 32.0505 151.092 32.0222 157.171 31.9827C194.409 31.7627 231.653 31.5427 268.891 31.3226C274.856 32.0448 280.907 32.0166 286.924 31.9827C323.696 31.7683 360.473 31.5483 397.245 31.3282C403.194 32.0448 409.222 32.0166 415.222 31.9827C453.864 31.7571 492.507 31.5257 531.144 31.3C537.172 32.0505 543.28 32.0222 549.359 31.9827C586.598 31.7627 623.841 31.5427 661.079 31.3226C667.045 32.0448 673.096 32.0166 679.113 31.9827C717.38 31.7571 755.642 31.5314 793.904 31.3057C799.915 32.0448 806.005 32.0222 812.073 31.9827C857.973 31.7119 903.866 31.4411 949.766 31.1703C961.304 31.1026 956.687 21.776 952.006 15.6373L952.012 15.6316Z" fill="white"/>
</svg>
